<svg width="500" height="333.3333333333333" xmlns="http://www.w3.org/2000/svg" xmlns:svg="http://www.w3.org/2000/svg" xmlns:xlink="http://www.w3.org/1999/xlink">
 <!-- Created with SVG-edit - http://svg-edit.googlecode.com/ -->
 <g display="inline" class="layer">
  <title>Layer 1</title>
  <path t="0,402,428,439,439,472,487,501,664,672,720,720,735,800,818,818,856,872,887,903,943,952,968,986,1001,1023,1060,1136,1151,1176,1186,1231,1263,1285,1304,1351,1399,1419,1439,1455,1503,1624,1669,1688,1702,1735,1792,1816,1856,1880,1919,1959,1975,1985,2007,2103,2118,2200,2231,2255,2296,2335,2368,2368,2399,2447,2472,2512,2527,2543,2543,2559,2591,2608,2623,2668,2685,2685,2702,2718,2718,2718,2735,2752,2791,2802,2818,2836,2852,2853,2868,2869,2885,2886,2902,2920,2920,2935,2936,2959,2959,2983,3003,3039,3055,3096,3103,3143,3168,3207,3231,3231,3247,3263,3527,3535,3567,3585,3602,3618,3639,3712,3872,3960,3975,4056,4071,4151,4168,4185,4203,4256,4285,4302,4327,4488,4535" d="M322.5,142.66667C321.50449,144.36667 321.51184,145.31816 321.216,146.15067C320.96509,146.85677 320.67847,147.79388 320.49985,148.76649C320.35361,149.56282 319.62875,150.03188 319.49866,150.86667C319.35599,151.78215 318.73572,152.31281 318.11066,153.06667C317.56552,153.72412 317.26605,154.62494 316.85266,155.36667C316.42703,156.13036 316.0787,156.92552 315.62134,157.76649C315.21481,158.51399 314.74045,158.98033 314.49866,159.86534C314.28073,160.6631 313.4787,161.04874 312.92532,161.692C312.36569,162.34256 311.72174,162.79037 310.89999,163.24133C310.12003,163.66937 309.17831,163.47177 308.30133,163.668C307.49429,163.84857 307.02628,164.41615 306.2045,164.67117C305.44144,164.90797 304.88934,165.65601 304,165.66667C303.11066,165.67734 302.41592,166.08121 301.85266,166.71933C301.32712,167.31473 300.55124,167.58414 299.936,168.27733C299.35165,168.93575 298.74057,169.60786 298.50449,170.37117C298.23962,171.22755 298.04361,172.0484 297.58401,172.86534C297.18872,173.56799 296.62537,174.20735 295.97916,174.66667C295.28207,175.16216 294.27023,175.33762 293.62134,175.888C292.96011,176.44884 292.69315,177.33717 291.97916,177.64583C291.17197,177.99478 290.20001,177.66667 289.29999,177.66667C288.39999,177.66667 287.5,177.66667 286.70001,177.66667C285.79999,177.66667 284.87799,177.84473 284,177.64583C283.03766,177.42783 282.32782,176.95569 281.5,176.5C280.76575,176.09583 280.63232,174.9622 279.88934,174.67734C279.07788,174.36621 278.50681,173.85378 277.73834,173.67117C276.8714,173.46518 275.93787,173.67799 275.12534,173.23067C274.27359,172.76175 273.70007,172.21672 272.98401,171.952C272.04715,171.60564 271.05292,171.76067 270.20001,171.314C269.44778,170.92004 268.8877,170.30998 268.21466,169.75067C267.54538,169.19449 266.76053,168.93517 266.01599,168.46666C265.34048,168.0416 264.36725,167.48694 263.8045,166.96666C263.17911,166.38847 262.53656,165.62538 261.86401,165.06667C261.21155,164.52463 260.52594,164.11691 259.52151,163.78799C258.71799,163.52487 258.10178,163.09435 257.52533,162.27733C257.06094,161.61914 256.3399,161.23643 255.784,160.58267C255.26173,159.96849 254.88702,159.0847 254.52533,158.26666C254.17848,157.48219 253.61075,156.67622 253.50133,155.86667C253.38052,154.97289 253.06549,154.27223 252.584,153.468C252.13879,152.72438 251.62283,151.95 250.88933,151.67734C250.07472,151.37453 249.5119,150.85243 248.7955,150.67117C247.92734,150.45152 246.99998,150.67152 246.10001,150.66667C245.11063,150.66133 244.55515,150.09476 243.88933,149.64133C243.16173,149.14581 242.73521,148.36745 242.216,147.75067C241.65923,147.08928 241.12434,146.5224 240.66667,145.66667C240.24338,144.87521 239.62151,144.44516 239.5,143.56667L239.5,142.66667" id="svg_1" stroke-width="3" stroke="#000" fill="none"/>
  <path t="5819,5952,5969,5985,5985,6002,6002,6018,6018,6035,6035,6063,6104,6119,6136,6137,6151,6169,6171,6186,6186,6186,6202,6202,6202,6219,6219,6219,6236,6236,6237,6237,6253,6253,6253,6253,6253,6269,6269,6269,6351,6351,6368,6368,6385,6385,6402,6402,6402,6403,6420,6420,6421,6421,6435,6435,6436,6436,6452,6453,6453,6536,6553,6569,6569,6585,6585,6585,6585,6603,6603,6603,6603,6603,6603,6621,6621,6621,6621,6621,6621,6621,6636,6637,6637,6637,6687,6687,6703,6719,6735,7088,7104,7104,7120,7152,7202,7219,7235,7252,7286,7344,7376,7376,7447,7560,7560,7602,7704,7791,7816,7880,7919,7935,7975,8040,8079,8216,8235,8344,8376,8399,8439,8472,8472,8495,8535,8559,8602,8624,8639,8663,8688,8688,8712,8719,8735,8760,8775,8791,8807,8824,8824,8839,8855,8879,8887,8902,8919,8935,8935,8953,8954,8969,8985,8985,8985,9003,9003,9018,9018,9019,9037,9037,9052,9069,9085,9086,9103,9120,9151,9151,9169,9185,9185,9202,9232,9255,9268,9302,9302,9320,9343,9368,9385,9436,9455,9495,9543,9543,9567,9624,9728,9759,9815,9835,9835,9852,9912,9992,10007,10103,10119,10176,10263,10295,10311,10328,10367,10399,10447,10544,10544,10608" d="M272.5,120.66666C270.79999,120.66666 269.84229,120.63806 269.01599,120.952C268.30234,121.22315 267.40018,121.88797 266.74734,122.36667C266.0329,122.89055 265.30154,123.23029 264.52151,123.7665C263.78033,124.27601 263.00015,124.65401 262.10001,124.66666C261.19559,124.67938 260.28763,124.74294 259.52084,125.1875C258.68185,125.67394 258.3399,126.52216 257.52802,126.75066C256.73517,126.97381 255.95744,127.18481 255.09734,127.468C254.19923,127.7637 253.31844,128.08382 252.45717,128.30949C251.42937,128.57881 250.71292,128.62662 249.99017,128.71933C248.85379,128.8651 248.18454,129.01889 247.45833,129.1875C246.68976,129.36595 245.5007,129.66954 244.70134,129.86534C243.91135,130.05884 243.13986,130.2514 242.38533,130.38133C240.99274,130.62112 240.34323,130.60915 239.46167,130.71933C238.41621,130.85001 237.77545,131.17834 236.66667,131.5C235.92529,131.71507 235.05733,131.66667 234.35867,131.66667C233.16133,131.66667 232.37733,131.66667 231.52933,131.66667C231.09633,131.66667 229.83333,131.66667 228.70984,131.66667C228.02083,131.66667 227.35184,131.66667 225.97884,131.66667C225.25183,131.66667 224.52083,131.66667 223.80983,131.66667C222.54317,131.66667 221.78267,131.66667 220.98801,131.66667C219.91066,131.66667 218.97917,131.66667 218.17833,131.66667C217.25333,131.66667 216.33333,131.66667 215.52933,131.66667C214.58133,131.66667 213.84267,131.66667 213,131.66667C212.04401,131.66667 210.992,131.66667 210.4375,131.66667C209.868,131.66667 208.696,131.66667 207.5,131.66667C206.90033,131.66667 205.709,131.66667 205.12134,131.66667C203.972,131.66667 203.41434,131.66667 202.87067,131.66667C201.34351,131.66667 200.42783,131.66667 199.60417,131.66667C198.88049,131.66667 197.7645,131.66667 196.81351,131.66667C195.89999,131.66667 194.987,131.80876 194.10001,131.65601C193.26686,131.51253 192.50931,130.77921 191.7,130.668C190.86299,130.55299 190.39955,129.87488 190,129.16667C189.50465,128.28867 189.05913,127.60641 188.47467,127.092C187.85124,126.54328 186.99486,126.15112 186.39999,125.56667C185.79472,124.97199 185.10921,124.25732 184.5,123.66666C183.90878,123.09346 182.96368,122.73963 182.2,122.314C181.45828,121.90061 180.8046,121.39732 180.216,120.75066C179.63835,120.11603 178.77441,119.79275 178.51067,119.056C178.21091,118.21864 178.5,117.26667 178.5,116.36667C178.5,115.46667 178.10524,114.28374 178.78534,113.752C179.50902,113.18617 180.60001,113.66666 181.5,113.66666C182.3,113.66666 183.2,113.66666 184.10001,113.66666C185,113.66666 185.89999,113.66666 186.8,113.66666C187.7,113.66666 188.60001,113.66666 189.5,113.66666C190.3,113.66666 191.2,113.66666 192.10001,113.66666C193,113.66666 193.89999,113.66666 194.8,113.66666C195.7,113.66666 196.60001,113.66666 197.5,113.66666C198.3,113.66666 199.2,113.66666 200.10001,113.66666C201,113.66666 201.89999,113.66666 202.8,113.66666C203.7,113.66666 204.5,113.66666 205.38533,113.66666C206.32533,113.66666 207.01601,113.66666 208.02083,113.66666C209.04283,113.66666 209.76134,113.66666 210.55183,113.66666C211.57851,113.66666 212.47917,113.66666 213.5,113.66666C214.3,113.66666 215.10001,113.66666 216.0955,113.66666C216.84283,113.66666 217.87007,113.56737 218.7,113.668C219.61977,113.77953 220.26852,114.50322 221.10001,114.656C222.0062,114.8225 222.97678,114.96847 223.67467,115.24133C224.60565,115.60532 225.53644,115.49851 226.3,115.752C227.07216,116.00834 227.79865,116.63807 228.7,116.66666C229.59955,116.69521 230.5,116.66666 231.3,116.66666C232.2,116.66666 233.10001,116.66666 234,116.66666C234.89999,116.66666 235.8,116.66666 236.7,116.66666C237.60001,116.66666 238.5,116.66666 239.3,116.66666C240.2,116.66666 241.10002,116.672 242,116.66666C242.90004,116.66133 243.73639,116.20473 244.5,115.83334C245.25391,115.46665 245.96593,114.99577 246.47467,114.27734C246.93922,113.6213 247.94453,113.76212 248.7,113.38267C249.5672,112.94708 250.0544,112.24898 250.7215,111.78817C251.4512,111.28412 252.65379,111.98903 253.37866,111.44534C254.02168,110.96303 254.7,110.66666 255.60001,110.66666L256.5,110.66666L257.29999,110.66666L258.20001,110.66666" id="svg_2" stroke-width="3" stroke="#000" fill="none"/>
  <path t="35898,36096,36111,36128,36128,36136,36159,36415,36437,36487,36503,36520,36543,36585,36585,36640,36656,36696,36728,36775,36775,36808,36819,36837,36853,36853,36869,36869,36869,36869,36886,36887,36887,36904,36904,36904,36904,36904,36919,36920,36920,36920,36920,36937,36937,36952,36952,36970,36970,36970,36986" d="M201.5,134.66667C200.58533,134.952 200.5,135.76666 200.5,136.66667C200.5,137.46666 200.5,138.36667 200.5,139.26666C200.5,140.16667 200.3815,141.37943 201.11067,141.65601C201.94225,141.97144 202.94453,141.57121 203.7,141.95067C204.5672,142.38625 205.3,142.666 206.2,142.66667C207.10001,142.66734 208.013,142.52458 208.89999,142.67734C209.73314,142.82082 210.26862,143.51849 211.2,143.66217C212.08949,143.79939 213.02083,143.66667 213.98801,143.66667C214.78267,143.66667 215.83333,143.66667 216.468,143.66667C217.5,143.66667 218.19467,143.66667 219.16667,143.66667C219.99916,143.66667 220.78667,143.66667 222,143.66667C222.75467,143.66667 223.59734,143.66667 224.496,143.66667C224.95633,143.66667 226.33333,143.66667 227.21201,143.66667C228.04266,143.66667 228.81734,143.66667 229.528,143.66667C230.72934,143.66667 231.67867,143.66667 232.7,143.66667C233.5,143.66667 234.5,143.66667 235.28934,143.66667L236.01466,143.66667L236.97917,143.66667" id="svg_7" stroke-width="3" stroke="#000" fill="none"/>
  <path t="42382,42639,42652,42671,42704,42719,42736,42753,42771,42786,42848,42870,42870,42904,42920,42952,42952,42999,43023,43063,43064,43079,43119,43143,43167,43186,43236,43236,43263,43280,43288,43319,43360,43376,43420,43471,43536,43553,43569,43586,43586,43603,43621,43636,43652,43688,43760,43784,43807,43831,43855,43888,43903,43936,43953,44039,44080,44119,44136,44167,44199,44231,44253,44280,44311,44376,44447,44496,44528,44528,44569,44608,44672,44728,44767,44787,44807,44820,44836,44856,44872,44887,44903,44928,44968,44987,45080,45080,45087,45112,45120" d="M258.5,106.66666C259.2045,107.314 259.92261,107.8259 260.58401,108.38267C261.20078,108.90186 262.1539,109.14921 262.88934,109.64133C263.55881,110.08932 264.13092,110.49617 265,110.6875C265.8475,110.87408 266.42712,111.75598 267.10001,112.23067C267.83481,112.74903 268.62732,113.07555 269.5,113.5C270.25391,113.86668 270.96835,114.22866 271.79999,114.614C272.67188,115.01799 273.27167,115.49991 274.20001,115.66217C275.08746,115.81728 275.81036,116.28471 276.70001,116.58134C277.55765,116.86729 278.46667,116.88726 279.10001,117.24133C279.96127,117.72284 280.88934,117.67733 281.5,118.16666C282.11066,118.656 283,118.66666 283.89999,118.66666C284.79999,118.66666 285.71274,118.81733 286.59982,118.6665C287.45093,118.5218 287.54779,117.5654 287.5,116.66666C287.45728,115.86327 286.75531,115.12891 286.53601,114.26667C286.31506,113.39791 285.96753,112.78612 285.5,112.14584C284.92404,111.35709 284.82016,110.43288 284.216,109.75066C283.68951,109.15613 283.07394,108.58909 282.47467,108.092C281.85971,107.58189 280.98318,107.50474 280.41599,106.95067C279.74237,106.29265 279.88937,105.31935 279.2785,104.78817C278.60938,104.20633 277.67288,104.31474 277.14734,103.71933C276.58408,103.08119 276.11542,102.4479 275.41599,101.95067C274.63437,101.395 273.94559,101.24899 273.2785,100.78817C272.5488,100.28411 271.5,100.66666 270.70001,100.66666C269.79999,100.66666 268.89999,100.66666 268,100.66666C267.10001,100.66666 266.17761,100.46859 265.30133,100.668C264.49704,100.85103 264.63733,101.94778 264.14734,102.614C263.6441,103.29822 263.74289,104.1015 263.49551,104.96217C263.27481,105.73006 262.55988,106.21748 262.14734,106.96667C261.68552,107.80537 261.33334,108.66666 260.88934,109.23067L260.02084,109.66666L259.47467,110.24133L258.784,110.75066" id="svg_8" stroke-width="3" stroke="#000" fill="none"/>
  <path t="46216,46480,46521,46521,46538,46538,46576,46624,46624,46657,46671,46713,46745,46745,46793,46805,46805,46832,46864,46872,46889,46929,46929,46937,46970,46993,46993,47025,47070,47070,47087,47087,47104,47120,47137,47154,47171,47172,47220,47248,47280,47345,47345,47384,47404,47437,47473,47473,47505,47568" d="M284.5,120.66666C285.7215,121.54533 286.59592,121.89406 287.13599,122.27734C287.97751,122.87458 288.66095,123.26968 289.61465,123.58266C290.48892,123.86958 291.15369,124.46183 292,124.64584C292.87997,124.83717 293.62732,125.07555 294.5,125.5C295.15967,125.82085 295.98032,126.20845 296.70001,126.86533C297.28452,127.39881 298.11823,127.65749 298.89999,128.092C299.7193,128.54736 300.28558,129.10863 300.78534,129.86534C301.18747,130.47426 301.98782,130.95364 302.7215,131.54533C303.36761,132.06642 304.10266,132.27464 304.79999,132.96666C305.50269,133.66399 305.97458,134.1931 306.70001,134.86534C307.28046,135.40321 308.22687,135.4807 309.10001,135.70267C309.96228,135.92188 310.74609,136.46666 311.5,136.83333C312.26361,137.20473 313.01724,137.49925 313.89999,137.67734C314.84375,137.86774 315.5369,138.40355 316.29999,138.75067C317.15427,139.13925 317.90985,139.53224 318.79999,139.67117C319.61896,139.799 320.29999,140.38266 321.10001,140.692L321.89999,141.092" id="svg_9" stroke-width="3" stroke="#000" fill="none"/>
  <path t="48567,48704,48704,48722,48722,48737,48737,48754,48755,48770,48787,48809,48824,48838,48855,48856,48873,48873,48888,48889,48889,48904,48904,48922,49001,49001,49022,49037,49037,49054,49055,49055,49071,49072,49072,49087,49088,49104,49104,49121,49121,49122,49144,49144,49144,49154,49155,49172,49188,49188,49203,49204,49221,49221,49237,49238,49254,49280,49280,49505,49521,49544,49544,49554,49571,49681,49728,49744,49755,49772,49772,49788,49788,49804,49805,49822,49822,49822,49837,49838,49854,49855,49945,49961,49987,49987,50004,50021,50021,50037,50037,50064,50104,50122,50122,50137,50161,50184,50206,50221,50222,50237,50255,50281,50296,50296,50305,50321,50339,50353,50385,50404,50422,50439,50454,50480,50480,50488,50529,50537,50554,50571,50572,50587,50587,50604,50621,50777,50809,50856,50896,50904,50921,50961,50971,50993,51008,51025,51056,51072,51097,51097,51112,51129,51153,51192,51205,51222,51256,51256,51272,51385,51416,51456,51497,51497,51529,51570,51592,51608,51620,51638,51654,51671,51687,51704,51704,51720,51721,51744,51787,51808,51808,51821,51837,51856,51872,51872,51887,51904,51922,51939,51954,51954,51971,51992,51992,52004,52021,52037,52055,52071,52072,52087,52104,52123,52137,52160,52160,52177,52201,52201,52225,52237,52237,52254,52272,52287,52288,52304,52320,52344,52344,52356,52371,52387,52387,52404,52405,52405,52422,52423,52438,52464,52464,52487,52512,52512,52601,52622,52705,52722,52738,52738,52754,52755,52771,52772,52787,52809,52821,52838,52838,52854,52855,52872,52872,52872,52887,53001,53022,53022,53039,53055,53071,53072,53072,53087,53088,53145,53145,53154,53171,53187,53188,53188,53204,53205,53205,53205,53222,53222,53222,53222,53329,53329,53329,53393,53393,53464,53713,53745,53784,53816,53871,53888,53920,53952,53970,53970,53987,54009,54054,54071,54072,54087,54106,54137,54154,54170,54189,54204,54225,54238,54238,54264,54287,54304,54305,54323,54323,54338,54355,54371,54371,54389,54405,54405,54421,54438,54439,54439,54457,54472,54472,54490,54490,54505,54521,54522,54538,54539,54554,54555,54570,54600,54622,54637,54638,54654,54672,54672,54688,54712,54737,54754,54754,54771,54772,54787,54805,54821,54838,54855,54870,54871,54887,54904,54904,54920,54938,54955,54956,54970,54992,55004,55022,55023,55049,55070,55071,55088,55104,55105,55136,55136,55154,55171,55192,55208,55225,55237,55255,55270,55290,55321,55321,55371,55388,55389,55404,55405,55421,55538,55609,55624,55625,55696,55728,55865,55888,55945,55945,55955,56016,56055,56072,56088,56104,56104,56193,56204,56221,56238,56239,56239,56254,56273,56273,56329,56329,56425,56438,56454,56471,56471,56529,56529,56561,56633,56672,56721,56744,56777,56792,56808,56840,56890,56912,56955,56971,56987,57004,57020,57040,57041,57054,57071,57089,57105,57105,57121,57145,57187,57204,57220,57249,57271,57304,57320,57353,57371,57371,57387,57404,57405,57422,57422,57438,57438,57438,57454,57455,57455,57471,57472,57472,57489,57490,57520,57521,57569,57587,57604,57621,57622,57637,57654,57655,57672,57689,57721,57739,57754,57773,57773,57787,57806,57824,57840,57854,57855,57872,57887,57904,57905,57920,57937,57938,57956,57957,57971,57987,57988,58005,58006,58006,58020,58021,58038,58038,58054,58055,58072,58072,58087,58088,58106,58106,58121,58122,58137,58138,58138,58154,58155,58171,58172,58188,58188,58241,58254,58272,58288,58288,58305,58305,58328,58329,58355,58356,58371,58372,58387,58388,58404,58420,58420,58440,58440,58454,58472,58472,58488,58488,58489,58505,58505,58521,58537,58554,58571,58589,58604,58621,58622,58638,58638,58655,58656,58671,58688,58689,58712,58712,58713,58721,58721,58738,58738,58754,58755,58755,58772,58772" d="M323.5,141.66667C324.5,142.83333 325.11523,143.30777 325.82132,143.76666C326.48187,144.19597 327.50146,144.73984 328.08932,145.26666C328.7262,145.83742 329.27139,146.49921 330.20001,146.66217C331.08737,146.81789 331.81036,147.2847 332.70001,147.58133C333.55765,147.86729 334.50229,147.83006 335.13599,148.27733C335.82401,148.76295 336.49402,149.23135 337.5,149.5C338.28488,149.70959 339.11661,149.69539 340.09549,150.01933C340.85815,150.27171 341.80054,150.48111 342.70001,150.95067C343.35541,151.2928 344.15125,151.64653 344.98666,151.952C345.76309,152.23589 346.66037,152.68399 347.45267,152.96217C348.26855,153.24864 349.33511,153.48997 350.03833,153.6185C350.84052,153.76511 351.60693,154.24361 352.12534,154.85201C352.80969,155.65521 353.48926,156.22116 354.5,156.5C355.29327,156.71884 355.96579,156.67584 356.92117,156.88817C357.72357,157.0665 358.52936,157.29607 359.52933,157.86534C360.22189,158.25961 361.02118,158.63388 361.98532,158.668C362.71103,158.69368 363.72348,158.83269 364.47916,159.1875C365.36569,159.60376 365.95871,160.18842 366.70001,160.86534C367.28436,161.39894 368.15033,161.64899 368.98401,161.95067C369.6886,162.20564 370.6199,162.53398 371.60001,162.66684C372.50699,162.78979 373.03903,163.42194 374,163.64583C374.8667,163.84775 375.3739,164.39226 376.11066,164.65601C376.94803,164.95576 377.93747,164.74789 378.70132,164.38266C379.43118,164.03368 380.34433,163.73962 381.10132,163.58267C382.11514,163.37247 382.70212,163.06027 383.70001,162.56667C384.50171,162.1701 385.1066,161.87956 386.09549,161.36667C386.84796,160.97639 387.74545,160.57452 388.21335,159.86667C388.71436,159.10872 389.30624,158.60591 389.5,157.66667C389.66257,156.87872 390.06488,156.20671 390.69867,155.46533C391.25543,154.81407 391.35101,153.99313 391.58401,153.15067C391.8277,152.26964 392.45728,151.46968 392.5,150.5665C392.53708,149.7822 392.20032,148.72266 392.72134,147.9095C393.19156,147.17564 393.45221,146.5654 393.5,145.66667C393.54272,144.86327 394.11298,144.0847 394.47467,143.26666C394.8215,142.48219 395.41498,141.67928 395.49866,140.86667C395.59085,139.97139 395.35403,138.94392 395.936,138.27733C396.54556,137.57915 397.25958,137.35301 397.50134,136.468C397.71927,135.67023 398.35477,135.21855 398.50449,134.36667C398.66763,133.43848 398.94489,132.70271 399.58401,131.952C400.15128,131.28568 400.94495,130.92775 401.44733,130.30949C402.02078,129.60379 402.34369,128.80701 402.7955,128.01401C403.17999,127.3392 403.37292,126.37429 403.92532,125.692C404.45926,125.03252 405.2305,124.48615 406.10001,124.70267C406.96335,124.91765 407.73138,125.34921 408.41599,125.95067C409.01166,126.474 409.85971,126.58189 410.47467,127.092C411.07394,127.58909 411.7001,128.14183 412.33334,128.83333C412.88101,129.43138 413.72858,129.77405 414.14282,130.37117C414.69012,131.16011 414.58948,132.08403 415.07468,132.692C415.57306,133.3165 415.69379,134.15402 416.216,134.75067C416.88837,135.51884 417.09885,136.25504 417.47467,137.06667C417.88385,137.9503 418.75937,138.14331 419.33334,138.83333C419.8768,139.48668 419.5,140.46666 419.5,141.36667C419.5,142.26666 419.50226,143.16667 419.5,144.06667C419.49774,144.96219 418.92264,145.60786 418.47467,146.27733C417.98254,147.01276 417.58127,147.86624 417.5,148.66667C417.41016,149.55156 417.09763,150.30006 416.784,151.18266C416.48816,152.01518 416.63657,153.0233 416.216,153.86667C415.88608,154.52831 415.46848,155.37836 415.07468,156.06667C414.60861,156.88126 414.21503,157.72623 413.85266,158.36667C413.38824,159.18745 412.82251,159.77177 412.41599,160.468C411.93359,161.29414 411.29999,161.86667 410.70001,162.46666C410,163.16667 409.39767,163.76436 408.79999,164.36667C408.10797,165.06401 407.81854,165.89902 407.216,166.58267C406.68927,167.18031 406.24094,167.89029 405.69867,168.46666C405.03101,169.17633 403.94833,169.36505 403.55716,170.02383C403.07477,170.83624 403.30914,171.79268 402.7955,172.36667C402.13748,173.10201 401.40079,173.76747 400.89999,174.26666C400.20114,174.96329 399.50955,175.55591 398.70001,175.66533C397.80621,175.78613 397.01968,176.20845 396.29999,176.86534C395.71548,177.39882 394.91122,177.76166 394.39017,178.37117C393.8429,179.01132 393.00681,179.49445 392.02084,179.64583C391.20898,179.77048 390.41202,180.11855 389.97916,180.6875C389.35074,181.51352 388.69733,182.10161 387.89868,182.38C386.93427,182.7162 386.11398,182.61209 385.25717,183.01933C384.44714,183.40433 383.64978,183.67894 383,184.1875C382.23193,184.78865 381.62231,185.39888 381.02084,186.16667C380.5127,186.81532 380.13736,187.55238 379.1955,187.67117C378.32513,187.78094 377.70883,188.18951 376.66666,188.5C375.89304,188.73047 375.01599,188.66667 374.15268,188.66667C373.25717,188.66667 372.29999,188.66667 371.39999,188.66667C370.5,188.66667 369.74283,188.66667 368.83835,188.66667C368.03833,188.66667 367.07883,188.66667 366.28534,188.66667C365.26935,188.66667 364.31433,188.66667 363.39999,188.66667C362.5,188.66667 361.70001,188.66667 360.79999,188.66667C359.95834,188.66667 358.95715,188.66667 358.23868,188.66667C357.44818,188.66667 356.42166,188.66667 355.54166,188.66667C354.52151,188.66667 353.70132,188.66667 352.79999,188.66667C351.95834,188.66667 350.95685,188.66667 350.21735,188.66667C349.33383,188.66667 348.33334,188.66667 347.616,188.66667C346.87466,188.66667 345.75266,188.66667 344.66666,188.66667C343.98532,188.66667 343.02084,188.66667 342.40451,188.66667C341.20035,188.66667 340.32132,188.66667 339.51434,188.66667C338.47067,188.66667 337.66931,188.8593 336.79999,188.6095C335.94836,188.36478 335.50226,188.37566 335.5,189.26666C335.49774,190.16667 335.5,191.06667 335.5,191.96666C335.5,192.86667 335.5,193.76666 335.5,194.66667C335.5,195.46666 335.5,196.36667 335.5,197.26666C335.5,198.1875 335.71631,199.19501 335.44284,199.95683C335.14203,200.79483 334.50226,201.37115 334.5,202.26666C334.49774,203.16667 334.5,204.06667 334.5,204.96666C334.5,205.86667 334.5,206.76666 334.5,207.66667C334.5,208.46666 334.40082,209.37523 334.52084,210.1875C334.66684,211.1756 335.0705,211.86719 335.59982,212.64517C336.10574,213.38879 336.34692,214.18114 336.51068,215.06667C336.66449,215.89841 337.30099,216.467 338,217.16667C338.69968,217.867 339.23901,218.33026 339.89999,219.07733C340.53955,219.80017 340.86905,220.51088 341.29999,221.18266C341.86087,222.05704 342.5,222.66667 343.10001,223.26666C343.79999,223.96664 344.25684,224.51401 345.02084,225.16667C345.78146,225.81645 346.53104,226.11824 347.33334,226.66667C348.0076,227.12758 348.52142,227.86861 349.20001,228.30949C349.99234,228.82428 350.54333,229.51607 351.26166,229.66217C352.13486,229.83977 353.08804,229.61279 353.86401,230.10266C354.70209,230.63174 354.90884,231.51459 355.52533,232.23067C356.05032,232.84047 357.04715,232.60564 357.98401,232.952C358.70007,233.21672 359.61011,233.64792 360.13834,234.36667C360.64703,235.05885 361.1333,235.48558 362,235.6875C362.96097,235.91139 363.65897,236.40253 364.5,236.83333C365.16434,237.17361 365.69739,238.13243 366.5,238.5C367.24271,238.84013 368.2619,238.63055 369,239.1875C369.66559,239.68974 370.31534,240.34439 371.10001,240.692C371.91776,241.05428 372.75616,241.44666 373.5,241.83333C374.28326,242.24049 374.78925,242.97757 375.5,243.66667C376.09122,244.23988 376.93182,244.57349 377.82132,244.88817C378.5206,245.13556 379.3063,245.70546 379.97916,246.14583C380.76657,246.66118 381.39468,247.14226 381.85266,247.96666C382.26501,248.70897 382.94974,249.21194 383.41467,249.952C383.90274,250.72885 383.94745,251.41748 384.47467,252.10266C384.97763,252.75632 385.34839,253.42386 386,254.1875C386.64932,254.94843 387.04379,255.64207 387.33334,256.5C387.61783,257.3429 388.11813,257.97702 388.41467,258.86667C388.70056,259.7243 388.67355,260.70493 388.41467,261.46667C388.11292,262.35458 387.51868,263.06616 387.5,263.96667C387.48132,264.86649 387.38217,265.88062 386.7955,266.30951C386.03604,266.86469 385.28561,267.21567 384.66666,267.83334C384.04803,268.45068 383.25153,268.51315 382.5,268.83334C381.71881,269.16617 381.04065,269.79083 380.44733,270.314C379.89624,270.7999 378.73199,270.95065 378,271.16666C377.26801,271.38266 376.31067,271.62585 375.33334,271.66666C374.50046,271.70145 373.53943,271.92099 372.91068,272.24133C372.0228,272.6937 371.10001,272.66666 370.1955,272.66666C369.33334,272.66666 368.5,272.66666 367.52151,272.66666C366.70132,272.66666 365.79999,272.66666 364.89999,272.66666C364,272.66666 363.10001,272.66666 362.20001,272.66666C361.29999,272.66666 360.27509,272.92294 359.62134,272.44534C358.92227,271.93463 358.2103,271.81546 357.55267,271.314C356.87582,270.79788 356.51062,270.056 356.5,269.16666C356.48926,268.26666 356.04703,267.55948 355.66666,266.66666C355.34647,265.91513 355.50592,264.96664 355.5,264.06668C355.49466,263.25595 355.27176,262.34814 355,261.66666C354.61142,260.69223 354.21478,259.98825 353.58401,259.38266C353.01114,258.83264 352.4462,258.22006 351.92532,257.64133C351.35123,257.00345 350.56821,257.05963 349.78534,256.58133C348.98199,256.09052 348.37509,255.47458 347.79999,254.96217C347.1712,254.40193 346.40665,253.72881 345.61465,253.668C344.65613,253.59442 344.03824,253.68028 342.81467,253.66533C341.979,253.65512 341.38702,253.66248 340.20016,253.44533C339.30249,253.28108 338.74619,253.04544 337.66666,252.83333C336.74298,252.65184 336.0885,252.67487 335.10001,252.38266C334.28375,252.14136 333.28409,251.86433 332.54166,251.66667C331.57886,251.41034 331.05179,250.81247 330.20001,250.66217C329.27155,250.49834 328.69968,249.86568 328.10001,249.26666C327.3996,248.56705 326.84338,247.91949 326.20001,247.37117C325.44666,246.72908 324.75043,246.35168 324.216,245.75067C323.64151,245.10461 323.24094,244.44304 322.69867,243.86667C322.03101,243.157 321.05127,242.88139 320.52533,242.23067C319.93253,241.49722 319.61075,240.67621 319.50134,239.86667C319.38055,238.97289 318.96948,238.17586 318.40018,237.56667C317.84766,236.97542 317.53445,236.00998 317.21466,235.18266C316.93939,234.47057 316.42856,233.66325 315.79999,232.97116C315.22949,232.34302 314.62143,231.56631 314.44733,230.85234C314.21478,229.89864 314.01907,229.1501 313.69867,228.43466C313.25803,227.45073 312.72559,226.79831 312.52533,225.83067C312.36865,225.07361 312.1593,224.05943 311.88934,223.46666C311.42801,222.45369 310.95352,221.71239 310.66666,220.83333C310.41382,220.05861 310.1983,219.18985 309.92532,218.492C309.56009,217.55833 309.43875,216.69125 309.21466,215.89734C309.00073,215.1394 308.70691,214.34602 308.30133,213.35201C307.94324,212.47435 307.60599,211.6738 307.52084,210.6875C307.44736,209.83624 307.86514,208.87379 307.46399,208.10266C307.06894,207.34325 306.50067,206.78 306.5,205.83067C306.49945,205.06534 306.55832,204.06004 306.44284,203.26666C306.29532,202.25325 305.89215,201.72194 305.62149,200.688C305.42325,199.93073 305.50214,199.00951 305.5,198.06534C305.49774,197.07117 305.55206,196.28029 305.14734,195.42383C304.76416,194.61296 304.54178,193.90836 304.49551,193.01401C304.45071,192.14804 303.92636,191.34962 303.62149,190.34517C303.41629,189.66908 303.53186,188.66562 303.48932,187.86667C303.44659,187.06433 303.12543,186.07944 302.85266,185.32384C302.53104,184.43283 302.5,183.46666 302.5,182.56667C302.5,181.66667 302.0509,181.12045 301.58533,180.38C301.11472,179.63153 301.53589,178.666 301.49985,177.688C301.47125,176.91243 301.11847,176.02556 300.85266,175.31934C300.52051,174.43677 300.53445,173.45869 300.44284,172.79517C300.27841,171.60411 300.08221,170.98547 299.88934,170.34267C299.53336,169.15616 299.01398,168.42581 298.62115,167.56633C298.3092,166.88382 297.93201,165.89734 297.64932,165.40533L297.20532,164.61484L296.74301,163.58833L296.54166,162.70833" id="svg_10" stroke-width="3" stroke="#000" fill="none"/>
  <path t="61326,61410,61410,61439,61480,61529,61544,61618,61618,61672,61722,61778,61801,61822,61822,61856,61889,61904,61928,61985,61985,62004,62128,62152,62201,62328,62360,62376,62537,62601,62641,62689,62689,62809,62889,62905,62921,62938,62992,63004,63021,63021,63049,63056,63088,63105,63121,63138,63154,63176,63176,63192,63205,63225,63240,63274,63321,63338,63354,63385,63417,63457,63473,63513,63552,63601,63601" d="M409.5,126.66666C410.5,126.66666 411.29999,126.66666 412.20001,126.66666C413.10001,126.66666 414.06958,126.55523 414.79999,127.02383C415.59991,127.53703 415.9805,128.4416 416.85718,128.66667C417.77039,128.90112 418.70001,128.66667 419.60001,128.66667C420.5,128.66667 421.30017,128.68466 422.20001,128.66667C423.10056,128.64867 423.81793,128.07751 424.60001,127.78817C425.45175,127.47305 426.27744,127.54238 427.10001,127.092C427.8804,126.66473 428.79999,126.66666 429.70001,126.66666C430.60001,126.66666 431.63791,126.98846 432.33334,126.5C433.04852,125.99768 433.70001,125.66666 434.60001,125.66666C435.5,125.66666 436.30017,125.64793 437.20001,125.66666C438.06454,125.68467 438.49774,126.37116 438.5,127.26667C438.50226,128.16667 438.61658,129.07483 438.49551,129.96666C438.384,130.78804 437.72543,131.3044 437.11066,132.06667C436.51007,132.81133 436.10831,133.56709 435.52533,134.092C434.93616,134.62248 434.06381,134.93234 433.62134,135.76666C433.17859,136.60149 432.9346,137.31465 432.20001,137.96217C431.53778,138.5459 430.82159,138.9519 430.216,139.58267C429.66602,140.15555 428.92526,140.37451 428.11066,140.67734C427.37717,140.95 426.8894,141.66133 426,141.66667C425.10004,141.67207 424.20001,141.66667 423.29999,141.66667L422.39999,141.66667L421.5,141.66667L420.70001,141.66667" id="svg_11" stroke-width="3" stroke="#000" fill="none"/>
  <path t="67058,67344,67344,67480,67504,67529,67529,67634,67673,67761,67784,67806,67825,67837,67855,68113,68121,68121,68138,68157,68171,68171,68217,68224,68225,68240,68254,68271,68288,68305,68336,68354,68355,68371,68404,68422,68449,68472,68521,68617,68640,68655,68655,68655" d="M363.5,273.66666C362.33334,274.66666 361.75522,275.20438 361.53601,276.06668C361.31406,276.93982 361.11392,277.80502 360.784,278.46667C360.36343,279.31003 360.5,280.26666 360.5,281.16666C360.5,282.06668 360.42914,283.01511 360.92532,283.64133C361.4523,284.3064 361.88785,284.97787 362.66666,285.5C363.37256,285.97324 364.33698,285.87112 365.20001,285.6095C366.08487,285.34125 366.70001,284.46667 367.20001,283.96667C367.89999,283.26666 368.67633,282.62808 369.064,282.06668C369.62161,281.25912 369.93024,280.50656 370.58401,279.95065C371.19818,279.42841 371.91245,278.95236 372.48532,278.27734C373.07474,277.58282 373.8707,277.5127 374.58267,276.95065C375.32272,276.36646 375.83679,275.81543 376.47467,275.24133C377.05341,274.72046 377.49393,274.03928 377.92532,273.26666C378.38339,272.44626 378.66666,271.5 378.92532,270.84134L379.216,270.15067" id="svg_12" stroke-width="3" stroke="#000" fill="none"/>
  <path t="79832,80161,80161,80184,80208,80337,80355,80401,80424,80473,80489,80505,80522,80544,80560,80609,80665,80705,80723,80753,80771,80792,80832,80889,80889,80905,80937,80985,80985,81016,81038,81055,81073,81096,81096,81153,81209,81255,81288,81320,81320,81352,81373,81388,81405,81425,81439,81529,81585,81585,81633,81689,81737,81761,81771,81800,81833,81864,81864,81921,81939,82009,82065,82065,82129,82145,82145,82192" d="M157.5,120.66666C157.5,121.66666 157.5,122.46667 157.5,123.36667C157.5,124.26667 157.19009,125.22638 157.51067,126.056C157.81705,126.84892 158.68561,127.15541 159.33333,127.83334C159.93739,128.46556 160.43643,129.02879 161,129.66667C161.51552,130.25015 162.04837,130.8817 162.66667,131.5C163.28497,132.1183 163.90855,132.66029 164.5,133.16667C165.09444,133.67561 165.97563,133.78526 166.55267,134.314C167.24397,134.94742 167.70761,135.64079 168.07466,136.26666C168.52715,137.03819 168.76453,138.09804 169.5,138.5C170.23566,138.90205 171.15392,139.1492 171.88933,139.64133C172.55881,140.08932 173.14731,140.63315 173.98267,140.668C174.79138,140.70174 175.54001,141.32753 176.2045,141.71933C176.99066,142.18288 177.8526,142.4976 178.7,142.95067C179.35201,143.29927 180.29774,143.30142 181.064,143.70267C181.82234,144.09978 182.30176,144.63879 183.2,144.66667C184.14412,144.69597 184.6543,145.58293 185.5,145.66667C186.29611,145.7455 187.2,145.66667 188.10001,145.66667C189,145.66667 189.89999,145.66667 190.8,145.66667C191.7,145.66667 192.60001,145.66667 193.5,145.66667C194.3,145.66667 195.22769,145.85509 196.10001,145.63066C196.96622,145.40781 197.60081,144.56747 198.10001,144.06667C198.79663,143.3678 199.33333,142.66667 199.584,141.86667L200.07466,141.06667" id="svg_14" stroke-width="3" stroke="#000" fill="none"/>
  <path t="83817,84161,84177,84216,84272,84272,84296,84320,84360,84400,84424,84497,84497,84536,84601,84621,84638,84697,84738,84776,84808,84841,84889,84920,84945,84993,85057,85129,85145,85233,85233,85297,85721,85809,86257,86257,86272,86288,86305,86337,86355,86409,86440,86465,86537,86568,86593,86616,86665,86729,86729,86752,86772,86788,86804,86822,86822,86838,86855,86896,86896,86905,86952,86976,86977,86992,87033,87073,87105,87122,87140,87265,87305,87323,87344,87344,87393" d="M178.5,118.66666C176.8,118.66666 176.11284,118.98116 175.33333,119.5C174.62587,119.97087 173.7,119.66666 172.8,119.66666C171.89999,119.66666 170.987,119.80875 170.10001,119.656C169.26686,119.51252 168.5126,118.7517 167.7,118.668C166.80473,118.57578 165.82805,118.99479 165.02083,118.64584C164.30685,118.33719 163.79552,117.66891 162.89999,117.66666C162,117.66441 161.15645,117.59972 160.47467,117.092C159.83386,116.61479 158.89999,116.66666 158,116.66666C157.10001,116.66666 156.2,116.66674 155.3,116.66666C154.39999,116.66658 153.52783,116.4557 152.89999,116.092C152.13014,115.64603 151.09209,115.89239 150.30133,115.38133C149.4986,114.86253 149.61162,113.99673 150.30133,113.58266C151.09596,113.1056 151.35703,111.97146 152.02083,111.6875C152.90277,111.31023 153.4366,110.89188 154.2045,110.67117C155.06517,110.42379 156,110.66666 156.89999,110.66666C157.8,110.66666 158.7,110.66666 159.60001,110.66666C160.5,110.66666 161.30019,110.68465 162.2,110.66666C163.10054,110.64867 163.84573,110.13925 164.7,109.75066C165.4631,109.40354 166.15793,108.91617 166.8,108.37117C167.55469,107.73059 168.50087,107.70386 169.3,107.66666C170.21764,107.62395 170.6543,106.7504 171.5,106.66666C172.29611,106.58783 173.2,106.6095 174,106.16666C174.8,105.72383 175.71259,105.51687 176.59984,105.66683C177.45186,105.81084 177.99054,106.47712 178.47467,107.10267C179.05186,107.84846 179.33333,108.66666 179.49867,109.46667L179.5,110.36667" id="svg_15" stroke-width="3" stroke="#000" fill="none"/>
  <path t="89754,89889,89905,89928,89938,89993,90005,90022,90073,90120,90257,90305,90321,90338,90376,90393,90432,90472,90489,90505,90524,90561,90601,90601,90633,90648,90665,90681" d="M152.5,116.66666C150.8,116.72383 149.97639,117.12708 149.2045,117.614C148.50206,118.05711 147.81638,118.33765 147.02083,118.6875C146.30881,119.00063 145.65869,119.54528 145.02083,120.1875C144.38188,120.83081 144.33447,121.96947 144.85266,122.614C145.34419,123.22537 146.04311,123.47567 147,123.6875C147.84563,123.87469 148.64911,124.25249 149.33333,124.83334C149.99959,125.39894 150.7,125.66666 151.60001,125.66666C152.5,125.66666 153.3,125.66666 154.2,125.66666L155.10001,125.66666L156,125.66666L156.89999,125.66666" id="svg_16" stroke-width="3" stroke="#000" fill="none"/>
  <path t="94178,94522,94522,94849,94889,94889,94961,94992,95273,95273,95296,95305,95322,95338,95355,95372,95372,95388,95897,95920,95920,95938,95955,95972,95973,95988,95988,95988,96017,96017,96072,96281,96281,96289,96312,96322,96345,96376,96376,96388,96409,96455,96521,96560,96592,96681,96712,96712,96729,96785,96817,96841,96856,96872,96872,96912,96961,96984,97009,97009,97022,97056,97105,97105,97144,97233,97313,97313,97361,97401" d="M236.5,113.66666C236.5,112.66666 236.49019,111.81161 235.88933,111.06667C235.36133,110.41205 234.76804,109.78865 234,109.1875C233.35025,108.67893 232.2435,108.57548 231.78534,107.86533C231.32747,107.15563 231.20238,106.11159 231.51067,105.27734C231.78648,104.53094 232.96019,104.39333 233.33333,103.5C233.653,102.73466 233.94113,101.98845 234.44733,101.3095C234.99011,100.58148 235.38832,99.94151 235.97917,99.16666C236.5426,98.42778 236.9519,97.57867 237.52083,97.14584C238.34686,96.5174 238.90924,95.85541 239.13834,95.26217C239.51019,94.29926 239.39082,93.45538 239.784,92.552C240.1998,91.59665 240.55438,90.96762 241,90.16666C241.44455,89.36761 241.41788,88.4629 241.50017,87.56667C241.58385,86.65523 241.89911,85.95742 242.5,85.1875C242.98958,84.5602 244,84.66666 244.89999,84.66666C245.8,84.66666 246.70377,84.58454 247.60001,84.66683C248.51144,84.75052 249.19923,85.07884 249.97917,85.66666C250.63344,86.15977 251.11813,86.977 251.41467,87.86667C251.70055,88.72432 251.35396,89.69437 251.55716,90.36667C251.82172,91.24194 252.36449,91.97521 252.50133,92.86667C252.64191,93.78244 253.11313,94.38181 253.52533,95.26667C253.90504,96.08181 254.52211,96.86756 255.2,97.3095C255.93391,97.78797 256.79999,98.01933 257.60001,98.54533L258.29999,98.75066L259.10001,99.24133L259.89999,99.63067" id="svg_17" stroke-width="3" stroke="#000" fill="none"/>
  <polyline timestamps="102960,103953,104000" startTime="1502088693337" id="svg_18" points="243.5,100.6666669845581 243.29999999999998,100.6666669845581 242.4,100.6666669845581 " stroke-linecap="round" stroke-width="3" stroke="#000" fill="none"/>
  <path t="105495,105679,105776,105791,105804,105820,105820,105840,105855,105855,105872,105888,105960,105976,105976,105989,106004,106020,106038,106039,106054,106054,106071,106087,106087,106104,106104,106120,106120,106139,106156,106171,106192,106192,106208,106254,106272,106304,106304,106327,106367,106391,106439,106456,106471,106488,106488,106504,106504,106504,106588,106608,106621,106639,106655,106672,106688,106689,106704,106704,106728,106743,106757,106775,106792,106792,106840,106855,106871,106871,106888,106888,106889,106905,106905,107016,107016,107016,107055,107112,107160,107160,107200,107248,107264,107295,107337,107520,107559,107589,107600" d="M239.5,85.66666C237.8,85.6095 236.8252,85.23283 236.55716,84.36667C236.29056,83.50517 236.5,82.5665 236.5,81.78133C236.5,80.84133 236.49136,79.83329 236.5,79.07733C236.51042,78.16649 236.96594,77.43058 237.37866,76.56667C237.786,75.714 238.08653,75.07217 238.5,74.16666C238.86314,73.37138 239.01776,72.45338 239.66667,71.83334C240.21788,71.30665 241.30705,71.19337 242.01601,70.95067C242.97968,70.62076 243.98943,70.61827 244.71066,70.70267C245.71022,70.81963 246.45189,71.24749 247.33333,71.5C248.1767,71.7416 249.1192,71.50145 250,71.6875C250.8474,71.86649 251.49045,72.55592 252.3,72.66534C253.19377,72.78614 253.96306,73.24033 254.8,73.614C255.57216,73.95875 256.27182,74.49904 257.20001,74.66217C258.05188,74.81189 258.53976,75.54504 259.30133,75.66534C260.1907,75.80582 260.97717,75.05547 261.8215,74.788C262.49814,74.57365 263.52042,74.55369 264.28934,74.23067C265.03812,73.91612 265.7652,73.0698 266.70001,72.752C267.55576,72.46108 268.26697,72.97469 268.85266,73.614C269.38699,74.19726 269.88095,74.95373 270.30133,75.552C270.82605,76.29878 271.28128,76.98025 271.46399,78.03067C271.62451,78.95351 271.5,79.86667 271.5,80.76667C271.5,81.66666 271.48859,82.46674 271.5,83.36667C271.51044,84.1877 271.77213,85.15808 272.11066,85.87733C272.48547,86.67366 272.89944,87.46693 273.29999,88.26667C273.70078,89.06693 274.09567,89.89491 274.66666,90.66666C275.12177,91.2818 275.61826,91.87711 276.61334,92.49734C277.34262,92.95189 277.53543,93.80466 278.2045,94.3095C278.95547,94.87614 279.49466,95.27729 279.5,96.26667C279.50485,97.16665 279.5,98.06667 279.5,98.96667L279.5,99.86667L279.50015,100.7665L279.7215,101.54533" id="svg_19" stroke-width="3" stroke="#000" fill="none"/>
  <path t="110350,110423,110437,110455,110471,110489,110489,110489,110489,110504,110504,110504,110521,110521,110521,110538,110538,110539,110539,110539,110555,110555,110555,110555,110555,110555,110555,110572,110572,110572,110572,110572,110572,110588,110588,110588,110588,110588,110588,110588,110606,110606,110606,110606,110606,110606,110606,110622,110622,110622,110622,110622,110623,110639,110639,110639,110639,110655,110655,110671,110671,110688,110688,110688,110688,110704,110705,110721,110721,110721,110738,110739,110739,110755,110755,110772,110772,110789,110790,110804,110804,110823,110823,110824,110839,110839,110856,110856,110856,110871,110872,110895,110905,110927,110943,110954,110972,110972,110988,110988,110988,111004,111004,111004,111005,111005,111021,111021,111022,111022,111022,111022,111022,111038,111039,111039,111039,111039,111039,111039,111039,111039,111054,111055,111055,111055,111055,111055,111055,111071,111071,111071,111071,111071,111071,111089,111089,111089,111089,111090,111111,111111,111121,111139,111160,111232,111232,111256,111272,111288,111305,111343,111368,111432,111471,111503,111522,111538,111556,111556,111571,111589" d="M8.5,131.66667C10.3,131.66667 11.20002,131.6609 12.1,131.66667C12.93205,131.67201 14.00064,131.83037 14.55333,131.95067C15.52197,132.1615 16.19159,132.35991 17.45717,132.54517C18.23504,132.65903 18.94816,132.67053 19.92167,132.6665C20.74673,132.66309 21.66527,132.63866 22.66667,132.5C23.39122,132.39967 24.16298,132.22906 24.98267,131.98399C25.87868,131.71609 26.83782,131.34384 27.86933,130.89734C28.41225,130.66234 28.96224,130.40729 30.08533,129.88133C30.65229,129.61581 31.21393,129.34192 32.33333,128.83333C33.41144,128.34351 33.94376,128.12146 34.97917,127.66666C35.4898,127.44238 36.00559,127.23488 37.5,126.5C38.00367,126.25232 39.00447,125.71394 39.51067,125.44133C40.0208,125.1666 41.05262,124.61021 41.58533,124.35067C43.20797,123.56013 43.78253,123.3483 44.35266,123.12383C44.92389,122.89894 46.07441,122.47664 46.64734,122.27116C47.21575,122.06731 48.87868,121.46777 49.41333,121.268C50.45401,120.87915 50.95684,120.68347 51.93833,120.32384C52.41262,120.15005 53.77495,119.67813 54.62933,119.42834C55.41398,119.19894 56.11472,118.98043 57.23567,118.78817C58.09845,118.64019 58.99002,118.63619 59.78267,118.70267C60.83772,118.79115 61.47203,118.93002 62.47917,119.1875C63.14134,119.3568 64.24313,119.75339 64.97916,120.16666C65.84218,120.65125 66.49951,120.99409 67.28533,121.23067C68.32145,121.5426 69.04944,121.56993 69.8955,121.71933C70.90931,121.89835 71.64399,122.30336 72.616,122.58266C73.37159,122.79978 74.16188,123.01386 74.9045,123.37117C75.90655,123.8533 76.5,124.16666 77.5,124.66666C78.1,124.96667 78.9,125.36667 79.9,125.86667C80.5,126.16666 81.49308,126.68115 82.1,126.96217C82.89143,127.32861 83.89619,127.61377 84.664,127.656C85.61198,127.70814 86.23789,128.27687 86.936,128.63066C87.70736,129.02156 88.7,128.66667 89.60033,128.66667C90.47066,128.66667 91.27453,128.63412 92.0625,128.70833C92.99283,128.79594 94.02338,129.10542 94.77067,129.37199C95.58486,129.66243 96.00921,129.84955 96.95734,130.09866C97.991,130.37025 99.15668,130.50375 99.776,130.55234C100.41808,130.60271 101.08313,130.63522 102.47066,130.65767C103.18926,130.6693 104.66666,130.66667 105.42117,130.66667C106.18266,130.66667 106.94817,130.66667 107.71467,130.66667C108.47916,130.66667 109.23867,130.66667 109.99017,130.66667C110.73067,130.66667 112.16666,130.66667 113.52934,130.66667C114.18567,130.66667 114.828,130.66667 115.45834,130.66667C116.691,130.66667 117.29733,130.66667 118.5,130.66667C119.69733,130.66667 120.291,130.66667 120.87867,130.66667C122.028,130.66667 122.58566,130.66667 124.16666,130.66667C124.6565,130.66667 125.57217,130.66667 126.39584,130.66667C127.44133,130.66667 128.444,130.66667 129.29601,130.66667C130.2,130.66667 130.94836,130.90869 131.584,131.38266C132.35281,131.95593 133.3,131.66667 134.2,131.66667C135.10001,131.66667 135.91737,131.75615 136.52533,132.24133C137.14983,132.73972 138.10001,132.66667 139,132.66667C139.89999,132.66667 140.8,132.66667 141.7,132.66667C142.60001,132.66667 143.5,132.66667 144.3,132.66667L145.2,132.66667L146.10001,132.66667" id="svg_20" stroke-width="3" stroke="#000" fill="none"/>
  <path t="113585,113638,113656,113656,113672,113688,113705,113727,113727,113738,113755,113755,113772,113789,113789,113805,113822,113822,113838,113855,113855,113872,113872,113889,113889,113905,113905,113905,113922,113922,113922,113939,113939,113939,113956,113956,113956,113972,113972,113972,113989,113989,114048,114089,114089,114106,114106,114122,114122,114139,114139,114156,114156,114156,114172,114172,114172,114189,114189,114189,114205,114205,114223,114264" d="M332.5,135.66667C334.32535,135.66667 335.33334,135.66667 336.1955,135.66667C337.10001,135.66667 338,135.66667 338.91068,135.66667C339.82132,135.66667 340.5,135.66667 341.61465,135.66667C342.5,135.66667 343.29999,135.66483 344.13599,135.66667C345.15268,135.66893 345.88748,135.62231 346.74283,136.01933C347.65506,136.44275 348.31555,136.72676 349.13599,137.27733C349.83514,137.74651 350.47018,138.22856 351.47867,138.54533C352.2355,138.78307 353.1618,139.01399 353.90451,139.37117C354.70532,139.75629 355.52795,140.17484 356.18533,140.552C357.19528,141.13142 357.72223,141.49695 358.54733,142.01401C359.33041,142.50471 360.03708,142.93036 360.72534,143.256C361.65369,143.69522 362.45438,143.96202 363.27466,144.26666C364.3356,144.66068 365.03119,144.99216 365.68933,145.23067C366.68433,145.59125 367.479,145.65625 368.47849,145.66667C369.49994,145.67732 370.25717,145.66667 371.15717,145.66667C371.90451,145.66667 372.89999,145.66667 373.70001,145.66667C374.70001,145.66667 375.50009,145.67982 376.5,145.66667C377.31088,145.65601 378.207,145.54666 379.18399,145.09866C379.73911,144.84412 380.51315,144.28662 381.57849,143.9095C382.24698,143.67287 383.09866,143.584 384.09549,143.314L384.84283,143.01933L385.74283,142.72383L386.70001,142.66667" id="svg_21" stroke-width="3" stroke="#000" fill="none"/>
  <path t="115161,115205,115222,115223,115238,115238,115238,115254,115254,115272,115273,115288,115304,115321,115338,115339,115339,115355,115356,115356,115371,115371,115371,115371,115388,115389,115389,115389,115472,115472,115472,115472,115488,115488,115504,115504,115504,115504,115521,115521,115522,115522,115522,115538,115538,115538,115539,115559,115559,115559,115576,115576,115615,115663,115680,115688,115705,115705,115721,115721,115738,115756,115756,115756,115772,115773,115773,115773,115788,115788,115788,115788,115805,115805,115805,115821,115821,115821,115838,115855,115856,115871,115872,115872,115889,115889,115889,115904,115904,115921,115943,115943" d="M416.5,153.66667C418.32535,153.66667 419.33908,153.59897 420.16135,153.70267C421.0549,153.81535 421.76483,154.06628 422.49466,154.37117C423.5538,154.81363 424.21832,155.42207 425.15268,155.6095C425.83569,155.74651 426.86401,155.66667 427.79999,155.66667C428.70132,155.66667 429.66751,155.69147 430.34668,155.65601C431.18884,155.61203 432.19394,155.40671 433.02084,155.125C433.61127,154.92386 434.80212,154.34886 435.40451,154.01401C436.02286,153.67027 436.63116,153.25977 438.02133,152.68817C438.74054,152.39246 439.49908,152.18436 440.24734,151.97116C441.33206,151.66211 442.01132,151.46581 442.9375,151.1875C443.72745,150.95012 444.70984,150.75432 445.36249,150.55684C446.28287,150.27835 447.20935,149.79741 447.93201,149.44533C448.31421,149.25911 449.49921,148.66505 450.29868,148.26801C451.08853,147.87573 451.85956,147.49297 452.61465,147.15199C453.67242,146.67433 454.34509,146.42493 454.97916,146.16667C455.90204,145.79079 456.80377,145.35284 457.39099,145.01849C458.23404,144.53847 459.13123,143.87479 459.95834,143.70833C460.88239,143.52237 461.79999,143.66667 462.70001,143.66667C463.60001,143.66667 464.5,143.66667 465.25717,143.66667C466.15268,143.66667 467.01599,143.66667 467.88535,143.66667C468.83334,143.66667 469.772,143.66667 470.32132,143.66667C471.5,143.66667 472.40451,143.66667 473.02084,143.66667C473.98532,143.66667 475.02133,143.66667 475.75266,143.66667C476.5,143.66667 477.616,143.66667 478.67834,143.66667C479.33835,143.66667 480.25333,143.66667 481.33334,143.66667C482.25333,143.66667 483.01334,143.66667 483.97916,143.66667C484.81351,143.66667 485.556,143.66667 486.55334,143.66667C487.52084,143.66667 488.19916,143.66667 489.457,143.66667C490.228,143.66667 490.89099,143.66667 491.89868,143.66667C492.84283,143.66667 493.74734,143.66667 494.66666,143.66667L495.5,143.66667" id="svg_22" stroke-width="3" stroke="#000" fill="none"/>
  <path t="117632,117705,117723,117723,117738,117738,117756,117756,117783,117807,117847,117871,117895,117896,117896,117905,117905,117921,117939,117956,117956,117956,117973,117973,117988,117989,117989,118005,118005,118005,118021,118021,118022,118039,118039,118039,118064,118080,118104,118121,118121,118138,118156,118156,118171,118187,118188,118207,118207,118221,118221,118247,118247,118456,118471,118488,118505,118506,118521,118521,118522,118522,118538,118540,118540,118555,118555,118571,118572,118572,118589,118589,118589,118589,118605,118605,118605,118623,118624,118624,118624,118624,118638,118639,118639,118656,118657,118657,118671,118672,118688,118689,118706,118722,118738,118738,118739,118755,118756,118756,118771,118772,118788,118788,118805,118806,118806,118822,118823,118823,118838,118839,118839,118856,118856,119056,119056,119072,119088,119088,119105,119105,119106,119106,119121,119122,119122,119122,119138,119138,119139,119139,119139,119139,119155,119156,119156,119156,119156,119156,119171,119172,119172,119172,119172,119188,119189,119189,119215,119215,119238,119238,119254,119255,119271,119271,119271,119271,119287,119287,119288,119288,119306,119306,119306,119323,119323,119323,119323,119338,119339,119339,119339,119354,119355,119355,119355,119355,119371,119372,119372,119372,119388,119388,119389,119389,119389,119405,119406,119406,119406,119421,119422,119437,119438,119584,119607,119607,119631,119655,119671,119671,119671,119688,119688,119706,119706,119724,119739,119739,119755,119756,119756,119774,119774,119790,119790,119790,119805,119805,119805,119824,119824,119838,119839,119856,119856,119856,119872,119872,119872,119888,119889,119951,119951,119960" d="M3.5,62.66667C2.2785,61.78817 1.38482,61.75626 0.61467,61.58133C-0.18331,61.40009 -0.91409,60.98093 -1.89733,60.46667C-2.63546,60.08061 -3.21133,59.37687 -3.784,58.75067C-4.3617,58.11896 -4.55309,57.34687 -4.33333,56.33333C-4.18558,55.6519 -3.8989,54.92426 -3.62133,53.80983C-3.4289,53.03719 -2.76967,52.6564 -1.97917,52.14583C-1.14907,51.6097 -0.48134,51.16242 0.10133,50.86667C1.10082,50.35936 1.72794,50.04736 2.66667,49.66667C3.4463,49.3505 4.28215,49.08593 5.33333,48.66667C6.05269,48.37976 6.7171,48.04671 7.66667,47.66667C8.44626,47.35465 9.26307,47.05207 10.33333,46.83333C11.03234,46.69047 11.83833,46.66892 12.864,46.66667C13.8,46.66462 14.7,46.66667 15.60017,46.66667C16.38533,46.66667 17.44494,46.35443 18.16667,46.83333C18.79898,47.2529 19.12131,48.30283 19.82133,48.76667C20.47803,49.2018 21.5259,49.71614 21.97917,50.1875C22.68134,50.9177 22.95982,51.69213 23.5,52.5C23.94699,53.1685 24.20263,54.24614 24.936,54.63067C25.79005,55.07848 26.67564,54.33234 27.3715,53.96217C28.23348,53.50362 28.86199,53.36496 29.86,53.06667C30.53299,52.86552 31.72736,52.46281 32.45833,52.1875C33.09564,51.94746 34.10334,51.6995 34.95717,51.67117C35.92098,51.63918 36.736,51.66667 37.6045,51.66667C38.5,51.66667 39.4,51.66667 40.3,51.66667C40.9,51.66667 42.10266,51.66667 43.04167,51.66667C43.71433,51.66667 44.83333,51.66667 45.66667,51.66667C46.54,51.66667 47.41333,51.66667 48.24667,51.66667C49.33567,51.66667 50.20267,51.66667 50.94367,51.66667C51.92117,51.66667 52.71467,51.66521 53.49017,51.66667C54.69017,51.66892 55.41697,51.6717 56.31467,52.10267C56.9603,52.41263 57.37103,53.36292 57.94667,54.06667C58.54006,54.79212 59.35832,55.04311 60.10133,55.552C60.92373,56.11527 61.53416,56.63345 61.92933,57.268C62.51075,58.20162 62.47824,59.08588 62.78533,60.06667C62.97793,60.68178 63.53027,61.65281 63.88933,62.47733C64.16659,63.11401 64.38842,64.08689 64.47467,64.892C64.56262,65.71299 64.70542,66.75025 65,67.64584C65.20499,68.26907 65.4668,69.26545 65.4955,70.06667C65.53119,71.06339 65.31231,72.23096 66.04166,72.625C66.87389,73.07462 67.74667,72.66666 68.66666,72.66666C69.46167,72.66666 70.34666,72.66697 70.98666,72.66666C72.38667,72.666 73.14708,72.6668 73.94667,72.63067C74.78725,72.59268 75.66784,72.50888 76.58667,72.38267C77.54799,72.25062 78.0407,72.15983 79.06167,72.01933C79.5862,71.94715 81.22083,71.78233 81.78267,71.752C82.91409,71.69091 83.47912,71.68481 84.03867,71.67733C85.13061,71.66274 86.65683,71.66666 87.128,71.66666C88.01733,71.66666 88.84267,71.66666 89.612,71.66666C91.01334,71.66666 91.65334,71.66666 92.53833,71.66666C93.57833,71.66666 94.46024,71.60902 95.33334,71.66666C96.20116,71.72395 96.83592,72.36736 97.2,73.13284C97.6449,74.06827 97.90566,74.91147 98.1,75.51334C98.30603,76.15142 98.70711,77.54855 98.88934,78.292C99.07251,79.0393 99.25005,79.77781 99.3785,80.84517C99.49669,81.82728 99.49332,82.45597 99.5,83.66666C99.50332,84.26799 99.49014,85.19005 99.58533,86.152C99.68826,87.19197 99.85448,87.92348 100,88.6875C100.14919,89.47082 100.34924,90.66521 100.41467,91.46667C100.47987,92.26553 100.49355,93.06663 100.49866,93.86667C100.50633,95.06664 100.5,95.86667 100.5,96.66666C100.5,97.46667 100.5,98.66666 100.5,99.46667C100.5,100.26667 100.5,101.06667 100.5,101.86667C100.5,103.06617 100.5,103.85316 100.5,104.60416C100.5,105.61066 100.59735,106.62511 100.44283,107.41033C100.25801,108.34955 99.81076,109.02426 99.2045,109.9095C98.67972,110.67577 98.47105,111.36713 98.5,112.26667C98.52901,113.16837 99.16765,113.75982 100.02084,114.1875C100.7363,114.54614 101.55924,115.1272 101.95834,115.66666C102.65421,116.60728 103.14763,117.21926 103.47467,118.07733C103.81076,118.95914 104.0196,119.6881 104.5,120.66666C104.79475,121.26704 105.22991,122.04698 105.41467,123.06667C105.55791,123.85727 105.5,124.86684 105.5,125.6875C105.5,126.352 105.5,127.35067 105.5,128.16667C105.5,128.98267 105.58796,129.98846 105.464,130.82001C105.31732,131.80389 104.74676,132.42776 104.01334,133.15199C103.46457,133.69388 102.82655,134.28461 102.07883,134.8665C101.29873,135.47362 100.74384,135.80707 99.83334,136.5C99.15859,137.01352 98.5,137.66667 97.9,138.19467L97,138.14583" id="svg_23" stroke-width="3" stroke="#000" fill="none"/>
  <path t="120576,120622,120638,120655,120671,120671,120671,120689,120689,120705,120705,120705,120721,120721,120721,120722,120739,120739,120755,120755,120756,120771,120771,120771,120771,120788,120788,120806,120806,120806,120821,120821,120821,120821,120838,120838,120838,120839,120854,120855,120855,120871,120871,120871,120888,120888,120888,120888,120906,120906,120906,120906,120922,120922,120922,120923,120923,120939,120939,120939,120939,120939,120954,120955,120955,120955,120955,120971,120971,120971,120972,120988,120989,121128,121128,121138,121155,121183,121183,121206,121221,121238,121238,121255,121256,121256,121256,121271,121271,121271,121271,121271,121272,121272,121272,121272,121288,121289,121289,121289,121289,121289,121289,121289,121289,121306,121306,121306,121306,121306,121306,121306,121306,121307,121321,121321,121322,121322,121322,121322,121322,121322,121322,121338,121339,121339,121339,121339,121339,121339,121339,121339,121520,121520,121520,121520,121520,121520,121521,121521,121521,121638,121638,121638,121638,121639,121639,121639,121654,121671,121671,121671,121687,121688,121688,121688,121688,121688,121706,121706,121706,121706,121722,121723,121723,121739,121739" d="M101.5,82.66666C102.48933,80.07733 102.43881,79.16401 102.5045,78.35767C102.58871,77.32401 102.83019,76.65159 103.11066,75.91734C103.46627,74.9864 104.04978,74.19458 104.5,73.33334C104.84369,72.67587 105.07709,71.84936 105.66666,70.83334C105.95602,70.33468 106.51999,69.70361 107.016,69.068C107.77884,68.09046 108.08799,67.44009 108.66666,66.66666C109.13264,66.04386 109.72388,65.43969 110.66666,64.66666C111.1709,64.25322 111.98173,63.69108 112.49017,63.32383C113.36177,62.69427 113.96478,62.12635 114.83334,61.66667C115.49105,61.31857 116.31973,61.0619 117.5,60.66667C118.10052,60.46557 119.01584,60.16666 119.65717,60.02383C120.65991,59.80051 121.74775,59.71407 122.47916,59.6875C123.18989,59.66168 124.4576,59.6451 125.228,59.67733C125.89204,59.70512 126.91308,59.92916 127.772,60.31334C128.27718,60.53929 129.47435,61.14155 130.15067,61.51333C130.85617,61.90116 131.57486,62.30238 132.45734,63.08817C133.02397,63.59272 133.49054,64.19582 134.00534,64.77116C134.8186,65.68006 135.4637,66.27323 136.16133,66.86667C136.51797,67.17004 137.26167,67.75497 138.33333,68.66666C138.68173,68.96307 139.35275,69.56109 139.97917,70.1875C140.60559,70.81391 141.5023,71.83141 141.79984,72.18767C142.40015,72.90646 142.96471,73.63735 143.54283,74.29967C144.31438,75.18357 144.79999,75.63159 145.47917,76.125C146.08606,76.56589 146.94302,77.10534 147.62801,77.84133C148.2077,78.4642 148.48726,79.47994 149.30133,79.66534C150.11516,79.85068 151.15266,79.66666 151.84734,79.66666C152.864,79.66666 153.8,79.66666 154.70267,79.66666C155.47067,79.66666 156.28416,79.66077 157.25,79.6875C157.68144,79.69944 158.75632,79.7467 160.16667,79.83334C161.01537,79.88548 161.95505,79.95128 162.97617,80.03733C164.07111,80.1296 165.23009,80.24199 166.44267,80.38533C167.70317,80.53434 169.00526,80.68593 171.66667,81.16666C173.02464,81.41196 174.38409,81.71244 175.74367,82.04266C177.10687,82.37376 178.46129,82.73978 179.80267,83.13467C181.13602,83.52719 182.45505,83.92817 185,84.83334C186.23988,85.27433 187.44228,85.74364 188.61501,86.21484C189.76224,86.67578 190.87587,87.14378 191.96001,87.60533C193.01585,88.05483 194.03676,88.50497 196,89.33334C196.9333,89.72713 197.83801,90.09629 198.71049,90.44783C199.54871,90.78556 200.35422,91.10404 201.12399,91.40933C201.85788,91.70039 202.558,91.97057 203.83333,92.5C204.41504,92.74149 204.95665,92.977 205.45784,93.2095C205.92589,93.42664 206.35736,93.63996 206.74933,93.856C207.11354,94.05675 207.45584,94.24232 208,94.66666C208.24327,94.85638 208.44778,95.05825 208.61951,95.25767C208.77675,95.44027 208.90298,95.62098 208.996,95.79467C209.07867,95.94903 209.15851,96.09257 209.16667,96.33334C209.16975,96.42428 209.13689,96.50209 209.09016,96.55683C209.04424,96.61064 208.93201,96.58494 208.78267,96.74934C208.28931,97.29248 208.49278,98.34695 208.536,99.05733C208.57481,99.69539 208.71933,100.97375 208.85266,102.0345C208.92427,102.60414 209.00316,103.18711 209.14734,104.3605C209.21754,104.93182 209.38974,106.4799 209.44284,107.338C209.48894,108.08279 209.49774,108.74866 209.5,109.96633C209.50162,110.84534 209.5,111.65234 209.5,112.52367L209.5,113.464" id="svg_24" stroke-width="3" stroke="#000" fill="none"/>
  <path t="124779,124872,124889,124889,124906,124906,124922,124922,124922,124939,124939,124939,124955,124976,124976,124999,124999,125022,125039,125055,125055,125072,125072,125072,125072,125088,125088,125089,125089,125089,125089,125105,125106,125106,125106,125121,125121,125138,125138,125160,125160,125173,125173,125224,125239,125254,125254,125272,125408,125423,125438,125455,125456,125471,125471,125471,125488,125488,125489,125506,125506,125523,125523,125538,125538,125556,125556,125571,125571,125591,125622,125638,125655,125655,125671,125671,125688,125704,125705,125721,125738,125738,125756,125756,125771,125788,125789,125804,125804,125823,125838,125838,125920,125920,125984,126005,126022,126023,126038,126038,126038,126038,126056,126056,126056,126056,126056,126056,126056,126056,126072,126072,126072,126072,126072,126072,126072,126072,126072,126089,126090,126090,126090,126090,126090,126090,126090,126090,126112,126112,126112,126112,126112,126136,126136,126155,126172,126173,126188,126189,126189,126189,126205,126205,126206,126206,126206,126223,126223,126223,126223,126239,126239,126239,126239,126239,126257,126257,126257,126257,126274,126274,126274,126289,126289,126336,126367,126390,126406,126422,126422,126439,126439,126456,126506,126506,126522,126522,126539,126584" d="M328.5,134.66667C326.86401,134.056 326.17514,133.5726 325.5,133.16667C324.51611,132.5751 323.99225,132.15375 323.33334,131.5C322.66672,130.83858 322.11224,130.29265 321.52151,129.46683C320.9826,128.71344 320.71762,128.14037 320.10001,127.292C319.5152,126.4887 319.0018,125.88256 318.66666,124.83334C318.43176,124.09801 318.49985,123.16666 318.5,122.256C318.50018,121.345 318.44412,120.59509 318.83334,119.5C319.02536,118.95975 319.5593,118.10219 319.96616,117.44783C320.66122,116.32993 320.92245,115.92471 321.45267,115.06133C321.72592,114.61636 322.27374,113.71677 322.54733,113.272C323.33075,111.9984 323.80869,111.23697 324.25333,110.56C324.6492,109.95728 325.30679,108.97779 325.86401,108.33867C326.47205,107.64127 326.98264,107.11198 327.82132,106.56683C328.47321,106.1431 329.59991,106.03664 330.21335,105.58266C330.97144,105.02164 331.60001,104.66666 332.5,104.66666C333.29999,104.66666 334.31339,105.06005 335.064,104.63067C335.75464,104.23558 335.48572,103.01429 335.78534,102.18C336.06476,101.40195 336.50146,100.50056 336.79999,99.7185C337.1015,98.92857 337.44479,97.96297 337.91068,97.328C338.33777,96.7459 339.15265,96.01396 339.67465,95.492C340.47861,94.6881 340.96576,94.1394 341.82132,93.56667C342.47595,93.12843 343.36163,92.70121 343.97916,92.16666C344.63187,91.60166 345.15292,90.85916 346.10001,90.67733C346.98392,90.50763 347.95322,90.55464 348.70132,90.952C349.45804,91.35393 350.12888,92.01454 350.84732,92.3095C351.83667,92.71568 352.71951,92.93017 353.29999,93.468C353.92172,94.04407 354.72729,94.67963 355.14282,95.42384C355.60394,96.24969 355.48169,97.04086 355.85266,97.914C356.25833,98.86881 356.32294,99.53315 356.66666,100.5C356.95441,101.30945 357.41824,102.09453 357.72134,102.988C357.95703,103.68275 358.27332,104.67928 358.55267,105.36217C358.89828,106.20707 359.79865,106.63807 360.70401,106.66666C361.55557,106.69357 362.56,106.66666 363.23999,106.66666C364.04001,106.66666 364.95999,106.66666 366,106.66666C366.56549,106.66666 367.79849,106.66666 368.47198,106.66666C369.1875,106.66666 369.948,106.66666 370.7565,106.66666C371.616,106.66666 373.5,106.66619 374.52802,106.66683C375.604,106.6675 376.716,106.66921 377.85199,106.67733C379.00003,106.68553 380.1481,106.69886 381.284,106.72383C382.39609,106.74828 384.50037,106.82729 385.47,106.888C386.38037,106.945 387.23038,107.01531 388.01999,107.092C388.75037,107.16294 389.42023,107.23962 390.03,107.314C390.58017,107.38112 391.49991,107.50081 391.871,107.54533C392.1879,107.58336 392.45886,107.60143 392.68399,107.64133C393.5094,107.78767 394.19406,108.35062 394.5,109.1875C394.84592,110.13373 395.01987,110.72073 395.66666,111.83334C395.97247,112.35939 396.5126,113.19266 396.79016,113.82833C397.2196,114.81187 397.35394,115.54918 397.42801,116.30267C397.50397,117.07526 397.49866,117.868 397.5,119.06683C397.50089,119.87117 397.5,120.6875 397.5,121.52383C397.5,122.83334 397.5,123.74934 397.5,124.21484C397.5,125.14584 397.5,126.05683 397.5,127.33334C397.5,128.09599 397.5,128.79466 397.5,129.75766C397.5,130.66667 397.5,131.55766 397.5,132.39467C397.5,133.52367 397.89767,134.47217 397.46399,135.23067C397.06906,135.92139 395.88028,135.66454 395.10001,136.092C394.27594,136.54344 393.6058,136.72725 392.67465,137.092C391.97696,137.36528 390.98398,137.61406 390.17868,137.888C389.30429,138.18544 388.52151,138.54517 387.70132,138.66533L386.79999,138.66667L385.89999,138.66667" id="svg_25" stroke-width="3" stroke="#000" fill="none"/>
  <path t="127686,127887,127906,127922,127938,127938,127955,127972,127973,128015,128031,128031,128039,128056,128072,128088,128106,128123,128138,128156,128156,128172,128189,128206,128206,128221,128239,128239,128257,128257,128273,128288,128288,128305,128305,128323,128338,128356,128357,128488,128505,128505,128521,128539,128540,128540,128560,128584,128606,128621,128622,128638,128655,128720,128800,128800,128872,128952,128973,128988,129005,129023,129040,129040,129072,129095,129112,129155,129183,129204,129205,129223,129238,129256,129335,129355,129371,129388,129388" d="M458.5,137.66667C456.89999,137.056 456.26706,136.27028 455.5,135.83333C454.72012,135.38907 454.35602,134.83519 453.64932,134.26666C452.86017,133.63181 452.17087,133.21666 451.66666,132.5C451.17767,131.80495 451.5,130.86667 451.5,129.96666C451.5,129.06667 451.5,128.16667 451.5,127.26667C451.5,126.36667 451.5,125.46667 451.5,124.56667C451.5,123.66666 451.4827,122.8665 451.5,121.96667C451.51801,121.03015 451.80139,120.18973 452.07468,119.492C452.43942,118.56084 452.66364,117.51084 453.14667,117.06667C453.90436,116.36993 454.63702,115.97738 455.61465,115.752C456.48138,115.55219 457.25717,115.66666 458.15268,115.66666C459.01599,115.66666 459.99506,115.50654 460.89999,115.67733C461.85022,115.85667 462.36365,116.48844 463.32535,116.63067C464.32312,116.77823 465.15924,116.74782 465.91068,116.22C466.76498,115.61994 467.18008,115.04225 467.63867,114.492C468.38525,113.59616 468.71524,112.72756 469.60001,112.66666C470.49786,112.60487 471.27985,112.78655 472.10001,113.24133C472.8822,113.67508 473.61182,114.10901 474.5,114.5C475.15765,114.78951 476.10001,114.66666 477,114.66666C477.89999,114.66666 478.79999,114.66666 479.70001,114.66666C480.60001,114.66666 481.53824,114.84021 482.29999,114.58134C483.18793,114.27958 483.89944,113.68467 484.79999,113.66666C485.69983,113.64867 486.60001,113.66666 487.5,113.66666C488.29999,113.66666 489.20001,113.66666 490.10001,113.66666C491,113.66666 491.89999,113.66666 492.79999,113.66666L493.70001,113.668L494.60001,113.888L495.20001,114.314" id="svg_26" stroke-width="3" stroke="#000" fill="none"/>
 </g>
</svg>