<svg width="500" height="333.3333333333333" xmlns="http://www.w3.org/2000/svg" xmlns:svg="http://www.w3.org/2000/svg" xmlns:xlink="http://www.w3.org/1999/xlink">
 <!-- Created with SVG-edit - http://svg-edit.googlecode.com/ -->
 <g display="inline" class="layer">
  <title>Layer 1</title>
  <path t="0,125,125,125,146,146,159,160,177,177,177,193,193,193,210,210,211,226,227,227,347,347,347,374,374,507,524,524,524,540,557,557,590,607,608,627,643,688,689,723,723,723,724,740,740,741,757,773,773,790,790,810,810,826,827,837,838,868,869,869,869,890,890,890,890,890,890,890,891,891,909,909,909,909,909,910,910,910,910,924,925,925,925,925,925,979,979,991,1008,1091,1147,1172,1172,1189,1189,1189,1206,1243,1281,1472,1473,1490,1506,1507,1507,1507,1525,1525,1526,1526,1526,1526,1526,1526,1527,1541,1542,1542,1542,1542,1543,1543,1543,1558,1559,1559,1559,1559,1574,1575,1575,1575,1575,2056,2056,2056,2057,2075,2075,2106,2107,2107,2125,2125,2126,2141,2142,2158,2159,2159,2175,2176,2177,2191,2217,2218,2230,2230,2231,2231,2245,2245,2245,2272,2273,2273,2292,2293,2293,2293,2325,2325,2326,2326,2341,2342,2342,2342,2381,2381,2381,2406,2406,2407,2489,2490,2547,2547,2564,2564,2565,2565,2565,2566,2566,2566,2567,2584,2585,2585,2586,2586,2586,2587,2587,2587,2610,2610,2610,2611,2611,2612,2612,2612,2628,2628,2629,2822,2842,2858,2859,2906,3075,3092,3093,3110,3111,3111,3111,3130,3131,3131,3131,3149,3149,3150,3150,3151,3194,3194,3195,3195,3222,3222,3223,3223,3224,3224,3224,3225,3256,3257,3274,3274,3341,3398,3399,3399,3400,3400,3426,3426,3427,3427,3428,3428,3429,3429,3429,3449,3450,3451,3451,3452,3452,3475,3475,3476,3523,3523,3524,3524,3525,3543,3544,3544,3545,3545,3546,3575,3575,3576,3598,3598,3599,3600,3602,3602,3625,3626,3627,3627,3649,3650,3676,3707,3708,3708,3709,3775,3775,3776,3776,3822,3823,3844,3922,3956,3956,3957,3981,3982,3982,3983,3984,3984,3985,3986,3986,4010,4011,4012,4012,4013,4013,4014,4014,4015,4043,4043,4044,4045,4045,4046,4046,4047,4047,4260,4260,4261,4261,4262,4262,4263,4263,4264,4347,4348,4348,4349,4349,4350,4350,4351,4352,4390,4391,4443,4579,4607,4640,4667,4667,4695,4696,4859,4860,5025,5026,5075,5076,5110,5138,5139,5140,5198,5199,5200,5229,5230,5361,5362,5408,5409,5441,5442,5443,5477,5478,5479,5509,5510,5544,5544,5644,5644,5691,5692,5693,5693,5947,5993,5994,6023,6024,6024,6025,6026,6061,6062,6063,6064,6064,6108,6109,6110,6111,6141,6212,6213,6213,6262,6263,6263,6264,6265,6266,6266,6299,6300,6301,6301,6302,6303,6342,6343,6347,6348,6348,6381,6382,6382,6383,6384,6430,6431,6432,6433,6433,6474,6475,6476,6513,6514,6544,6545,6645,6645,6646,6691,6692,6693,6694,6694,6695,6723,6724,6760,6761,6763,6790,6791,6826,6827,6858,6859,6859,6893,6894,6895,6924,6960,6961,6963,6990,6991,6992,6992,7026,7027,7028,7028,7057,7058,7059,7060,7090,7091,7092,7195,7227,7258,7259,7287,7288,7316,7316,7357,7393,7394,7440,7473,7507,7563,7593,7623,7677,7678,7708,7709,7710,7710,7743,7744,7774,7775,7776,7777,7810,7811,7812,7842,7843,7844,7845,7890,7891,7892,7924,7960,7962,7963,7992,7994,7995,7996,8026,8028,8029,8057,8058,8093,8094,8095,8124,8126,8127,8160,8162,8190,8191,8192,8226,8227,8255,8257,8293,8294,8323,8325,8326,8360,8362,8363,8391,8392,8393,8394,8426,8427,8457,8507,8540,8541,8576,8607,8608,8612,8613,8645,8646,8647,8648,8649,8690,8691,8692,8693,8723,8724,8725,8726,8757,8758,8807,8808,8843,8845,8876,8877,8878,8879,8910,8912,8944,8945,8946,8977,8978,8979,9156,9157,9190,9191,9226,9228,9229,9258,9260,9261,9293,9294,9411,9412,9444,9477,9479,9480,9523,9524,10206,10207,10208,10209,10243,10244,10276,10277,10373,10406,10443,10444,10445,10476,10477,10510,11059,11106,11143,11190,11191,11226,11228,11261,11262,11295,11296,11298,11299,11332,11333,11373,11409,11410,11411,11445,11446,11480,11482,11484,11485,11526,11527,11528,11723,11724,11725,11758,11759,11794,11795,11828,11830,11831,11832,11833,11865,11867,11868,11909,11911,11942,11944,11945,12223,12256,12356,12391,12393,12429,12431,12432,12433,12474,12476,12477,12478,12512,12515,12516,12549,12551,12552,12553,12594,12595,12596,12632,12634,12636,12673,12674,12675,12710,12711,12714,12747,12749,12750,12790,12791,12792,12828,12830,12831,12832,12834,12835,12836,12874,12875,12877,12878,12879,12880,12911,12913,12914,12915,12990,13024,13026,13060,13062,13063,13106,13107,13108,13110,13190,13191,13226,13261,13263,13264,13266,13267,13268,13269,13309,13311,13312,13313,13314,13315,13316,13317,13359,13360,13362,13363,13364,13365,13366,13410,13411,13413,13414,13415,13416,13456,13458,13459,13460,13461,13496,13498,13500,13501,13502,13503,13543,13544,13546,13548,13756,13757,13758,13760,13794,13796,13797,13798,13800,13801,13843,13844,13846,13847,13848,13849,13851,13852,14006,14007,14008,14043,14045,14081,14083,14084,14085,14126,14128,14129,14131,14132,14243,14244,14245,14280,14283,14326,14327,14329,14330,14373,14375,14376,14377,14378,14379,14423,14425,14426,14427,14556,14590,14628,14630,14631,14633,14676,14678,14679,14681,14730,14732,14940,14941,14976,14979,14980,14982,14983,14984,15026,15028,15029,15030,15032,15033,15034,15036,15037,15112,15114,15115,15117,15118,15119" d="M140.01137,116.25758C140.8647,118.65758 141.55235,119.23443 142.24471,119.85757C142.88779,120.43637 143.28993,121.40237 144.11169,122.01474C144.72993,122.47545 145.78947,122.51971 146.5322,122.79924C147.07013,123.00169 148.0975,123.56874 148.78603,124.08291C149.47163,124.59489 150.42165,125.25983 150.96404,125.49591C151.77118,125.84721 152.84244,126.10611 153.5587,126.20491C154.46159,126.32945 155.44043,126.45172 156.22603,126.69358C157.01036,126.93505 157.84879,127.38937 158.59003,127.82158C159.39171,128.28903 160.14059,128.90889 160.4007,129.54425C160.68721,130.24413 160.80428,131.50156 161.17802,132.25758C161.56923,133.04893 162.22324,133.69885 163.11136,134.13625C163.76581,134.45856 164.64859,134.83267 165.21004,135.45758C165.89252,136.21719 166.09338,136.97447 166.67802,137.59091C167.37024,138.32077 168.03169,138.75821 168.65787,139.25224C169.5107,139.92509 170.15028,140.43207 170.80736,141.05492C171.43211,141.64713 172.15605,142.29741 172.8367,142.64691C173.81653,143.15002 174.63782,143.21442 175.49803,143.26024C176.2601,143.30084 177.19629,143.55515 177.95953,143.96741C178.77119,144.40582 179.19562,144.84395 180.26003,145.50941C180.74245,145.81102 181.49936,146.07832 182.00337,146.22691C183.33647,146.61995 184.20961,146.80487 185.1927,147.02425C186.26553,147.26364 187.40784,147.50185 188.5947,147.73674C189.79985,147.97525 191.00119,148.20374 192.1767,148.40424C194.34203,148.77356 195.2953,148.90053 196.15669,149.00157C196.93443,149.0928 197.6403,149.15564 198.2822,149.19508C198.86838,149.23111 199.40913,149.24774 199.9127,149.25357C200.84464,149.26436 201.28937,149.25758 201.72203,149.25758C202.1407,149.25758 202.92802,149.25758 203.63536,149.25758C204.74687,149.25758 205.57936,149.25758 206.51137,149.25758C207.41136,149.25758 208.80136,149.58427 208.95403,148.82158C209.13483,147.91833 207.69037,147.683 207.25436,146.7149C206.95526,146.0508 207.01587,145.26294 207.01137,144.22958C207.00725,143.28293 206.96715,142.49156 206.66319,141.60941C206.39218,140.82285 206.83476,140.24765 207.79137,140.26024C208.35829,140.2677 209.08643,140.31454 210.01137,140.42824C211.18051,140.57195 211.86165,140.69775 212.60336,140.8269C213.39403,140.96458 214.2209,141.11787 215.07387,141.27841C215.94223,141.44185 216.81407,141.61006 217.67937,141.77492C219.34445,142.09216 220.12471,142.23767 220.86737,142.37091C221.57341,142.49757 222.24471,142.61945 223.4967,142.81091C224.07843,142.89987 224.63246,143.00044 226.16853,143.13608C227.10013,143.21834 227.99046,143.23949 228.42603,143.24692C229.29396,143.26172 230.63269,143.25758 231.56403,143.25758C232.0367,143.25758 232.98604,143.25754 233.92737,143.25758C235.28937,143.25766 235.72227,143.24611 236.54337,143.26825C237.63596,143.29771 238.7809,143.40771 239.4697,143.77841C240.22275,144.18369 240.88773,144.62665 241.6127,145.22824C242.2498,145.75691 242.80229,146.50706 243.3542,147.25224C243.99187,148.11322 244.4771,148.76106 245.17802,149.25758C245.81882,149.7115 246.63811,150.11049 247.41003,150.74158C248.01134,151.23317 248.52637,151.77324 249.2542,152.50041C250.01172,153.25723 250.55676,153.77982 251.17802,154.59091C251.68454,155.2522 252.02492,155.76979 252.52736,156.57491C253.14418,157.56328 253.5032,158.26224 253.89537,158.94157C254.32401,159.6841 254.83589,160.49092 255.22203,161.03224C255.98889,162.10728 256.4346,162.55533 256.99054,163.27841C257.55148,164.00803 258.00879,164.89322 258.25421,165.56741C258.5105,166.27147 258.68994,167.01433 259.11154,168.43591C259.30798,169.0983 259.47461,169.74283 259.8967,170.57091C260.42685,171.61093 260.83273,172.03506 261.41586,172.65308C262.19217,173.47581 262.80093,174.04666 263.35419,174.6004C264.12503,175.3719 264.48834,176.08896 265.11404,176.66824C265.64551,177.16026 267.17654,177.43126 267.88971,177.57875C268.70975,177.74834 269.62219,177.91061 270.60471,178.07225C271.63553,178.24184 272.69736,178.40099 273.76968,178.54774C274.83072,178.69295 276.84409,178.93051 277.76086,179.01457C278.61353,179.09276 279.41092,179.14833 280.15936,179.18558C280.86533,179.2207 281.53665,179.23914 282.17987,179.24858C282.802,179.25772 284.01135,179.25758 284.61069,179.25758C285.20602,179.25758 285.79337,179.25758 286.36868,179.25758C286.92804,179.25758 287.9827,179.25758 288.47003,179.25758C289.72519,179.25758 290.65671,179.25758 291.52069,179.25758C292.49054,179.25758 293.5127,179.37086 294.11136,178.81491C294.7457,178.22585 295.30527,177.3149 296.11136,177.25758C297.00909,177.19376 297.83057,177.43771 298.33252,178.14342C298.90097,178.94257 299.18219,179.6519 299.44202,180.37758C299.81552,181.42076 299.91516,182.10782 300.02603,183.11891C300.10358,183.82593 300.22211,185.002 300.36853,185.86292C300.52103,186.75955 300.61035,187.20952 300.81268,188.08958C301.0954,189.31927 301.31137,190.06859 301.55304,190.82008C301.81595,191.63762 302.34424,193.09108 302.55386,193.66391C302.77756,194.2751 303.01254,194.91179 303.25137,195.56291C303.49088,196.21579 303.95328,197.47835 304.15802,198.06691C304.65768,199.50336 304.92535,200.14745 305.01135,201.25758C305.07315,202.05518 305.0062,202.82449 305.17804,203.75758C305.3436,204.65652 305.53534,205.42361 305.62204,205.86958C305.81982,206.88689 306.01324,208.09064 306.11169,208.7644C306.21603,209.47862 306.3175,210.22583 306.43271,210.9949C306.55014,211.77885 306.67532,212.56841 306.82568,213.35141C306.97412,214.12447 307.543,216.27496 307.77805,216.91225C308.00192,217.5193 308.24069,218.08658 308.7247,219.1069C309.14871,220.00073 309.67947,221.08372 309.84436,221.69508C310.05801,222.48729 310.16739,223.593 310.29803,224.23091C310.44601,224.95348 310.65033,225.75305 310.89804,226.63091C311.16962,227.59332 311.49237,228.62256 311.66403,229.14941C312.0054,230.19704 312.16623,230.70639 312.52737,231.63358C312.96634,232.76051 313.40009,233.52884 313.8212,234.22092C314.34897,235.08832 314.78293,235.87773 315.01221,236.32991C315.50104,237.29399 315.75885,237.78888 316.15802,238.80824C316.69342,240.17548 316.85657,240.97493 316.9697,241.65341C317.10764,242.48056 317.33499,243.46904 317.81268,244.05492C318.46744,244.85797 319.01526,245.75618 319.21402,246.31091C319.55984,247.276 319.74701,248.00325 320.3447,248.92424C320.73117,249.51978 321.50476,250.20346 322.00604,250.59142C322.85742,251.25032 323.64401,251.72025 324.4007,252.23224C325.06787,252.68367 325.58524,253.24164 326.45905,253.31024C326.92166,253.34656 328.1781,253.42343 328.99136,253.47925C329.92477,253.54332 330.96814,253.61772 332.11136,253.70424C333.34482,253.79759 334.65823,253.90186 336.04135,254.01924C337.48492,254.14175 340.51166,254.42119 342.07437,254.5789C343.65567,254.73849 345.24258,254.90826 346.82336,255.08292C348.38657,255.25563 349.91949,255.43109 351.41037,255.6049C352.84747,255.77246 355.51151,256.0896 356.71686,256.23624C357.83551,256.37234 358.87048,256.5004 359.82336,256.63223C360.69943,256.75342 361.50092,256.87436 362.22787,257.01025C362.88885,257.13382 364.01566,257.41174 364.48221,257.57874C364.90219,257.72906 365.26822,257.89758 365.58469,258.07224C365.86966,258.22952 366.1131,258.3938 366.32721,258.54773C366.51962,258.68607 366.84207,258.92859 366.98969,259.01474C367.12247,259.09222 367.24896,259.14954 367.36469,259.19626C367.46906,259.2384 367.56564,259.2699 367.64969,259.30576C367.72562,259.33817 367.92352,259.40656 368.00687,259.96207C368.13974,260.84769 368.17865,261.86685 367.65421,262.55307C367.08081,263.30331 366.19708,263.51135 365.84204,264.14426C365.38464,264.95963 364.59402,265.53268 364.18069,266.37491C363.8609,267.02652 363.72418,268.02466 363.51135,268.75757C363.17297,269.92279 362.88568,270.93494 363.57385,271.23676C364.47186,271.63058 365.28531,271.20337 366.0632,271.37192C367.11649,271.60013 367.74847,272.13049 368.3497,272.55225C369.24039,273.17706 369.98071,273.25623 371.01669,273.25757C371.76071,273.25851 372.88867,273.37646 373.66202,273.18558C374.60004,272.95404 375.27271,272.39624 375.79669,272.07224C376.8447,271.42422 377.57968,271.05515 378.1647,270.63223C379.03955,269.99982 379.44946,269.23044 380.01135,268.42426C380.47839,267.75418 381.27145,267.09592 381.61136,266.54959C382.22852,265.55765 382.30005,264.90036 382.61136,263.96957C382.80438,263.39252 383.66492,262.5152 383.92203,261.68558C384.12509,261.03036 383.55591,260.05615 382.93088,259.30042C382.44052,258.70752 381.79117,258.14395 381.43671,257.85623C380.29266,256.92761 379.41165,256.36038 378.97137,256.06824C378.10025,255.4902 377.65659,255.23955 376.51135,254.42424C375.85855,253.9595 375.37064,253.46255 374.5007,252.82957C373.79865,252.31873 372.92575,251.80196 372.4072,251.17424C372.03622,250.72519 371.18832,249.91125 370.38736,249.28824C369.94016,248.9404 369.45566,248.59203 368.43002,247.87224C367.90472,247.50357 367.37143,247.14589 366.3447,246.42424C365.38098,245.74686 364.92325,245.42473 364.0947,244.75758C363.69913,244.43907 362.92947,243.82059 362.0542,242.73608C361.48364,242.02914 361.26627,241.62549 360.79669,240.84691C360.32217,240.06015 359.5936,238.85536 359.32736,238.45891C358.79315,237.66342 358.23682,236.89348 357.96402,236.51474C357.17838,235.424 356.70248,234.73907 356.23669,234.10425C355.79279,233.49924 355.3699,232.89995 354.33002,231.94424C353.827,231.48193 352.97812,231.01436 352.37552,230.27892C351.80325,229.58049 351.40808,228.79916 350.86203,228.04691C350.30762,227.28316 350.10245,226.3956 349.67737,225.80042C349.11179,225.00851 348.31174,224.567 347.89087,224.3139C347.00214,223.77945 346.07477,223.31483 345.63004,223.11224C344.24887,222.48305 343.57462,222.30508 342.46869,222.25725C341.76105,222.22664 340.89639,222.35272 339.98203,221.68825C339.31436,221.20305 338.87085,220.30667 338.41138,219.59624C337.86096,218.74515 337.60532,217.98775 337.41138,217.43625C336.99844,216.26204 336.81268,215.66158 336.5322,214.82008C336.17804,213.75758 336.03381,212.92331 335.99054,212.15341C335.94806,211.39735 335.79282,210.39296 335.65869,209.59508C335.51434,208.73624 335.33997,207.86171 335.17804,206.59091C335.0809,205.82861 335.0466,205.1181 334.98602,204.44292C334.86453,203.08899 334.73199,202.37399 334.58603,201.64291C334.44128,200.91798 334.15216,199.59398 334.06854,198.77641C334.00107,198.11671 334.01135,197.14291 334.01135,196.15758C334.01135,195.25758 334.01135,194.50041 334.01135,193.6004C334.01135,192.85307 334.00897,191.85892 334.01135,190.91475C334.01361,190.01472 334.31824,189.21077 334.72736,188.45758C335.16058,187.66006 335.81268,187.25826 336.71136,187.25758C337.61136,187.25691 338.51135,187.25758 339.41138,187.25758C340.32938,187.25758 340.94003,187.25758 341.9967,187.25758C342.72205,187.25758 343.51135,187.25754 344.30069,187.25758C345.62585,187.25766 346.49622,187.2431 347.51135,187.42424C348.06848,187.52365 349.03601,187.76488 349.71054,187.96208C350.97635,188.33215 351.49387,188.59021 352.26202,188.82158C353.33029,189.14333 354.32074,189.21062 355.0322,189.23674C355.76288,189.26357 356.8447,189.25758 357.8407,189.25758C358.69269,189.25758 359.64737,189.25758 360.51135,189.25758C361.33002,189.25758 362.18204,189.25758 363.17804,189.25758C363.89404,189.25758 364.62604,189.25758 365.70154,189.25758C366.67804,189.25758 367.49704,189.25758 368.40237,189.25758C369.41269,189.25758 370.24738,189.25758 371.17804,189.25758C371.96402,189.25758 372.78604,189.26094 373.8447,189.25758C374.5542,189.25533 375.42874,189.28137 376.41138,188.97224C377.23517,188.71307 378.03281,188.29642 378.80069,187.84691C379.5488,187.40898 380.10074,186.75314 380.63669,186.08292C381.30075,185.25249 382.03421,184.81331 382.8447,184.25758C383.53198,183.78633 384.16122,183.22752 384.85803,182.85757C385.67978,182.4213 386.70746,182.08266 387.22604,181.82558C388.02466,181.42966 388.8996,180.50981 389.19702,179.89958C389.50259,179.27258 389.73682,178.2775 390.21002,177.31358C390.52869,176.66449 390.89633,175.81439 391.36404,174.95758C391.7709,174.21227 391.82077,173.41214 392.11935,172.58557C392.47052,171.61345 393.07733,171.23804 393.57385,170.71591C394.11887,170.14279 395.0134,169.25961 395.61005,168.65758C396.2027,168.05957 396.78708,167.46812 397.32602,166.85757C398.1073,165.97252 398.55869,165.35757 399.01135,164.75758C399.46402,164.15758 400.16953,163.25014 400.69403,162.66025C401.21765,162.07133 401.99765,161.26804 402.67804,160.59091C403.33563,159.93648 404.146,159.4599 404.76852,159.14775C405.73767,158.6618 406.22534,158.03957 407.01135,157.25758C407.41171,156.85927 408.02164,156.28395 408.52603,155.65758C409.30417,154.69127 409.62128,154.03038 410.01135,153.09091C410.33298,152.3163 410.54492,151.45227 411.17804,150.59091C411.6011,150.01537 412.42471,149.57458 412.98969,148.93625C413.54062,148.31377 413.87643,147.27577 414.06403,146.44774C414.28226,145.48454 414.52515,144.7243 414.77304,144.20575C415.27737,143.1508 415.84482,142.5002 416.3587,141.86208C416.99991,141.06587 417.56137,140.31303 417.8447,139.42424C418.07913,138.68878 417.99149,137.70732 418.17804,136.92424C418.3996,135.99422 418.65253,135.23094 419.11154,134.40024C419.48303,133.72797 420.18286,132.9277 420.66403,132.25224C421.19135,131.51199 421.42789,130.93985 422.2587,130.07642C422.83344,129.4791 423.83606,129.27667 424.52737,129.25891C425.60034,129.23134 426.48422,129.35052 427.3327,128.81474C427.88663,128.46497 428.55548,127.76717 429.24969,127.01474C429.74548,126.47737 430.0665,125.55896 430.51135,124.75758C430.95218,123.96344 430.56525,123.27558 429.69003,123.25758C428.83688,123.24003 427.88007,123.34639 427.12735,123.17224C426.11942,122.93903 425.50195,122.52521 424.36887,122.15775C423.71558,121.94588 423.0368,121.75859 422.0647,121.54291C421.07166,121.32257 420.21536,121.25825 419.33936,121.25758C418.46854,121.25691 417.75003,121.25758 416.95953,121.25758C415.69537,121.25758 415.01135,121.25758 413.8447,121.25758C413.0542,121.25758 412.49054,121.25758 411.61005,121.25758C410.41138,121.25758 409.51135,121.25758 408.91138,121.25758C407.7117,121.25758 406.8327,121.25734 406.0257,121.25758C405.15469,121.25783 404.25421,121.53309 404.43921,122.32458C404.61877,123.09275 405.48825,124.11884 406.0647,124.57224C406.67505,125.05231 407.37778,125.43655 408.04471,125.85625C408.9772,126.44307 409.76889,126.99894 410.28802,127.60041C410.91052,128.32164 411.23151,129.17665 411.86337,129.74158C412.4809,130.29367 414.30588,130.57533 413.8927,131.60025C413.72168,132.02449 413.22144,130.75729 412.72205,130.05757C412.27426,129.43015 411.24905,129.1508 410.63986,128.95308C409.58304,128.61008 408.80185,128.38739 408.01135,128.09091C407.20947,127.79017 406.44476,127.43975 405.71936,127.11891C404.51367,126.58565 403.68365,126.27183 402.95935,126.34557C401.94247,126.44911 401.30969,126.68967 400.61536,126.90424C399.88785,127.12907 398.49524,127.73495 397.85803,128.07225C397.25537,128.39127 396.18546,128.94875 395.46854,129.15224C394.62363,129.39207 393.7803,129.66116 393.01135,130.29924C392.59341,130.64604 391.80203,131.44839 391.22205,132.05757C390.65915,132.6488 389.99139,133.43384 389.5322,134.27841C389.18002,134.92618 388.81476,135.94794 388.59003,136.51491C388.20731,137.48055 387.68231,138.59312 387.46835,139.00075C387.0062,139.88127 386.74002,140.34059 386.19003,141.31491C385.90271,141.82393 385.59793,142.33971 384.7117,143.97841C384.41037,144.53561 384.11737,145.0952 383.55304,146.19508C383.28192,146.72351 383.02429,147.23271 382.3447,148.59091C381.9826,149.31453 381.53082,150.13591 381.29938,150.76691C380.91214,151.82268 380.66312,152.57449 380.12469,153.14291C379.36813,153.94162 378.95651,154.30832 378.32471,155.02957C377.57428,155.88623 377.06708,156.55702 376.5322,157.21591C376.02487,157.84088 375.35687,158.60614 374.69403,159.12424C373.98535,159.67816 372.84097,159.77605 372.01404,159.60025C371.50867,159.49281 370.95563,159.35172 369.73669,158.98958C369.07779,158.79381 368.39752,158.58119 367.01135,158.09091C366.30936,157.84262 365.61243,157.57631 364.92038,157.30042C364.23108,157.02562 363.55045,156.74263 362.88336,156.44691C361.57687,155.86775 360.34268,155.26152 359.75452,154.95758C359.18137,154.66139 358.0921,154.0609 357.57385,153.75758C357.06677,153.46082 356.09326,152.86682 355.17804,152.25758C354.29205,151.6678 353.87122,151.36458 353.05304,150.77841C352.65714,150.49478 351.9028,149.93623 350.83237,149.17874C350.15799,148.70152 349.47049,148.23553 348.74435,147.74774C348.35712,147.48761 347.04813,146.61436 346.5607,146.29224C346.05847,145.96033 345.0354,145.29408 344.52338,144.98024C343.55466,144.38643 342.69656,143.87935 341.95004,143.59758C341.07159,143.26602 340.24026,143.20879 339.03937,142.97092C338.3248,142.82938 337.55066,142.62219 336.72336,142.37091C335.84097,142.10289 334.92328,141.77122 334.4407,141.60941C333.4306,141.27068 332.90137,141.0827 331.75403,140.8269C330.51944,140.55167 329.84869,140.49216 329.16336,140.42824C328.46759,140.36336 327.07394,140.29547 326.39536,140.27892C325.74097,140.26294 325.11935,140.25891 323.54053,140.25758C322.75885,140.25693 321.90848,140.18353 320.8927,140.26024C320.13824,140.31721 319.23059,140.66827 318.31403,141.15091C317.60168,141.526 317.20972,141.72394 316.17804,142.59091C315.46741,143.18806 314.87003,143.90083 314.5947,144.25758C314.06915,144.93857 313.30054,146.19304 313.11935,146.97491C312.93842,147.75566 313.04782,148.68098 312.75537,149.31224C312.26468,150.37144 311.7067,150.96799 311.17935,151.68958C310.8996,152.07236 310.0112,153.25746 309.71152,153.65741C309.11554,154.45284 308.53137,155.23615 308.24738,155.62158C307.6951,156.37108 306.92731,157.43169 306.47754,158.09142C306.06845,158.69145 305.62808,159.50859 305.12119,160.43874C304.68701,161.23541 303.82385,161.74034 303.35419,162.32907C302.97314,162.8067 302.40881,163.66077 301.81152,164.5574C301.41507,165.15254 300.8399,166.01689 300.4967,166.57225C299.88461,167.56274 299.53531,168.20877 299.1322,169.2364C298.86624,169.91441 298.12216,170.79913 297.56918,171.31241C297.2337,171.62381 296.45325,172.39618 296.02185,172.88107C295.5416,173.42087 294.50259,174.75143 293.94788,175.54907C293.35394,176.40309 292.76337,177.31584 292.16736,178.25357C291.57034,179.19286 290.99631,180.12218 290.44086,181.01207C289.92026,181.84613 289.02002,183.26363 288.6402,183.79958C288.32904,184.23865 288.04987,184.57158 287.81671,184.82558L287.61554,185.00758" id="svg_1" stroke-width="3" stroke="#000" fill="none"/>
  <path t="16047,16260,16260,16293,16293,16311,16311,16311,16311,16311,16328,16328,16364,16364,16393,16394,16411,16428,16445,16542,16542,16561,16561,16561,16578,16595,16595,16612,16612,16628,16628,16628,16628,16645,16645,16758,16758,16795,16796,16796,16796,16832,16833,16833,16956,16956,17026,17027,17064,17064,17064,17064,17064,17065,17065,17109,17109,17109,17109,17109,17156,17156,17156,17156,17196,17196,17197,17197,17197,17243,17243,17243,17243,17282,17282,17282,17282,17283,17283,17325,17326,17326,17326,17373,17373,17373,17413,17414,17414,17460,17460,17460,17498,17498,17498,17539,17539,17592,17592,17642,17642,17642,17643,17643,17689,17689,17690,17690,17690,17729,17730,17730,17776,17776,17889,17889,17939,17939,17979,17979,17980,17980,17980,18074,18074,18074,18092,18093,18109,18110,18128,18156,18156,18156,18194,18195,18211,18239,18259,18259,18259,18260,18297,18297,18410,18455,18455,18723,18723,18755,18774,18775,18792,18794,18794,18811,18812,19043,19043,19072,19091,19092,19122,19123,19155,19175,19175,19238,19238,19257,19305,19338,19357,19358,19359,19388,19388,19389,19409,19410,19455,19455,19588,19608,19638,19722,19742" d="M315.01135,135.25758C315.0112,132.81474 315.08957,131.84749 314.6452,131.00124C314.29181,130.32825 313.67047,129.76343 313.00604,128.89508C312.50562,128.24109 312.25113,127.90524 311.77936,127.22424C310.96164,126.04389 310.6785,125.17397 309.8447,124.59091C309.26071,124.18254 308.17496,124.0968 307.5322,123.75758C306.70737,123.32227 305.81137,123.25758 304.91138,123.25758C304.01135,123.25758 303.18762,123.23667 302.24338,122.97224C301.5029,122.76488 300.75195,122.50589 299.82568,121.96207C298.9841,121.46797 298.23331,121.26043 297.3497,120.89591C296.74817,120.64775 295.83908,120.09983 295.0632,119.60491C294.52826,119.26368 293.78906,118.73032 292.8212,118.01924C292.26788,117.61275 291.34634,117.29026 290.49252,117.26208C289.36929,117.225 288.70425,117.27542 288.01135,117.21591C286.97516,117.12692 286.01651,116.87743 285.29404,116.39624C284.63834,115.95952 283.80383,115.21585 283.37302,114.56208C282.90128,113.8462 282.8595,113.15257 282.51135,112.09091C282.17395,111.06201 281.95261,110.48017 281.73535,109.85891C281.51059,109.21618 281.26862,108.56892 280.86337,107.27491C280.4942,106.09615 280.25574,105.08497 280.18286,104.63891C280.05301,103.84403 280.01337,102.77892 280.01135,101.73591C280.00995,100.99591 280.01135,100.21591 280.01135,99.39591C280.01135,98.09091 280.01376,97.17615 280.00235,96.71391C279.97974,95.79893 279.99384,94.90218 279.67804,93.75758C279.49438,93.09189 278.95251,92.25491 278.5452,91.69958C277.85092,90.75299 277.32428,90.00708 277.0632,89.59508C276.52298,88.74252 276.0141,87.86228 275.7807,87.42424C275.13434,86.21113 274.82693,85.47385 274.5322,84.82008C274.13638,83.94208 273.54776,82.9248 272.99054,82.27841C272.62088,81.84959 271.80203,81.06676 271.22205,80.45758C270.65915,79.86635 270.05096,79.04478 269.49054,78.25758C269.05609,77.64732 268.2565,76.843 267.76071,76.47891C267.03503,75.94601 266.15289,75.50443 265.26318,75.20941C264.34381,74.90456 263.73834,74.61978 262.67804,74.25758C262.04471,74.04123 261.33032,73.85123 260.55402,73.65758C259.72504,73.45078 258.39032,73.15778 257.46771,72.95758C257.00732,72.85768 256.10504,72.67245 255.26604,72.45758C254.17073,72.17707 253.32967,71.83802 252.62486,71.61475C251.62544,71.29813 250.80824,71.34759 249.89537,70.97358C249.07999,70.63951 248.34178,70.29063 247.43536,70.26208C246.51181,70.23299 245.7579,70.2515 244.9247,70.26824C244.05116,70.2858 243.17192,70.29625 241.95486,70.47908C241.23453,70.58729 240.24707,70.71159 239.51137,71.25758C238.86314,71.73864 238.3291,72.60977 237.65953,72.90041C236.67007,73.3299 235.82346,73.56545 235.18604,74.11891C234.64517,74.58853 233.80017,75.29693 233.37303,75.95308C232.85429,76.74993 232.29755,77.33569 231.69003,78.14307C231.31439,78.6423 231.02733,79.28747 230.49536,80.20691C229.91397,81.21177 229.39085,81.79694 228.8127,82.45758C228.1402,83.22604 228.06544,84.11326 229.01137,84.25758C229.80222,84.37823 230.64737,84.25758 231.67303,84.25758C232.47304,84.25758 233.43253,84.25758 234.22603,84.25758C235.00153,84.25758 236.04205,84.25275 236.89403,84.25758C237.83675,84.26291 238.61076,84.19242 239.49052,84.77841C240.19727,85.24915 240.74112,86.00009 241.49536,86.45625C242.16394,86.8606 243.25734,86.96778 244.01137,87.59091C244.66666,88.13244 244.90979,89.18797 245.51137,89.71591C246.21432,90.33282 247.285,89.96454 247.9287,90.54424C248.65198,91.19563 248.68269,91.96514 249.47754,92.60491C250.14169,93.13949 250.96014,93.49902 251.75003,93.84691C252.67874,94.25594 253.33908,94.6579 254.11136,95.35741C254.71114,95.90067 255.51137,96.23674 256.41138,96.25758L257.31137,96.25758L258.20871,96.25758L258.35403,96.25758" id="svg_2" stroke-width="3" stroke="#000" fill="none"/>
  <path t="20243,20989,21023,21075,21106,21123,21123,21139,21155,21172,21173,21363,21363,21388,21388,21443,21474,21510,21539,21540,21540,21628,21628,21642,22156,22173,22174,22192,22193,22193,22193,22223,22223,22356,22356,22373,22392,22392,22392,22410,22410,22410,22410,22426,22427,22427,22427,22442,22442,22443,22443,22458,22459,22459,22489,22489,22507,22507,22523,22542,22542,22542,22543,22543,22773,22773,22773,22773,22843,22844,22873,22873,22923,22923,22950,22950,22975,22976,22991,22992,22992,22992,23008,23009,23009,23009,23025,23025,23026,23026,23091,23092,23123,23123,23156,23156,23175,23176,23191,23192,23192,23208,23209,23209,23225,23226,23275,23276,23307,23307,23356,23356,23356,23379,23379,23379,23408,23408,23408,23860,23860,23861,23923,23956,23975,23976,23992,24008,24025,24056,24141,24141,24240,24240,24261,24262,24262,24262,24292,24292,24293,24293,24381,24426,24426,24444,24445,24462,24462,24462,24462,24463,24478,24479,24479,24479,24541,24542" d="M242.01137,92.25758C240.17802,92.25758 239.4005,92.23867 238.51137,92.25758C237.53152,92.27841 237.04994,92.96634 237.0127,93.77491C236.96841,94.73598 236.53285,95.50312 236.17802,96.42424C235.93504,97.05504 235.71291,98.12731 235.16071,98.62157C234.38982,99.31158 234.01587,99.95755 234.01137,100.85757C234.00687,101.75757 234.01137,102.67891 234.01137,103.59091C234.01137,104.26291 234.01137,105.25224 234.01137,106.11458C234.01137,107.05491 234.28136,108.02198 233.93936,108.85757C233.64359,109.58025 232.73289,109.88743 231.67802,110.09091C231.05106,110.21185 230.03233,110.24377 229.37387,110.25307C228.06615,110.27155 227.2677,110.25758 226.3587,110.25758C225.66403,110.25758 224.62604,110.25758 223.67802,110.25758C222.99702,110.25758 222.19003,110.25758 221.01137,110.25758C220.10686,110.25758 219.49052,110.25758 218.52603,110.25758C217.48987,110.25758 216.7542,110.25758 215.99052,110.25758C215.20686,110.25758 214.01135,110.25349 213.21404,110.25891C212.43266,110.26423 211.31802,110.25993 210.3447,110.42424C209.51656,110.56404 208.85381,110.91521 207.81154,111.13608C207.0428,111.29899 206.03227,111.22641 205.21269,111.25758C204.2653,111.2936 203.34351,111.58753 202.6727,111.82558C201.88728,112.10429 201.04333,112.41503 200.6077,112.55225C199.35187,112.94778 198.23222,113.16484 197.57387,113.21591C196.70113,113.28362 195.69803,113.25758 194.85803,113.25758C193.89537,113.25758 193.12737,113.25758 192.17537,113.25758C191.41003,113.25758 190.40477,113.31566 189.61136,113.20041C188.59532,113.05282 187.78951,112.62516 186.8447,112.42424C186.0585,112.25705 185.15912,112.22527 184.5247,112.08824C183.47867,111.8623 182.7587,111.55225 182.01137,111.25758C181.26404,110.96291 180.18582,110.55244 179.17303,110.36741C178.55687,110.25484 177.68224,110.24164 176.69803,109.97358C175.84041,109.74 174.89853,109.30583 174.12737,109.25891C173.17705,109.20109 172.38791,109.24331 171.41136,108.90041C170.58847,108.61147 169.817,108.14545 168.99052,107.75758C168.33052,107.44783 167.33289,107.04231 166.51137,106.77841C165.96747,106.60369 164.69868,106.3175 164.0322,106.27841C163.01291,106.21863 162.22203,106.25758 161.17802,106.25758C160.37303,106.25758 159.34703,106.25758 158.71404,106.25758C157.95503,106.25758 156.69403,106.25758 155.99052,106.25758C155.24203,106.25758 154.04337,106.25758 153.3607,106.25758C152.66203,106.25758 151.3447,106.25758 150.5392,106.25758C149.79187,106.25758 150.1212,106.25758 151.0322,106.25758C151.98987,106.25758 152.81003,106.25758 153.71136,106.25758C154.61136,106.25758 155.52448,106.11483 156.41136,106.26824C157.24483,106.41241 158.01471,106.92783 158.3687,107.70024C158.66283,108.34203 158.07976,109.59912 157.88719,109.97274C157.46698,110.78801 156.98048,111.62471 156.17802,112.75758C155.715,113.41126 155.30885,113.98225 154.67303,114.52975C153.94893,115.15327 152.91119,115.25758 152.12604,115.25758C151.3407,115.25758 150.43536,115.25758 149.51137,115.25758C148.7567,115.25758 147.91403,115.25758 147.01537,115.25758C146.0927,115.25758 145.17802,115.25758 144.3007,115.25758C143.47937,115.25758 142.38736,115.25758 141.51137,115.25758L140.5947,115.25758" id="svg_3" stroke-width="3" stroke="#000" fill="none"/>
  <polyline timestamps="25668,25757,25812" startTime="1501922598022" id="svg_4" points="237.01136471971498,101.25757681030377 238.81136471971496,101.25757681030377 239.6541980530483,101.25757681030377 " stroke-linecap="round" stroke-width="3" stroke="#000" fill="none"/>
  <polyline timestamps="27038,27606" startTime="1501922598022" id="svg_5" points="247.01136471971498,101.25757681030377 248.51136471971498,99.75757681030377 " stroke-linecap="round" stroke-width="3" stroke="#000" fill="none"/>
  <path t="28340,28540,28676,28692,28839" d="M241.01137,105.25758C242.71136,106.25307 243.61136,106.25758 244.57536,106.29358L245.1212,106.90491" id="svg_6" stroke-width="3" stroke="#000" fill="none"/>
  <path t="31717,31858,31858,31894,31894,31894,31895,31895,31911,31911,31911,31911,31927,31927,31927,31943,31944,31944,31960,31961,31961,31961,31976,31977,31977,31977,31977,31994,31994,31994,32011,32011,32042,32061,32077,32077,32095,32095,32095,32095,32111,32112,32112,32112,32112,32141,32141,32142,32142,32142,32161,32161,32161,32162,32191,32191,32192,32212,32212,32212,32226,32226,32226,32226,32226,32244,32245,32245,32245,32278,32278,32279,32299,32300,32300,32300,32331,32332,32350,32350,32381,32381,32381,32410,32410,32410,32442,32461,32462,32462,32480,32480,32481,32642,32692,32692,32692,32693,32711,32711,32712,32712,32712,32712,32712,32712,32713,32842,32842,32842,32843,32843,32862" d="M193.01137,123.25758C194.8687,123.28957 195.56589,123.35463 196.65421,123.92207C197.34705,124.28332 198.03581,124.81525 198.3967,125.08958C199.13625,125.65177 200.19281,126.55379 200.8497,127.14857C201.47267,127.71265 202.02184,128.27719 202.8447,128.92424C203.5365,129.46823 204.21628,129.87729 205.17802,130.09091C205.95709,130.26396 206.82201,130.25224 208.01137,130.25758C208.61403,130.26028 209.55302,130.25758 210.22569,130.25758C211.3447,130.25758 212.17802,130.25758 213.05136,130.25758C213.9247,130.25758 214.75803,130.25758 215.84686,130.25758C216.70337,130.25758 217.39786,130.25758 218.40869,130.25758C219.29703,130.25758 220.29669,130.25742 221.21136,130.25758C222.11186,130.25775 222.89241,130.34702 223.77586,130.70024C224.38998,130.94579 225.06401,131.28407 225.82486,131.55225C226.9976,131.96559 227.8101,132.11124 228.62202,132.18558C229.44547,132.26097 230.29669,132.25624 231.63269,132.25758C232.09537,132.25804 233.0367,132.25758 233.98604,132.25758C234.45869,132.25758 235.8447,132.25758 236.72203,132.25758C237.54337,132.25758 238.29269,132.25758 239.51137,132.25758C240.33536,132.25758 241.06342,132.26663 242.06737,132.25624C243.07401,132.24582 243.82822,132.23218 245.01137,132.09091C245.81422,131.99506 246.61064,131.82837 247.41136,131.68291C248.21066,131.5377 249.41005,131.36569 250.20236,131.31474C250.96898,131.26544 251.69705,131.26515 252.67802,131.25758C253.50606,131.25119 254.52979,131.18782 255.3447,130.92424C256.33093,130.60524 256.9873,130.25023 257.64886,129.96291C258.74182,129.48822 259.48737,129.33427 260.33286,129.03607C261.05026,128.78305 262.02176,128.27724 262.81137,127.84691C263.41977,127.51535 264.21295,126.93848 264.80069,126.44291C265.5282,125.82948 266.40125,125.3371 267.3447,125.09091C268.02475,124.91346 268.80493,124.66841 269.8447,124.25758C270.55566,123.97666 271.31879,123.49594 272.2587,123.31474C273.16315,123.14038 273.94699,123.23461 274.54602,123.11358C275.38672,122.94371 276.51257,122.5947 277.20337,122.37225C277.96875,122.12577 278.78564,121.84773 279.63937,121.55624C280.51163,121.25842 281.38278,120.95715 282.23737,120.66824C283.05478,120.3919 284.5097,119.9186 285.11771,119.74341C285.64066,119.59272 286.80304,119.32008 287.51404,119.17757L288.44885,118.73674" id="svg_7" stroke-width="3" stroke="#000" fill="none"/>
  <path t="33587,33979,33979,34039,34059,34075,34123,34142,34142,34158,34195,34208,34208,34228,34244,34245,34261,34292,34310,34310,34461,34489,34489,34510,34510,34510,34510,34510,34624,34624,34741,34741,34783,34815,34815,34981,35007,35007,35026,35026,35044,35044,35074,35094,35126,35146,35175,35175,35195,35195,35218,35218,35236,35262,35293,35293,35294,35309,35309,35309,35425,35425,35444,35444,35493,35493,35493,35528,35546,35546,35546,35574,35575,35597,35597,35597,35598,35626,35626,35626,35627,35627,35641,35641,35641,35641,35642,35658,35659,35674,35674,35963,35990,35991,36006,36006,36006,36006,36023,36024,36024,36063,36063,36090,36090,36090,36108,36141,36141,36291,36292,36308,36308,36308,36325,36325,36341,36341,36342,36371,36421,36422,36422,36507,36507,36539,36539,36559,36575,36576,36576,36593,36608,36609,36639,36640,36780,36804,36805,36824,36843,36858,36890,36890,36923,36923,37156,37175" d="M190.01137,122.25758C191.01137,122.25758 191.81137,122.25758 192.71136,122.25758C193.61136,122.25758 194.51781,122.15965 195.42203,122.26824C196.35008,122.3797 197.0032,122.77939 197.9897,123.13625C198.83809,123.44315 198.99416,124.25776 199.01137,125.05758C199.02937,125.89416 199.33,126.72781 199.65869,127.60491C199.98959,128.48795 200.01137,129.35757 200.01137,130.25758C200.01137,131.14291 200.36482,132.23164 199.8447,132.92424C199.42577,133.4821 198.17802,133.25758 197.39136,133.25758C196.4847,133.25758 196.01137,133.25758 195.07469,133.25758C193.8447,133.25758 192.99269,133.25758 191.8447,133.25758C191.1967,133.25758 190.17937,133.25758 189.30153,133.25758C188.49403,133.25758 187.51137,133.25758 186.68987,133.25758C185.8007,133.25758 184.81154,133.25758 184.0322,133.25758C183.03287,133.25758 182.21269,133.25758 181.31137,133.25758C180.44736,133.25758 179.47774,133.39668 178.61136,133.24692C177.77664,133.10262 177.13918,132.43541 176.3587,131.95758C175.67505,131.53903 174.75804,131.17058 174.29803,130.45758C173.77658,129.64934 173.49522,128.72389 172.8447,128.25758C172.2092,127.80206 171.42889,127.33283 170.89537,126.48958C170.45341,125.79104 170.22343,124.94324 169.52736,124.22824C168.91177,123.59592 168.00911,123.18467 167.38603,122.62157C166.66144,121.96674 166.12488,121.49014 165.5807,120.74158C164.98866,119.92715 164.86217,118.91904 164.65421,118.25224C164.4202,117.50188 164.05264,116.56364 163.49052,115.75758C162.88745,114.89279 162.49872,114.5018 162.01137,113.67424C161.64186,113.04678 161.15843,111.93055 160.89803,111.08824C160.76277,110.65078 160.52934,109.741 160.37303,108.80574C160.14304,107.42963 160.12007,106.98027 160.06853,106.12374C160.0202,105.32071 160.01204,104.22958 160.01137,103.30074C160.01067,102.32008 160.00961,101.42424 160.01137,100.63224C160.01363,99.6139 160.20697,98.69135 160.88736,99.02824C161.82387,99.49196 162.37175,99.91428 163.0322,100.25758C163.70839,100.60906 164.66946,101.1087 165.49702,101.49591C166.39351,101.91537 167.21228,102.13039 168.01137,102.25758C169.01256,102.41692 169.82957,102.64116 170.52603,103.05891C171.41714,103.59341 171.97482,104.29884 172.64737,104.85757C173.3,105.39977 174.03009,105.76173 175.01137,106.25758C175.61008,106.56011 176.41136,106.95759 177.41136,107.45758C178.01137,107.75758 179.00764,108.26521 179.60686,108.55308C180.3497,108.90994 181.43427,109.14912 182.17802,109.59091C182.90535,110.02295 183.36348,110.66317 184.41003,111.08958C185.14716,111.38991 185.98387,111.70547 186.60069,112.40691C187.20554,113.09475 188.03847,113.57144 188.41136,114.11891C188.8439,114.75394 189.56267,115.5648 189.88986,116.57891C190.10052,117.23186 189.82025,118.27939 190.09669,119.05624C190.41792,119.95897 191.21591,120.45306 191.81137,121.05758C192.4958,121.75242 192.98277,122.55622 193.01137,123.45758C193.03992,124.35729 193.01137,125.14291 193.01137,126.08291L193.01137,126.77357L192.97537,127.81091L192.3647,128.24692" id="svg_8" stroke-width="3" stroke="#000" fill="none"/>
  <path t="37597,37826,37854,37871,37871,37889,37889,37907,37907,37924,37924,38004,38021,38021,38038" d="M169.01137,115.25758C170.01137,115.25758 170.78178,115.22574 171.66853,114.90491C172.42393,114.6316 173.41823,114.38857 174.17537,114.23225C175.14151,114.03278 175.7424,113.53517 176.66403,113.31024C177.51318,113.103 178.37537,112.81091 179.01137,112.09091L179.4007,111.44291L179.88986,110.50041" id="svg_9" stroke-width="3" stroke="#000" fill="none"/>
  <path t="39684,39772,39842,39842,39842,39844,39844,39844,39844,39857,39858,39858,39858,39858,39858,39858,39858,39858,39875,39875,39875,39875,39875,39875,39875,39875,39875,39892,39892,39892,39892,39892,39892,39892,39892,39892,39907,39908,39908,39908,39908,39908,39908,39908,39908,39925,39925,39925,39925,39925,39925,39925,39926,39926,39955,39955,39955,39955,39955,39955,39955,39956,39956,39979,39979,39979,39979,39979,39979,39979,39980,39991,40007,40007,40024,40042,40042,40042,40057,40057,40075,40075,40100,40101,40101,40101,40101,40101,40101,40112,40112,40112,40112,40112,40112,40113,40113,40113,40126,40127,40127,40127,40127,40127,40127,40127,40128,40143,40143,40143,40143,40143,40144,40144,40144,40144,40159,40159,40159,40159,40176,40176,40176,40176,40193,40193,40194,40194,40194,40194,40194,40209,40209,40210,40210,40210,40210,40210,40226,40227,40227,40227,40227,40227,40243,40244,40244,40244,40244,40244,40259,40260,40260,40276,40307,40307,40308,40326,40326,40356,40357,40357,40375,40375,40376,40376,40376,40376,40397,40397,40398,40442,40443,40443,40443,40443,40443,40459,40459,40459,40459,40460" d="M51.01136,241.25758C51.94453,241.08607 52.6771,240.75577 53.38337,240.39357C53.84293,240.15788 55.07064,239.56276 55.88203,239.20958C56.84047,238.79239 57.96933,238.31468 60.8447,237.25758C62.59674,236.61346 64.54624,235.94891 66.6407,235.25058C68.83415,234.51924 71.09223,233.79138 73.3727,233.08157C75.6263,232.38013 77.80961,231.69238 81.8447,230.59091C83.59772,230.11238 85.18288,229.72726 86.61169,229.4194C87.89266,229.1434 89.05114,228.93266 90.1007,228.77892C91.05278,228.63945 91.9288,228.53757 93.51137,228.42424C94.24587,228.37164 94.95124,228.3399 95.62637,228.31474C96.27126,228.29071 96.88634,228.27658 97.47137,228.26825C98.02634,228.26035 98.55136,228.25826 99.51137,228.25758C99.94703,228.25728 100.3567,228.25758 100.74436,228.25758C101.11403,228.25758 101.4697,228.25758 101.81536,228.25758C102.15503,228.25758 102.4927,228.25758 103.17803,228.25758C103.53287,228.25758 103.8967,228.25758 104.26853,228.25758C104.64736,228.25758 105.0322,228.25758 105.42204,228.25758C105.81586,228.25758 106.2127,228.25758 107.01137,228.25758C107.41087,228.25758 107.80737,228.25758 108.19787,228.25758C108.57936,228.25758 108.94887,228.25758 109.30337,228.25758C109.63986,228.25758 109.95537,228.25758 110.51137,228.25758C110.74686,228.25758 110.95537,228.25758 111.13986,228.25758C111.30337,228.25758 111.44887,228.25758 111.57936,228.25758C111.69787,228.25758 112.11263,228.20979 113.01137,228.25758C113.81477,228.30031 114.63058,228.89262 115.33303,229.35791C116.03709,229.82426 116.71405,230.20824 117.43303,230.80042C118.27749,231.49594 118.8526,232.04947 119.17303,232.30942C120.1617,233.11148 120.90246,233.59203 121.75403,234.07491C122.23636,234.3484 122.78101,234.62889 123.38754,234.9389C124.0649,235.28513 125.67822,236.09055 126.62437,236.56424C127.6489,237.07718 128.72981,237.61937 129.84337,238.18425C130.97049,238.75603 132.08777,239.32759 133.17036,239.89424C134.20236,240.4344 136.01472,241.41844 136.75436,241.85008C137.39833,242.22589 137.95233,242.57179 138.44336,242.87758C138.88634,243.15346 139.29541,243.41122 139.70036,243.63507C140.10355,243.85794 141.00864,244.26497 141.53937,244.45758C142.11253,244.66559 142.72684,244.85925 143.36336,245.05757C144.01083,245.25929 144.66049,245.45403 145.29536,245.65758C145.90848,245.85416 147.48938,246.44336 147.9007,246.65491C148.9254,247.18192 149.39111,247.66876 150.43353,248.01457C151.26253,248.28957 151.96588,248.24484 152.75403,248.25491C154.19708,248.27335 154.75136,248.25758 155.33553,248.25758C156.57387,248.25758 157.21803,248.25758 157.87219,248.25758C158.53137,248.25758 160.48987,248.25758 161.12604,248.25758C161.7542,248.25758 162.37537,248.25758 163.60069,248.25758C164.20686,248.25758 164.81003,248.25758 166.61119,248.25758C167.21004,248.25758 167.80687,248.25758 168.99052,248.25758C169.57536,248.25758 170.72603,248.25758 171.8447,248.25758C172.38953,248.25758 173.44519,248.25758 174.44887,248.25758C174.9287,248.25758 175.83937,248.25758 177.06787,248.25758C177.78354,248.25758 178.68204,248.25758 179.85786,248.25758C180.67802,248.25758 181.42653,248.25758 182.34604,248.25758C183.51137,248.25758 184.14462,248.23438 185.17802,248.25758C185.89056,248.27359 186.65828,248.38861 187.67802,248.75758C188.55928,249.07645 189.02196,249.31079 189.99052,249.77841C190.4763,250.01294 191.42934,250.42548 192.50369,251.11542C193.2507,251.59514 193.69791,252.22231 193.8907,253.46474C193.95494,253.87874 193.99712,254.82143 194.18069,255.83891C194.27634,256.36896 194.31161,256.95605 195.11803,258.41406C195.39096,258.90753 196.13803,259.75357 196.51137,260.15341L197.24803,260.87708" id="svg_10" stroke-width="3" stroke="#000" fill="none"/>
  <path t="41531,41639,41639,41639,41639,41639,41639,41639,41707,41707,41707,41708,41708,41708,41708,41708,41725,41725,41725,41725,41725,41725,41725,41725,41725,41755,41755,41755,41755,41755,41755,41755,41755,41755,41772,41772,41772,41772,41772,41772,41772,41772,41772,41789,41789,41789,41789,41789,41789,41789,41789,41790,41805,41805,41805,41805,41805,41805,41805,41822,41822,41822,41855,41855,41872,41872,41889,41890,41905,41905,41905,41922,41923,41923,41923,41939,41939,41939,41939,41955,41955,41955,41955,41955,41972,41972,41972,41972,41991,41992,41992,42007,42007,42007,42008,42023,42023,42023,42024,42024,42024,42042,42042,42042,42042,42043,42043,42043,42043,42058,42058,42058,42058,42059,42059,42059,42059,42059,42108,42108,42109,42109,42109,42109,42109,42110,42110,42157,42158,42158,42158,42158,42159,42159,42159,42159,42222,42222,42222,42222,42223,42223,42223,42223,42223,42229,42229,42230,42230,42230,42230,42230,42231,42231" d="M63.01136,290.25757C66.09753,289.37173 67.04523,288.83459 67.56603,288.52423C68.11628,288.19632 68.68869,287.84866 69.28653,287.49673C69.90066,287.13522 71.83249,286.06946 72.52737,285.73492C73.26766,285.37854 74.08897,285.02032 75.01137,284.65341C76.04596,284.24185 77.22695,283.80829 78.57536,283.34692C81.83585,282.23135 83.79981,281.62564 85.9367,280.95758C88.19874,280.2504 90.53965,279.53412 92.9072,278.82007C95.24767,278.11417 97.51237,277.43884 99.65269,276.81757C103.34159,275.7468 104.80756,275.34427 106.02203,275.02557C107.00925,274.76651 107.80148,274.57263 108.42803,274.44507C108.91134,274.34665 109.28453,274.28781 109.57403,274.26956C110.01067,274.24207 110.2112,274.25757 110.41003,274.25757C110.60686,274.25757 110.8007,274.25757 110.99053,274.25757C111.17536,274.25757 111.35419,274.25757 111.52603,274.25757C111.8447,274.25757 111.99003,274.25757 112.12737,274.25757C112.2587,274.25757 112.38603,274.25757 112.51137,274.25757C112.6367,274.25757 112.76403,274.25757 112.89536,274.25757C113.17803,274.25757 113.33286,274.25757 113.4967,274.25757C113.66853,274.25757 113.84737,274.25757 114.0322,274.25757C114.22203,274.25757 115.01243,274.22571 115.81136,274.26825C116.61371,274.31097 117.63237,274.56445 118.35419,274.96207C119.15821,275.40497 119.73196,275.99826 120.31586,276.91473C120.66253,277.45886 121.30126,278.48807 121.8687,279.04691C122.27254,279.44464 123.33562,280.11237 123.97936,280.37225C124.65329,280.64435 125.71318,280.93112 126.67803,281.25757C127.52171,281.54303 128.04897,281.78857 128.95003,282.14291C130.09169,282.59186 130.54686,282.74301 131.5127,283.08292C132.01111,283.2583 133.00624,283.58987 134.3447,284.09091C135.07448,284.36411 135.67561,284.62726 136.45053,284.95306C137.42986,285.36478 138.24632,285.66058 138.82204,285.85757C140.00925,286.26379 140.61562,286.45428 141.55302,286.77841C142.22685,287.01141 143.34428,287.42535 144.18469,287.74158C144.63449,287.91083 145.59265,288.26367 146.10469,288.43225C147.18054,288.78647 148.3425,289.10046 148.95503,289.23608C150.23941,289.52048 150.92529,289.62622 151.63637,289.73676C152.37596,289.85175 153.14848,289.95746 153.95537,290.05624C155.6769,290.26697 156.59641,290.3587 157.54604,290.45758C158.51741,290.55875 159.50206,290.65732 160.49052,290.75757C161.47406,290.85733 162.44383,290.95468 163.39003,291.05759C165.17863,291.25211 166.00705,291.35745 166.81003,291.45758C167.61105,291.55746 168.43362,291.66125 169.30302,291.75757C170.24161,291.86154 171.27435,291.96573 172.42603,292.05759C175.17654,292.27701 176.81648,292.3613 178.60736,292.45624C180.51181,292.55719 182.49258,292.64941 184.51137,292.73676C186.52992,292.82407 188.51059,292.90335 190.41536,292.97223C193.84451,293.09622 195.3007,293.14215 196.57404,293.1669C197.67111,293.18823 198.60022,293.19775 199.36552,293.15341C199.97775,293.11795 200.48535,293.11298 200.76202,292.91492C201.09447,292.67694 200.97401,292.35785 200.79137,292.12024C200.56256,291.82257 200.21136,291.54556 199.82387,291.23676L199.39136,290.92291L198.92886,290.61108L198.45137,290.30826" id="svg_11" stroke-width="3" stroke="#000" fill="none"/>
  <path t="42563,42622,42622,42622,42622,42622,42622,42691,42691,42691,42691,42691,42691,42691,42691,42691,42709,42709,42709,42709,42709,42709,42709,42709,42709,42725,42725,42725,42725,42726,42756,42756,42779,42790,42808,42825,42825,42840,42840,42840,42840,42841,42858,42859,42859,42859,42859,42875,42875,42875,42875,42875,42875,42907,42907,42907,42907,42907,42907,42944,42945,42945,42945,42945,42946,42946,42946,42946,42975,42975,42976,42976,42976,42976,42997,42997,42998,42998,42998,42998,43026,43026,43026,43026,43027,43040,43041,43041,43042,43042,43042,43042,43042,43043,43055,43055,43055,43056,43056,43056,43090,43091,43095,43096" d="M243.01137,307.25757C244.99753,306.14975 245.74709,305.46536 246.16603,305.05624C246.6183,304.61456 247.09871,304.14053 248.10204,303.08023C249.1875,301.93314 249.73206,301.31387 250.3007,300.69092C250.88071,300.05551 251.47304,299.41141 252.0947,298.77841C252.72368,298.13797 253.37083,297.50107 254.0687,296.91092C255.47903,295.71826 256.26608,295.20941 257.0567,294.7189C257.83875,294.23373 258.62936,293.79922 259.4072,293.40341C260.151,293.0249 260.86404,292.69177 261.53268,292.40292C262.67224,291.91064 263.13779,291.73883 263.53003,291.59891C263.85712,291.48224 264.56131,291.2789 265.49536,291.25757C266.35849,291.23785 267.37537,291.25757 268.31137,291.25757C269.21136,291.25757 270.11203,291.25757 270.75537,291.25757C271.67804,291.25757 272.73553,291.25757 273.57385,291.25757C274.01804,291.25757 274.93137,291.25757 276.29019,291.25757C277.16321,291.25757 278.0322,291.25757 278.47269,291.25757C279.38071,291.25757 280.85403,291.25607 281.37936,291.25891C282.46207,291.26477 283.01175,291.26794 284.10602,291.31476C284.64362,291.33777 286.17017,291.4733 286.64871,291.54291C287.6051,291.68204 288.60577,291.86972 289.14536,291.96207C289.72043,292.06049 291.01096,292.26059 291.73938,292.35757C292.51492,292.46082 293.32727,292.55826 294.16336,292.65756C295.01126,292.75827 295.85956,292.85611 296.69537,292.95758C297.50754,293.05618 299.01324,293.24573 300.30203,293.45758C300.87823,293.55231 301.41766,293.65274 302.41937,293.85757C303.37497,294.05298 304.34366,294.26306 305.37802,294.45624C305.91168,294.55591 306.99002,294.74014 307.52469,294.82156C308.55707,294.97879 309.51007,295.10562 310.36469,295.17224C311.17706,295.23557 312.03134,295.25104 313.0047,295.25626C314.17801,295.26254 314.86102,295.25906 315.60202,295.25491C316.38904,295.25052 317.21014,295.24106 318.05304,295.21591C318.90619,295.19046 319.75815,295.15793 320.59402,295.08691C322.18066,294.95209 322.90628,294.83054 323.57938,294.68958C324.79492,294.435 325.3277,294.26953 326.26019,293.96292C327.34937,293.6048 328.07819,293.36292 328.88937,292.81476L328.8927,292.07224" id="svg_12" stroke-width="3" stroke="#000" fill="none"/>
  <path t="43900,43955,43955,44024,44024,44024,44055,44055,44072,44072,44072,44072,44088,44088,44088,44088,44088,44106,44106,44106,44106,44122,44122,44122,44138,44138,44138,44156,44172,44172,44172,44188,44188,44188,44188,44188,44205,44205,44205,44205,44205,44272,44272,44272,44272,44272,44272,44290,44290,44290,44291,44291,44291,44291,44291,44322,44322,44322,44323,44323,44341,44341,44357,44357,44357,44357,44374,44374,44374,44374,44390,44390,44390,44390,44390,44407,44407,44407,44426,44426,44426,44426,44427,44440,44440,44440,44440,44457,44457,44458,44458,44459,44475,44475,44490,44491,44508,44508,44542,44542,44574,44574,44574,44590,44590,44590,44590,44591,44591,44607,44607,44607,44608,44608,44624,44624,44624,44640,44640,44640,44657,44657,44657,44658,44677,44677,44677,44678,44678,44678,44693,44693,44693,44693,44694,44710,44710,44710,44711,44711,44726,44727,44727,44727,44727,44742,44743,44743,44743,44744,44744,44744,44744,44744,44757,44757,44757,44757,44758,44758,44758,44758,44758,44781,44781,44781,44782,44782,44782,44782,44783,44783,44797,44797,44798,44798,44798,44824,44826,44843,44874,44896,44898" d="M25.01136,135.25758C28.20153,133.01024 28.75422,132.49953 29.4967,131.77357C30.02842,131.25369 30.5692,130.67741 31.61586,130.01474C32.22446,129.62943 33.17017,129.23538 33.97753,128.96208C34.56856,128.76201 35.57969,128.51414 36.75403,128.37874C37.17829,128.32982 38.06361,128.28903 38.9607,128.19624C39.84523,128.10475 41.07756,127.83913 41.79703,127.55225C42.47918,127.28024 43.06615,126.85394 44.31136,126.50058C45.19267,126.25048 45.81122,126.26824 47.01136,126.25758C47.89783,126.24969 48.70337,126.2569 49.6472,126.25758C50.58736,126.25825 51.37762,126.28375 51.95536,126.34291C53.09885,126.46 54.02388,126.61432 54.5127,126.71491C55.51418,126.92101 56.05066,126.96122 57.3447,127.59091C58.10938,127.96301 58.70528,128.52342 59.2767,129.0789C59.86823,129.65395 60.86917,130.56703 61.27003,130.85757C62.12618,131.47812 62.60712,131.77217 63.6392,132.35757C64.18172,132.6653 65.34288,133.26131 65.95387,133.55725C66.57621,133.8587 67.2078,134.15858 68.49053,134.71591C69.12257,134.99052 69.7459,135.25076 70.35803,135.48691C72.0385,136.13518 72.54711,136.29947 73.47137,136.57491C74.26788,136.81227 74.93998,137.03983 76.15337,137.20041C76.86509,137.2946 78.06737,137.25758 78.71937,137.25758C79.44337,137.25758 80.21536,137.25758 81.41153,137.25758C82.21587,137.25758 83.0322,137.25758 83.86853,137.25758C85.17803,137.25758 86.0927,137.25758 86.55503,137.25758C87.4697,137.25758 88.34437,137.25758 89.51137,137.25758C90.44887,137.25758 91.25137,137.25987 92.3447,137.25758C92.98204,137.25624 93.68515,137.25798 94.4327,137.18558C95.21657,137.10965 96.41618,136.82913 97.21136,136.55225C98.01649,136.2719 98.79437,135.90286 100.01137,135.59091C100.79964,135.38885 101.58916,135.31425 102.33936,135.27892C103.04017,135.24591 104.23936,135.25758 105.15403,135.25758C106.12737,135.25758 106.89536,135.25758 107.84737,135.25758C108.6127,135.25758 109.61137,135.25705 110.41136,135.25758C111.41803,135.25826 112.11685,135.26169 113.03803,135.34291C114.32047,135.45599 114.83427,135.53365 115.9487,135.70424C116.53307,135.79369 117.12729,135.87444 118.2767,136.14424C119.35158,136.39655 120.28079,136.7149 121.0567,137.08292C121.74422,137.409 122.30694,137.79735 123.32736,138.37224C124.00263,138.75269 124.68822,139.07457 125.6967,139.45758C126.52659,139.77277 127.11564,139.95825 128.31186,140.35774C128.92474,140.56242 129.91936,140.89359 130.66736,141.14291C131.51137,141.42426 132.46378,141.74309 132.97386,141.90575C134.03033,142.24263 134.5656,142.41835 135.6447,142.68825C136.67296,142.94542 137.63852,143.10934 138.53937,143.18558C139.3885,143.25743 139.80235,143.25208 141.01137,143.25758C141.81137,143.26123 142.61183,143.25627 143.41136,143.29358C144.21202,143.33093 145.41455,143.4669 146.23836,143.61925C147.13896,143.78578 147.62718,143.90508 148.72336,144.14424C150.01115,144.42522 150.73969,144.58125 151.52203,144.74025C152.34933,144.90839 153.2159,145.07677 154.11552,145.23674C155.03856,145.40088 155.97961,145.55896 156.93404,145.68825C158.8418,145.94669 159.78888,146.02126 160.72203,146.08824C161.64026,146.15416 162.54327,146.19832 163.42802,146.23674C164.2926,146.27428 165.13557,146.30092 165.95403,146.34024C167.51184,146.41507 168.24706,146.47365 168.9527,146.54291C169.63139,146.60953 170.28262,146.6893 170.9072,146.77841C171.50797,146.86414 172.08427,146.95787 172.6367,147.05891C173.6795,147.24965 174.63818,147.45554 175.51804,147.64691C176.31818,147.82094 177.03162,148.01553 178.23804,148.17224C178.92526,148.26151 179.95003,148.25758 180.72737,148.17224L181.01137,147.25758L180.95419,146.44324" id="svg_13" stroke-width="3" stroke="#000" fill="none"/>
  <path t="45363,45455,45455,45524,45524,45525,45525,45525,45525,45525,45540,45540,45540,45540,45540,45540,45540,45540,45540,45557,45557,45557,45557,45557,45557,45574,45574,45605,45622,45638,45638,45638,45655,45655,45655,45655,45672,45672,45672,45672,45691,45691,45691,45708,45708,45708,45708,45708,45708,45724,45724,45724,45740,45740,45740,45775,45775,45775,45840,45840,45841,45841,45841,45841,45841,45893,45893,45893,45893,45893,45893,45894,45945,45946,45946,45946,45946,45946,45996,45996,45996,45996,45997,45997,46048,46048,46048,46048,46049,46072,46072,46072,46073,46073,46091,46091,46091,46091,46091,46108,46108,46109,46124,46124,46125,46141,46141,46157,46157,46174,46174,46174,46190,46191,46191,46191,46207,46207,46207,46207,46224,46224,46224,46255,46255,46275,46276,46276,46291,46291,46291,46292,46308,46309,46309,46325,46325,46327,46328,46328,46341,46341,46341,46341,46357,46357,46358,46358,46374,46374,46374,46375,46390,46390,46391,46391,46391,46407,46407,46426,46426,46458,46475,46475,46476,46476,46488,46488,46489,46523,46523,46541,46541,46541,46542,46557,46557,46557,46574,46574,46574,46575,46590,46590,46591,46607,46607,46608,46638,46638,46672,46672,46672,46691,46692,46692,46708,46709,46709,46725,46725,46725,46726,46741,46741,46741,46742,46742,46742,46757,46757,46758,46758,46774,46774,46775,46805,46805,46805,46824,46840,46841,46858,46858,46859,46875,46875,46875,46891,46891,46892,46892,46907,46908,46908,46909,46909,46909,46925,46925,46926,46926,46926,46955,46955,46955,46956,46974,46975,46975,46975,46991,46992,46993,47010,47010,47027,47028,47028,47043,47072,47073,47106,47106,47107,47107,47125,47126,47143,47143,47144,47144,47162,47162,47163,47163,47188,47188,47189,47189,47207,47208,47208,47209,47210,47210,47228,47228,47229,47229,47229,47230,47230,47248,47248,47250,47250,47250,47251,47251,47252,47252,47275,47275,47276,47276,47276,47277,47277,47277,47278" d="M6.01136,114.25758C7.66853,114.47258 8.27824,113.9539 9.01136,112.75758C9.22923,112.40206 9.63103,111.55986 9.85403,111.08558C10.35913,110.01134 10.63611,109.3992 10.9527,108.74158C11.66918,107.25328 12.09462,106.42918 12.5447,105.55758C13.01122,104.65414 13.49224,103.73803 13.9697,102.82008C14.43889,101.91802 14.89353,101.04866 15.3047,100.21758C16.02396,98.76374 16.29115,98.15479 16.49936,97.62691C16.67586,97.17946 16.84919,96.80331 16.94736,96.18958C17.09154,95.28828 17.01136,94.45891 17.01136,93.55758C17.01136,92.58558 16.99656,91.71421 17.02203,90.98558C17.05132,90.1478 17.21219,88.9522 17.37303,88.35307C17.6256,87.41227 17.88486,86.76662 18.33253,85.73641C18.65023,85.00529 19.01167,84.28729 19.30153,83.56741C19.80611,82.31427 19.88065,81.74649 20.09803,80.93491C20.46184,79.57667 20.66683,79.16871 21.06936,78.25141C21.28286,77.7649 21.73776,76.79601 21.95337,76.32541C22.51764,75.09377 22.84833,74.23545 23.0927,73.29358C23.30142,72.48911 23.50123,71.71224 23.89803,70.94025C24.43198,69.90141 24.86539,69.45873 25.5302,68.69057C26.34068,67.75409 26.65367,67.39252 27.3302,66.59058C27.69357,66.15985 28.06533,65.70834 28.87753,64.80125C29.29502,64.33498 30.15975,63.40463 31.09803,62.54824C31.56415,62.12281 32.04598,61.71975 32.55303,61.36174C33.5504,60.65754 34.06903,60.32809 35.17803,59.92424C36.27152,59.52604 36.86045,59.45444 38.01136,59.34091C38.58469,59.28436 39.15863,59.26658 40.8447,59.25758C41.38969,59.25467 42.4497,59.25758 42.9647,59.25758C43.9647,59.25758 44.9247,59.25479 45.8447,59.25758C46.72604,59.26024 47.5827,59.25217 48.4007,59.40158C49.22018,59.55126 50.42162,60.12756 50.8087,60.39758C51.61335,60.95888 52.34823,61.65551 52.69703,62.01841C53.70425,63.06633 54.24638,63.76652 54.73936,64.41091C55.19532,65.0069 55.5831,65.59197 56.41137,66.57224C56.79963,67.03176 57.41734,67.64719 58.21103,68.45758C58.79445,69.05328 59.39233,69.60856 59.7687,70.45741C60.09954,71.20359 60.44217,72.2499 61.0322,72.75758C61.82889,73.44305 62.25139,73.92761 62.8212,74.71925C63.33418,75.43193 64.0207,76.21519 64.5322,76.77841C65.06268,77.36254 65.85342,78.25067 66.3247,78.85491C66.77309,79.42979 67.1409,80.00329 67.8447,80.92424C68.36866,81.60988 68.89503,82.14057 69.66403,82.91024C70.18581,83.43247 70.9549,84.2791 71.57387,84.75758C72.12256,85.18172 72.99243,85.58838 73.72203,85.90575C74.50691,86.24716 75.28791,86.58528 76.3447,86.92424C77.2997,87.23055 78.14838,87.33418 78.9972,87.47891C79.73645,87.60497 80.57285,87.76392 81.4722,87.90491C81.93087,87.97681 83.28882,88.14915 84.1497,88.20041C84.96905,88.24919 85.74969,88.25776 86.8447,88.25758C87.8587,88.25741 88.514,88.26885 89.49536,88.17224C90.53677,88.06972 91.27526,87.91592 92.0322,87.69508C92.82372,87.46413 94.02164,86.94255 94.80737,86.48958C95.20325,86.26134 95.95777,85.76978 96.63986,85.26291C97.52318,84.60651 98.21028,83.77892 99.01137,83.42424C99.75833,83.09353 100.74445,83.19663 101.51137,82.75758C102.40173,82.24785 103.01638,81.7434 103.65337,81.25841C104.51827,80.59988 105.12209,80.04371 105.75503,79.56657C106.4742,79.02443 107.24881,78.63566 108.17803,78.25758C108.9612,77.93893 109.53106,77.75422 110.4127,77.45758C111.61118,77.05434 112.21317,76.8325 113.16853,76.61475C114.17016,76.38644 114.89374,76.33788 115.62603,76.28291C116.34976,76.22859 117.69118,76.14055 118.49703,75.90041C119.20422,75.68968 120.2025,75.13861 120.81136,74.86824C121.60067,74.51775 122.61472,74.29041 123.46853,74.26208C124.43234,74.23009 125.24737,74.25758 126.11587,74.25758C127.01137,74.25758 127.90687,74.25758 128.77536,74.25758C129.8447,74.25758 130.5632,74.25758 131.27271,74.25758C132.3447,74.25758 133.3302,74.25758 134.07387,74.25758C134.87753,74.25758 136.17802,74.25758 136.63269,74.25758C137.56403,74.25758 138.51137,74.25758 138.98604,74.25758C139.92737,74.25758 141.2896,74.25121 142.1452,74.26208C142.94897,74.27228 143.70557,74.23386 144.96854,74.47891C145.76143,74.63275 146.44815,74.95946 147.43236,75.13625C148.2088,75.27571 149.06615,75.08459 149.9247,75.69358C150.74757,76.27727 151.254,76.86359 152.01137,77.42424C152.6297,77.88197 153.14105,78.52794 154.2117,79.01491C154.80338,79.28403 155.79318,79.3924 156.65453,79.70058C157.34009,79.94586 158.07347,80.30012 158.87753,80.66658C160.17738,81.259 160.63022,81.46326 161.56403,81.85307C162.03548,82.04987 162.98413,82.42668 163.45869,82.60041C164.83932,83.10583 165.72534,83.37151 166.5647,83.63224C167.36531,83.88094 168.14198,84.10165 169.19003,84.57908C169.87091,84.88924 170.51129,85.27855 171.16403,85.66208C172.1779,86.25779 172.88857,86.66284 173.61537,87.03625C174.31017,87.3932 175.51187,87.92283 176.14436,88.15224C176.89331,88.4239 177.66054,88.97688 178.22203,89.44291C179.19759,90.2526 179.77164,90.67664 180.52603,90.97091C181.48207,91.34383 182.33434,91.47597 183.05302,91.77841C184.18008,92.25271 184.68858,92.47678 185.51137,92.73674C186.32121,92.99261 187.32907,93.16024 188.23669,93.28291C189.17999,93.41041 189.9744,93.61007 190.85803,93.86824C191.49902,94.05552 192.53215,94.35957 193.26404,94.55758C194.01082,94.75961 194.76202,94.94586 196.1902,95.35757C196.86482,95.55206 197.53008,95.76502 198.22119,95.95758C199.34138,96.26968 200.18231,96.46247 201.09402,96.65758C201.57332,96.76015 202.57716,96.95953 203.09937,97.05758C204.73241,97.36419 205.30286,97.45728 205.88654,97.57108C207.11732,97.81103 207.76753,97.9595 208.44453,98.12907C209.15567,98.30721 210.67972,98.75237 211.49753,99.02158C212.35585,99.30412 213.24399,99.61717 214.16603,99.93358C215.11496,100.25922 216.08748,100.58967 217.08653,100.89957C218.09952,101.21381 220.1752,101.77061 221.23154,101.99308C222.28337,102.21459 223.33145,102.39304 224.36203,102.54958C225.36452,102.70185 226.33403,102.82558 227.25853,102.94408L228.13004,103.05357" id="svg_14" stroke-width="3" stroke="#000" fill="none"/>
  <path t="48013,48089,48089,48112,48112,48112,48112,48126,48126,48126,48126,48126,48126,48126,48142,48142,48143,48143,48174,48174,48174,48174,48192,48192,48192,48192,48209,48209,48209,48209,48225,48225,48225,48225,48241,48241,48241,48241,48258,48275,48307,48307,48326,48326,48341,48342,48358,48358,48375,48375,48396,48396,48396,48459,48460,48460,48460,48460,48460,48460,48481,48481,48482,48484,48484,48484,48484,48484,48484,48508,48508,48508,48525,48526,48526,48526,48541,48542,48542,48542,48558,48558,48575,48575,48575,48597,48597,48597,48598,48609,48610,48641,48642,48642,48659,48659,48659,48659,48659,48710,48711,48711,48711,48727,48727,48728,48728,48728,48728,48728,48728,48743,48743,48744,48744,48744,48759,48760,48777,48777,48777,48777,48793,48793,48793,48810,48810,48810,48840,48841,48841,48860,48860,48877,48877,48878,48893,48893,48910,48910,48910,48910" d="M288.01135,114.25758C289.86868,114.25758 290.53021,114.25758 291.65488,114.25758C292.3392,114.25758 293.11554,114.25758 293.99185,114.25758C295.51135,114.25758 296.07504,114.25758 296.66071,114.25758C297.86603,114.25758 298.4697,114.25758 299.06335,114.25758C300.18869,114.25758 301.60449,114.26772 302.33902,114.25307C303.26636,114.23459 303.86328,114.1904 304.87537,114.03608C305.67166,113.91466 306.51471,113.75149 307.35336,113.55308C308.51636,113.27794 309.17831,113.10102 309.99054,112.71591C310.80084,112.33171 311.66061,111.72411 312.31219,111.24774C312.99777,110.7465 313.68521,110.24407 314.51135,109.42424C314.97821,108.96095 315.48767,108.24661 315.8927,107.48824C316.35321,106.62598 316.65955,105.96124 317.15002,104.98024C317.44202,104.39624 317.98041,103.31049 318.5322,102.73674C319.198,102.04446 319.76093,101.38211 319.9632,100.60041C320.15457,99.86092 320.55243,98.83578 321.0322,98.27841C321.80127,97.38495 322.30368,96.78551 323.11169,96.37875C323.78198,96.04131 324.78088,95.68137 325.30469,95.39624C326.22818,94.89354 327.34134,94.41434 327.75519,94.27891C328.64148,93.98888 329.65656,93.75464 330.21271,93.63224C330.80551,93.50178 331.44052,93.37265 332.8447,93.09091C333.61728,92.9359 334.42596,92.77463 335.25668,92.60941C336.09531,92.44263 336.92792,92.27774 337.74069,92.11891C338.51926,91.96677 339.24585,91.80328 341.01837,91.50074C341.80862,91.36585 342.63153,91.26518 343.7757,91.47924C344.38385,91.59302 345.06195,91.77212 345.7677,92.01924C347.20987,92.52423 347.85516,92.89342 348.44885,93.25758C349.25357,93.75117 350.11472,94.30917 350.59003,94.91891C351.21976,95.72673 351.41949,96.52671 351.71136,97.36658C352.01996,98.25462 352.3071,99.15456 352.51135,99.73674C352.80524,100.57442 353.1698,101.592 353.61136,102.41091C354.0697,103.26093 354.57294,103.82806 354.98203,104.48291C355.58383,105.44624 356.01718,106.32065 356.26202,106.78424C356.76172,107.73038 356.9794,108.20918 357.67804,109.42424C358.03525,110.0455 358.57965,110.77271 359.04538,111.22091C359.98209,112.12234 360.43878,112.46548 360.91803,112.87891C361.98267,113.7973 362.55206,114.27957 363.13138,114.76691C363.70871,115.25257 364.27237,115.72994 365.3447,116.59091C365.82254,116.97456 366.67053,117.6287 367.38635,118.15341C367.97644,118.58597 368.86691,119.23843 369.51135,119.75758C370.34244,120.42707 371.0174,120.91592 371.5322,121.25758C372.32294,121.78236 373.31799,122.39037 374.01135,122.73674C374.68674,123.07413 375.69507,123.45838 376.51135,123.75758C377.0585,123.95812 378.12012,124.29926 378.9697,124.77841C379.54803,125.10459 380.24887,125.92147 380.76404,126.66208C381.32233,127.46468 381.7934,128.10419 382.41586,128.54324C383.34424,129.19807 384.24738,129.27225 385.17804,129.42424L385.96402,129.61925L386.78604,129.90424L387.32736,130.14424" id="svg_15" stroke-width="3" stroke="#000" fill="none"/>
  <path t="49566,49675,49675,49692,49692,49692,49692,49692,49692,49692,49709,49709,49709,49709,49709,49709,49709,49709,49709,49781,49781,49781,49781,49781,49781,49781,49832,49832,49832,49832,49832,49832,49892,49892,49893,49893,49945,49945,49945,49945,49946,49946,49999,49999,49999,49999,49999,49999,49999,49999,50059,50059,50059,50059,50060,50060,50128,50128,50128,50128,50128,50129,50129,50129,50191,50192,50192,50192,50192,50192,50192,50192,50192,50261,50261,50261,50261,50261,50261,50262,50262,50262,50290,50290,50291,50291,50291,50291,50291" d="M423.01135,122.25758C424.11554,123.15341 424.89261,122.95481 425.87671,122.37125C426.28403,122.12971 427.17303,121.49271 427.67804,121.13258C428.22372,120.74342 428.80768,120.32091 429.44202,119.88158C430.8381,118.91467 431.6149,118.41119 432.42871,117.89491C433.26285,117.36574 434.11356,116.8443 434.9697,116.34091C435.80963,115.84704 436.62686,115.37866 437.42068,114.96691C438.83292,114.2344 439.45685,113.97446 440.01804,113.76691C440.52087,113.58093 440.98743,113.43492 441.8447,113.24958C442.24969,113.16203 443.51431,112.93592 444.46204,112.68958C444.96652,112.55844 445.9903,112.25676 446.49936,112.10825C447.47357,111.82402 448.72113,111.47024 449.40521,111.37191C450.34363,111.23702 451.03268,111.25618 452.3187,111.25791C452.8367,111.25861 453.98087,111.27439 454.5947,111.29924C455.22891,111.32491 455.88379,111.31564 457.8447,111.59091C458.49274,111.68188 459.12796,111.81863 459.75421,111.96741C460.99454,112.26206 461.60068,112.44299 462.20688,112.60941C462.81,112.77499 464.61102,113.23731 465.21002,113.37624C465.80667,113.51464 466.99252,113.79195 467.57538,113.95491C468.15628,114.11733 469.85043,114.74606 470.39035,115.02191C470.93607,115.30072 472.00818,115.95361 472.55304,116.29924C473.10956,116.65225 473.67273,117.02322 474.26602,117.37624C475.49994,118.11046 476.17181,118.4463 476.87402,118.77091C477.60046,119.10673 478.36877,119.42152 479.17804,119.71591C480.01944,120.02199 480.90628,120.31135 481.84204,120.57091C483.83582,121.12395 484.91534,121.34303 486.02203,121.56958C487.14169,121.79879 488.2626,122.00466 489.36554,122.19508C490.43198,122.37919 491.44733,122.54227 492.39404,122.68558C494.01044,122.93027 494.6521,123.01653 495.17935,123.08558C495.59814,123.14043 495.91537,123.17491 496.13635,123.19508L496.28336,123.16958" id="svg_16" stroke-width="3" stroke="#000" fill="none"/>
 </g>
</svg>