<svg width="500" height="334.26183844011143" xmlns="http://www.w3.org/2000/svg" xmlns:svg="http://www.w3.org/2000/svg" xmlns:xlink="http://www.w3.org/1999/xlink">
 <!-- Created with SVG-edit - http://svg-edit.googlecode.com/ -->
 <g display="inline" class="layer">
  <title>Layer 1</title>
  <path t="0,200,308,324,324,376,397,403,403,428,436,493,501,532,540,547,571,579,654,654,674,674,682,694,702,708,716,716,790,791,804,812,844,859,874,882,894,924,940,948,956,964,964,972,980,988,1004,1017,1021,1034,1042,1066,1082,1094,1108,1116,1116,1124,1164,1164,1179,1186,1197,1204,1220,1220,1228,1243,1251,1251,1283,1293,1301,1301,1317,1317,1325,1331,1338,1346,1362,1374,1378,1397,1412,1420,1429,1436,1453,1453,1461,1461,1469,1481,1500,1522,1546,1546,1554,1562,1578,1578,1590,1625,1629,1645,1653,1669,1669,1677,1677,1685,1685,1701,1708,1773,1773,1786,1797,1812,1820,1820,1844,1883,1883,1909,1925,1925,1949,1964,1997,1997,2034,2044,2069,2077,2108,2108,2187,2227,2242,2283,2283,2339,2358,2373,2373,2389,2427,2435,2435,2443,2467,2483,2501,2532,2605,2610,2610,2642,2683,2706,2706,2723,2764,2764,2797,2806,2811,2819,2827,2855,2859,2867,2867,2877,2885,2885,2893,2893,2901,2906,2923,2923,2931,2955,2955,2979,3013,3021,3045,3045,3067,3107,3116,3116,3148,3148,3204,3204,3212,3212,3228,3228,3250,3258,3258,3274,3290,3308,3324,3324,3332,3348,3372,3372,3397,3405,3444,3444,3452,3452,3501,3502,3556,3597,3597,3605,3605,3634,3634,3642,3666,3666,3720,3720,3732,3732,3748,3748,3764,3772,3788,3797,3811,3811,3844,3844,3868,3876,3916,3916,3972,3972,4005,4005,4011,4052,4052,4060,4115,4123,4147,4147,4179,4187,4187,4243,4243,4275,4308,4309,4330,4346,4346,4412,4417,4427,4427,4443,4455,4455,4475,4530,4530,4554,4562,4586,4605,4605,4612,4612,4629,4676,4676,4709,4724,4748,4748,4795,4819,4819,4835,4851,4859,4859,4883,4883,4901,4923,4931,4963,4995,4995,5013,5013,5035,5059,5059,5075,5091,5091,5099,5151,5151,5193,5219,5219,5260,5268,5268,5315,5315,5339,5339,5355,5364,5388,5388,5434,5434,5441,5465,5481,5485,5497,5524,5524,5556,5573,5593,5597,5636,5674,5674,5682,5690,5708,5716,5716,5732,5756,5770,5786,5790,5798,5805,5828,5828,5836,5844,5844,5868,5884,5909,5924,5924,5932,5948,5964,5980,5980,5996,6029,6037,6054,6054,6062,6074,6082,6116,6116,6124,6132,6156,6164,6172,6172,6188,6205,6213,6214,6235,6243,6243,6251,6291,6299,6324,6324,6340,6340,6355,6363,6379,6379,6395,6428,6428,6428,6436,6459,6473,6473,6485,6489,6508,6509,6524,6524,6540,6548,6562,6578,6578,6595,6613,6613,6645,6645,6669,6685,6685,6693,6717,6725,6725,6741,6757,6765,6781,6797,6805,6813,6828,6860,6860,6908,6916,6949,6957,6957,6973,6989,6989,7013,7035,7035,7059,7091,7133,7133,7141,7165,7181,7181,7189,7189,7197,7213,7221,7229,7237,7245,7253,7261,7269,7277,7277,7293,7309,7317,7333,7341,7357,7365,7381,7405,7437,7453,7519,7519,7586,7613,7619" d="M177.00189,88.02486C179.50189,88.02486 180.36357,88.02486 181.32323,88.02486C182.00189,88.02486 183.00369,88.23286 183.95374,88.02036C184.76959,87.83788 185.36328,87.33453 186.24474,86.72936C187.01039,86.2037 187.83524,86.02486 188.70723,86.02486C189.66856,86.02486 190.47736,86.10066 191.3019,85.6722C192.15126,85.23082 192.9272,85.04087 193.70723,84.6722C194.44176,84.32502 195.3356,84.04923 196.15123,84.02486C197.10851,83.99627 197.90269,83.68829 198.75906,83.14619C199.40813,82.73532 200.1599,82.12785 201.00189,82.04569C201.97598,81.95065 202.80057,82.02486 203.7019,82.02486C204.6019,82.02486 205.48106,82.02486 206.35907,82.02486C207.29739,82.02486 208.17123,82.02486 209.00189,82.02486C209.94057,82.02486 210.83524,82.02486 211.70639,82.02486C212.52274,82.02486 213.4859,82.02486 214.34923,82.02486C215.24474,82.02486 216.20056,82.02486 217.06323,82.02486C217.86324,82.02486 218.83524,82.02486 219.71523,82.02486C220.61256,82.02486 221.48106,82.02486 222.35907,82.02486C223.3019,82.02486 224.2019,82.02486 225.1019,82.02486C226.00189,82.02486 226.8019,82.02486 227.71657,82.02486C228.5699,82.02486 229.4339,82.02486 230.35907,82.02486C231.3019,82.02486 232.20056,82.02486 233.05457,82.02486C234.00189,82.02486 234.75906,82.02486 235.65007,82.02486C236.66856,82.02486 237.44456,82.02486 238.29657,82.02486C239.28723,82.02486 240.2019,82.02486 241.10207,82.02486C241.88724,82.02486 242.82722,82.02486 243.5179,82.02486C244.59123,82.02486 245.50189,82.02486 246.4019,82.02486C247.29739,82.02486 248.17256,82.02486 249.00189,82.02486C249.96024,82.02486 250.80324,82.02486 251.7019,82.02486C252.6019,82.02486 253.50189,82.02486 254.39124,82.02486C255.2899,82.02486 255.97389,82.02486 257.00272,82.02486C257.71524,82.02486 258.83038,82.02486 259.7179,82.02486C260.61255,82.02486 261.43527,81.95428 262.32306,82.24619C263.1691,82.52437 263.99442,82.91827 264.76355,83.08203C265.6817,83.27753 266.31677,83.80847 267.37656,83.98886C268.31033,84.1478 269.08917,83.83399 269.89206,84.37753C270.58319,84.84541 271.34225,85.20653 272.00189,85.54569C273.01312,86.06564 273.55417,86.66526 274.20322,87.22353C274.85281,87.78225 275.90359,87.7701 276.66858,88.19153C277.49435,88.64645 278.42639,88.5043 278.99289,89.13919C279.58289,89.80042 279.27747,90.92771 280.16855,91.02486C280.97653,91.11295 281.68994,91.50722 282.44473,91.90353C283.11481,92.25537 284.03882,92.46063 285.00189,92.85819C285.66608,93.13238 286.64175,92.98862 287.41257,93.46086C288.21683,93.95359 288.75052,94.57108 289.75906,94.90336C290.4935,95.14533 291.41022,94.89664 292.39124,95.02486C293.24506,95.13647 293.77179,95.87668 294.7019,96.02036C295.59137,96.15776 296.48105,96.02486 297.44455,96.02486C298.15125,96.02486 299.19208,96.2042 300.02274,96.00403C300.92953,95.78551 301.53775,95.3654 302.48105,95.02486C303.32138,94.7215 304.13513,94.23682 304.80191,93.94086C305.65967,93.56012 306.49707,93.2289 307.20056,92.73952C307.9852,92.19371 308.01331,91.19617 308.70724,91.01586C309.68921,90.76072 309.35123,89.7344 310.04355,89.06653C310.63422,88.4967 311.98029,89.43218 312.64023,88.9677C313.37424,88.4511 313.73361,88.14298 314.51923,87.93953C315.53317,87.67694 316.19757,87.06757 317.11172,87.02486C318.00092,86.98332 318.89206,87.02486 319.70639,87.02486C320.63791,87.02486 321.49994,86.91723 322.34924,87.08203C323.27496,87.26166 323.98962,87.93336 324.75906,88.02036C325.82059,88.14039 326.60101,87.95766 327.46024,88.52486C328.20499,89.01649 328.67444,89.77359 329.35373,90.31953C330.07983,90.9031 331.09753,90.77956 331.80191,91.19553C332.57672,91.65309 332.7894,92.72883 333.35907,93.38203C333.9566,94.06717 334.60855,94.60435 334.97656,95.42486C335.32758,96.20747 335.81909,97.02973 336.05457,97.78203C336.33542,98.67924 336.82999,99.42765 337.00189,100.35819C337.12701,101.03549 337.43347,102.01599 338.00189,102.50403C338.74478,103.14185 339.00055,103.91019 339.00189,104.8502C339.00333,105.85819 338.99661,106.63536 339.42722,107.42486C339.87607,108.24777 340.40796,108.7907 341.10175,109.46753C341.58432,109.9383 341.96762,110.97204 342.52274,111.54569C343.19,112.23525 343.841,112.79512 343.99741,113.72486C344.13364,114.53471 344.25089,115.52717 344.61255,116.19953C345.05823,117.02812 345.7908,117.61313 346.00208,118.46753C346.20706,119.29646 346.63565,119.9129 347.20056,120.59553C347.6763,121.17042 347.92224,122.2207 347.98105,123.02486C348.05399,124.02242 347.66492,124.85979 348.00458,125.85686C348.30417,126.73634 349.13617,126.952 349.66858,127.85819C350.09979,128.59213 350.00189,129.51019 350.00189,130.42937C350.00189,131.42352 350.00189,132.18886 350.00189,133.13953C350.00189,134.02486 349.89514,134.95493 350.05905,135.78653C350.23978,136.70335 350.82318,137.27164 351.00189,138.3582C351.13431,139.16338 351.00134,140.07303 351.00189,140.84369C351.00256,141.79153 350.65994,142.63081 351.22339,143.66069C351.60071,144.35034 352.45749,144.85733 352.71655,145.54219C353.07663,146.494 352.97476,147.50809 353.00189,148.16353C353.04459,149.19551 353.42752,149.87538 353.88055,150.7822C354.28616,151.59406 354.72128,152.17046 354.94473,153.2677C355.11621,154.10966 355.04568,154.92647 355.42722,155.83952C355.68985,156.468 356.00189,157.4502 356.00189,158.3582C356.00189,159.17419 356.00189,160.19153 356.00189,161.02486C356.00189,161.78203 356.00253,162.83952 356.00189,163.69153C356.00122,164.59419 356.05157,165.41957 355.64923,166.2677C355.26483,167.078 355.00256,167.82486 355.00189,168.73953C355.00116,169.73019 355.00189,170.45686 355.00189,171.46086C355.00189,172.32036 355.14252,173.29439 354.78058,174.12503C354.46777,174.84288 354.03168,175.67157 354.00323,176.45552C353.96716,177.44954 354.00189,178.3582 354.00189,179.17419C354.00189,180.13919 353.85233,180.92593 354.16855,181.8582C354.44449,182.67175 354.96405,183.43561 355.00208,184.34602C355.03622,185.1636 355.5293,185.6283 356.39124,186.04619C357.07346,186.37695 356.78876,187.62161 357.44455,188.2462C358.01669,188.79111 358.9805,189.04494 359.00189,189.87553C359.0271,190.85387 359.8092,190.94629 360.28723,191.59419C360.70081,192.15475 361.28171,193.08565 361.64474,193.72037C362.14883,194.60168 362.1983,195.55974 362.61255,196.16353C363.18948,197.00443 364.0368,197.35443 364.80191,197.74086C365.59451,198.14117 365.73309,198.66431 366.08722,199.45686C366.46039,200.29202 367.38177,200.68767 367.71655,201.45686C368.10464,202.34853 368.00177,203.34619 368.00189,204.02486C368.00208,205.00352 368.0498,205.82509 368.70724,206.67303C369.11264,207.19589 369.96585,207.96118 370.00189,208.78653C370.04056,209.6722 369.87827,210.49072 370.22324,211.46753C370.48633,212.21251 370.99661,213.00919 371.61255,213.63553C372.19693,214.22978 372.80185,214.82491 373.50189,215.52486C374.10187,216.12474 374.65482,216.83223 375.6019,217.01419C376.46533,217.18008 377.44455,217.02478 378.29657,217.02486C379.22339,217.02495 380.05273,217.32571 380.7019,217.6722C381.55127,218.12553 382.50189,218.02486 383.41257,218.02486C384.32306,218.02486 385.14056,218.02486 386.05005,218.02486C387.00189,218.02486 387.87283,217.97931 388.56989,218.59286C389.02847,218.99652 389.7326,219.90208 390.57657,220.02486C391.4357,220.14984 392.19562,219.89633 393.24472,220.02936C394.12177,220.14056 394.44849,221.01624 395.11172,221.66769C395.69086,222.23653 396.65326,222.3373 397.33524,223.02486C397.7912,223.48454 398.77875,223.88031 399.42722,224.4502C400.08398,225.0274 400.84219,225.50325 401.51923,225.74086C402.53024,226.09567 403.37772,226.36617 403.88074,227.12469C404.35764,227.84384 405.07874,227.66939 406.01657,228.06087C406.7579,228.37033 407.68481,228.84648 408.00223,229.46753C408.32547,230.10001 408.70218,230.96759 409.66858,231.02486C410.43655,231.07036 411.46805,230.88954 412.2019,231.3102C412.88846,231.70375 413.41782,232.69815 414.3064,232.9677C415.13324,233.21852 416.00446,232.82343 416.95123,233.03552C417.76276,233.21732 418.36923,233.87698 418.98056,234.58887C419.39703,235.07385 420.22781,235.51289 421.10205,235.90353C421.7226,236.1808 422.64081,236.41234 423.34924,236.6722C424.34894,237.03889 425.37347,236.79842 426.16855,237.19153C426.81516,237.51123 427.7103,237.91931 428.44473,238.46753C428.91312,238.81714 429.42422,239.68457 430.46024,239.9832C431.32504,240.23248 432.1499,240.39226 432.80191,240.74086C433.64929,241.19392 434.48563,241.61604 435.32306,241.9037C436.11526,242.17583 436.66049,242.68457 437.10724,243.31953C437.67004,244.11946 438.78189,243.99083 439.44858,244.46086C440.19604,244.98785 440.81302,245.42105 441.75922,245.90353C442.56827,246.31609 443.21423,246.59488 444.11658,247.22353C444.71652,247.64149 445.54321,247.963 446.48456,248.30887C447.15805,248.55632 448.0744,248.85779 448.85257,249.04619C449.82413,249.2814 449.69684,250.46843 450.4379,250.95287C451.1636,251.42726 452.20056,251.02486 453.11172,251.02486C454.00189,251.02486 454.95123,251.02486 455.70724,251.02486C456.66858,251.02486 457.56989,251.02486 458.4339,251.02486C459.35907,251.02486 460.2019,251.02486 461.1019,251.02486C462.00189,251.02486 462.81787,250.89885 463.75906,251.08203C464.68188,251.26164 465.27771,251.74197 465.96024,252.50403C466.43472,253.03381 467.15125,253.02486 468.17258,253.02486C469.02274,253.02486 470.01752,252.85182 470.80057,253.1102C471.57428,253.36549 472.32574,253.90852 473.32324,254.2462C474.01813,254.48143 474.87253,254.74434 475.69739,255.07753C476.53406,255.4155 477.17264,256.01605 478.00189,256.02487C478.9812,256.03528 479.54895,256.77179 480.40189,256.98886C481.27042,257.2099 482.17123,257.02481 483.02274,257.02487C483.98041,257.02496 484.78238,257.13986 485.56589,257.59952C486.34219,258.05493 487.20056,258.02487 488.11624,258.02487C489.00189,258.02487 489.89206,258.02487 490.70639,258.02487C491.6019,258.02487 492.56589,258.02487 493.4379,258.02487C494.3064,258.02487 495.32306,258.02487 495.98105,258.02487L497.02322,258.02487L497.85257,258.02487L498.83124,258.02487" id="svg_1" stroke-width="3" stroke="#000" fill="none"/>
  <path t="9135,9255,9363,9363,9412,9412,9436,9436,9452,9468,9484,9579,9587,9613,9698,9709,9724,9851,9851,9865,9909,9964,9964,9969,9981,9985,9989,10013,10020,10028,10081,10101,10101,10109,10243,10257,10289,10340,10348,10356,10364,10372,10435,10435,10466,10482,10490,10509,10509,10568,10577,10613,10613,10620,10636,10636,10652,10652,10720,10753,10765,10835,10835,10853,10857,10865,10881,10955,10963,10963,10979,10979,10995,11003,11003,11014,11028,11058,11058,11066,11082,11090,11109,11222,11324,11324,11348,11356,11364,11372,11396,11413,11413,11464,11464,11517,11517,11623,11623,11636,11636,11644,11660,11676,11676,11676,11700,11737,11737,11761,11761,11769,11785,11793,11797,11813,11859,11916,11932,11996,11996,12043,12075,12094,12094,12110,12148,12164,12180,12180,12188,12188,12277,12277,12293,12524,12562,12578,12755,12839,12850,12882,12890,12898,12906,12940,12940,12956,12964,12980,12988,12996,13004,13020,13021,13027,13035,13043,13059,13117,13125,13155,13187,13194,13205,13213,13221,13236,13260,13260,13300,13324,13325,13348,13356,13364,13364,13372,13388,13388,13435,13460,13460,13468,13476,13484,13484,13492,13501,13501,13509,13517,13518,13555,13563,13579,13587,13587,13603,13615,13622,13629,13653,13661,13668,13731,13731,13746,13762,13797,13797,13805,13813,13829,13830,13836,13844,13852,13860,13868,13868,13884,13884,13904,13904,13925,13948,13948,13979,14031,14031,14052,14084,14100,14116,14125,14141,14149,14157,14165,14173,14181,14221,14221,14244,14244,14268,14276,14285,14293,14293,14301,14338,14354,14354,14370,14382,14398,14421,14422,14438,14458,14466,14474,14506,14514,14525,14539,14551,14555,14555,14567,14571,14579,14603,14615,14615,14632,14632,14635,14646,14662,14674,14682,14718,14718,14733,14733,14747,14755,14755,14781,14795,14844,14844,14859,14875,14875,14917,15012,15012,15036,15052,15076,15182,15182,15212,15260,15282,15290,15315,15326,15340,15340,15362,15389,15397,15436,15444,15460,15468,15492,15492,15533,15548,15548,15564,15580,15596,15621,15651,15709,15709,15733,15733,15780,15780,15818,15829,15844,15844,15860,15886,15890,15890,15917,15933,15948,15956,15964,15964,16004,16004,16004,16029,16036,16036,16044,16052,16060,16068,16092,16100,16125,16133,16134,16171,16171,16203,16217,16221,16229,16260,16301,16309,16333,16333,16340,16348,16348,16356,16372,16372,16388,16411,16411,16419,16444,16444,16461,16484,16484,16506,16506,16525,16526,16541,16541,16565,16604,16612,16637,16667,16667,16691,16698,16725,16726,16733,16741,16749,16757,16773,16781,16789,16789,16794,16806,16829,16837,16837,16853,16860,16860,16892,16892,17039,17067,17075,17083,17095,17095,17099,17132,17148,17164,17172,17196,17196,17212,17229,17236,17243,17259,17275,17283,17299,17299,17315,17332,17339,17347,17355,17379,17419,17419,17492,17513,17556,17580,17596,17621,17629,17651,17697,17701,17739,17747,17755,17755,17779,17779,17817,17817,17828,17829,17868,17940,17940,18002,18059,18081,18085,18122,18122,18156,18187,18201,18293,18293,18341,18356,18356,18407,18428,18457,18485,18485,18497,18509,18525,18540,18570,18578,18602,18622,18650,18689,18693,18697,18717,18725,18775,18818,18843,18843,18852,18852,18892,18892,18924,18971,19003,19003,19011,19019,19084,19085,19093,19126,19127,19144,19144,19165,19165,19182,19213,19229,19244,19292,19292,19324,19324,19357,19358,19388,19404,19437,19468,19492,19605,19605,19613,19653,19685,19685,19730,19820,19907,19916,19948,19956,19965,19980,20035,20035,20051,20059,20092,20092,20154,20154,20224,20258,20269,20269,20276,20284,20292,20332,20332,20373,20388,20404,20412,20412,20542,20595,20595,20619,20669,20725,20725,20749,20749,20788,20788,20820,20820,20820,20860,20860,20892,20892,20900,20908,20908,21028,21028,21036,21036,21052,21068,21069,21100,21155,21155,21180,21218,21234,21250,21308,21340,21354,21354,21387,21411,21468,21469,21484,21484,21492,21516,21532,21563,21563,21620,21637,21668,21708,21754,21773" d="M180.00189,88.02486C179.2859,87.30886 178.4339,87.02486 177.70723,87.02486C176.66856,87.02486 175.77896,87.10779 175.02339,86.80353C174.24976,86.49199 173.35909,86.02711 172.48106,86.02486C171.61256,86.02264 170.7179,86.02486 169.83257,86.02486C169.00189,86.02486 167.98067,85.83692 167.20056,86.11019C166.34537,86.40976 165.64317,86.85573 164.85257,87.06086C164.00989,87.2795 163.77158,88.38904 163.00189,88.85819C162.32758,89.26921 162.24516,90.15385 161.71657,90.85686C161.19193,91.5546 160.62402,92.086 160.05457,92.91503C159.57977,93.60623 159.21588,94.34367 159.00156,95.24636C158.80597,96.07019 158.06194,96.64574 157.17123,96.93953C156.42159,97.18679 155.64366,97.76198 154.83524,98.02486C153.94781,98.31344 153.05457,98.02486 152.20056,98.02486C151.3019,98.02486 150.4379,98.02486 149.55923,98.02486C148.70723,98.02486 147.71657,98.02486 146.8019,98.02486C145.9019,98.02486 145.00189,98.02486 144.2019,98.02486C143.3019,98.02486 142.4379,98.02486 141.55907,98.02486C140.65007,98.02486 139.55954,97.85264 139.08456,98.59286C138.67859,99.22554 138.29774,99.9651 137.48456,100.02219C136.5251,100.08955 135.59129,99.89155 134.7019,100.02936C133.77022,100.17372 133.26991,100.90435 132.50189,101.50403C131.8521,102.01139 130.62001,101.63091 130.08723,102.3102C129.52098,103.03218 129.55827,103.89735 128.85257,104.01419C127.83376,104.18287 127.37401,104.81844 126.59123,105.41419C125.89356,105.94517 124.95611,105.68284 124.06323,106.03553C123.34329,106.31992 122.89395,107.35571 122.2019,107.73952C121.37741,108.19678 120.35645,107.97983 119.61256,108.4502C118.83598,108.94124 117.7927,108.80892 117.2449,109.46753C116.77129,110.03693 117.0019,111.24636 117.0019,112.12469C117.0019,113.01019 117.1542,113.88844 117.00173,114.7822C116.85701,115.63055 116.45712,116.25539 115.80323,117.13819C115.33221,117.77412 115.0583,118.60138 114.94473,119.43386C114.83555,120.23414 114.39168,120.96898 114.1234,122.00336C113.91529,122.80573 113.86656,123.6018 113.42723,124.16886C112.93651,124.80225 113.08315,125.73289 112.94923,126.6142C112.78464,127.69742 111.86089,128.04573 111.35906,128.6722C110.8139,129.35277 111.0019,130.21019 111.0019,131.2677C111.0019,132.12486 111.0019,133.02486 111.0019,133.82486C111.0019,134.73953 111.0019,135.63553 111.0019,136.52486C111.0019,137.43553 110.8325,138.37143 111.0379,139.16353C111.26241,140.02933 112.43327,140.28938 112.83523,141.02486C113.23729,141.76051 113.51746,142.53 114.20056,143.22353C114.83041,143.86298 115.25481,144.61244 115.7064,145.37669C116.16821,146.15823 116.69428,146.7729 117.5699,147.3102C118.1377,147.6586 118.66605,148.60274 119.4379,148.98886C120.21127,149.37575 121.2019,149.02486 122.1019,149.02486C123.0019,149.02486 123.91923,149.02486 124.70723,149.02486C125.66856,149.02486 126.52273,149.02486 127.48106,149.02486C128.33524,149.02486 129.15123,149.02486 130.16856,149.02486C131.02724,149.02486 131.80324,149.02486 132.7019,149.02486C133.6019,149.02486 134.5659,149.02486 135.44456,149.02486C136.29657,149.02486 137.16989,149.02486 138.00189,149.02486C139.01657,149.02486 139.91924,149.02486 140.70723,149.02486C141.66856,149.02486 142.52274,149.02486 143.4019,149.02486C144.3019,149.02486 145.20056,149.02486 146.11172,149.02486C147.00189,149.02486 147.9299,149.02486 148.71173,149.02486C149.51923,149.02486 150.55524,149.02486 151.44456,149.02486C152.29657,149.02486 153.28723,149.02486 154.1019,149.02486C155.00189,149.02486 155.8019,149.02486 156.75906,149.02486C157.65007,149.02486 158.43256,149.02486 159.42723,149.02486C160.33524,149.02486 161.15123,149.02486 162.10722,149.02486C163.02274,149.02486 163.98091,148.99747 164.6974,149.02486C165.63995,149.06088 166.49675,149.57924 166.98106,150.02486C167.77997,150.75995 168.5699,151.02486 169.29657,151.02486C170.35907,151.02486 171.2019,151.02486 172.1019,151.02486C173.00189,151.02486 173.8019,151.02486 174.7019,151.02486C175.6019,151.02486 176.37456,151.1754 177.11172,151.6722C177.77985,152.12247 178.80734,152.06541 179.44856,152.4502C180.29312,152.95699 181.14052,153.01952 182.05257,153.02486C182.86322,153.0296 183.83524,153.02486 184.6974,153.02486C185.6019,153.02486 186.61275,152.94507 187.20056,153.59286C187.77287,154.22357 188.17123,155.02353 189.00189,155.02486C189.98106,155.02643 190.78166,155.03247 191.65007,155.37753C192.45181,155.69611 193.32321,156.21756 194.02274,156.52486C194.96552,156.93903 195.70631,156.89513 196.64473,157.02486C197.46681,157.1385 198.08241,157.80727 199.08723,158.02486C199.98117,158.21843 200.8019,158.02486 201.7019,158.02486C202.6019,158.02486 203.50189,158.02486 204.4019,158.02486C205.3019,158.02486 206.2019,158.02486 207.10173,158.02486C207.98723,158.02486 208.85257,158.02486 209.75906,158.02486C210.64856,158.02486 211.48456,158.02486 212.29207,158.02486C213.33524,158.02486 214.18723,158.02486 215.11656,158.02486C216.00189,158.02486 216.93944,158.00508 217.5699,158.59286C218.17123,159.15347 218.81749,159.93842 219.54356,160.02486C220.47929,160.13626 221.39243,159.97401 222.24474,160.37753C223.05531,160.76131 223.88188,160.98567 224.71173,161.02936C225.52214,161.07202 226.36569,161.45052 227.20056,161.94086C227.94456,162.37782 228.17216,163.10965 229.00189,163.52486C229.83217,163.94032 230.63136,163.86259 231.50189,164.0457C232.35352,164.22484 233.17998,164.80992 233.98106,165.02486C234.84802,165.25746 235.37296,165.85419 236.29739,166.02486C237.0239,166.15898 237.45088,166.87527 238.18723,167.0502C239.12576,167.27316 239.82881,167.67323 240.7019,168.07753C241.53362,168.46266 242.30054,168.99626 243.2019,169.02486C244.10144,169.05339 245.04088,168.87349 245.75906,169.13919C246.56157,169.4361 246.97446,170.40201 247.83389,170.85419C248.6214,171.26852 249.43248,171.02652 250.02274,171.52486C250.64706,172.05197 251.47867,172.32668 252.17656,172.59953C253.10753,172.96352 254.1852,172.82312 254.8019,173.19553C255.5782,173.66431 256.17755,174.48042 256.71655,175.10753C257.22025,175.69354 257.00189,176.72485 257.00189,177.66769C257.00189,178.59286 257.00189,179.31953 257.00189,180.38203C257.00189,181.22485 257.09058,182.12924 257.00189,183.02486C256.91815,183.87056 256.21133,184.36899 255.78056,185.12469C255.38977,185.81026 255.04301,186.57695 254.57657,187.42487C254.17471,188.15536 254.09108,189.05167 253.99123,189.87553C253.87927,190.79926 253.2075,191.17265 252.83524,192.02486C252.51393,192.76041 251.54398,193.20535 251.16856,194.02486C250.82834,194.76755 251.36507,195.82175 250.9659,196.58887C250.57076,197.34824 250.12541,197.95067 249.9929,198.73019C249.82288,199.73042 248.77898,199.772 248.2449,200.46753C247.70679,201.16832 247.63721,202.13795 247.00189,202.5457C246.19972,203.06053 245.84196,203.89632 245.00189,204.02486C244.20662,204.14655 243.43182,204.66771 242.8019,205.22353C242.03618,205.89917 241.16495,205.90239 240.52274,206.5457C239.88489,207.18463 239.68301,207.97325 239.01657,208.4502C238.39781,208.89302 237.47778,208.83899 236.66856,209.3582C236.0528,209.7533 235.65065,210.60214 234.71657,211.0262C233.94815,211.37505 233.36475,211.80014 232.6019,212.4142C231.85635,213.01433 230.90207,213.02486 230.0379,213.02486C229.15123,213.02486 228.19431,212.95465 227.5659,213.46086C226.83481,214.04979 226.40942,214.81383 225.55923,215.02502C224.73051,215.23088 224.16487,215.7298 223.55923,216.2462C222.95804,216.75882 222.02997,217.17419 221.39124,217.59953C220.57802,218.14105 219.61256,218.02486 218.66856,218.02486C217.85257,218.02486 216.94597,218.09146 216.29657,218.73019C215.84891,219.1705 215.05156,219.9424 214.14056,220.03552C213.48375,220.10266 212.52284,220.57629 211.83524,221.02486C211.0452,221.54024 210.24911,221.93547 209.43256,222.0262C208.65288,222.11282 207.63789,222.46086 207.00189,223.02486C206.36589,223.58887 205.50325,223.86838 204.65456,224.07753C203.73204,224.30487 203.14339,224.86829 202.34923,225.32036C201.67426,225.70459 200.50975,225.85583 200.02724,226.46086C199.44179,227.19495 199.04161,227.99602 198.29657,228.37753C197.57343,228.74783 196.60991,228.78796 195.80324,229.02753C195.02667,229.25815 195.05202,230.54561 194.29657,230.91052C193.42484,231.3316 192.74873,231.56995 191.9019,231.90337C191.05687,232.23608 190.16753,232.25363 190.00156,233.12486C189.86674,233.83255 188.99245,234.20166 188.33524,234.8582C187.7812,235.41167 187.4706,236.29851 186.65007,236.66769C185.79138,237.05405 184.97998,237.36296 184.28723,237.74086C183.49771,238.17155 182.5699,238.02486 181.64473,238.02486C180.8019,238.02486 179.8282,237.70274 178.98106,238.06653C178.28345,238.3661 178.07072,239.48489 177.0739,239.95287C176.36798,240.28427 175.4019,240.02486 174.50189,240.02486C173.61256,240.02486 172.66856,240.02486 171.85257,240.02486C170.91924,240.02486 170.01657,240.02486 169.15123,240.02486C168.2449,240.02486 167.65953,240.6431 166.80324,240.93953C165.96272,241.2305 165.00189,241.02486 164.2019,241.02486C163.3019,241.02486 162.40189,241.01945 161.50189,241.02486C160.61252,241.0302 160.07204,241.79852 159.35457,242.02036C158.47498,242.29231 157.5699,242.02486 156.64473,242.02486C155.70639,242.02486 154.83257,242.02486 154.00189,242.02486C153.06323,242.02486 152.20056,242.02486 151.3019,242.02486C150.4379,242.02486 149.55907,242.02486 148.65007,242.02486C147.75906,242.02486 146.8019,242.02486 145.90173,242.02486C145.11656,242.02486 144.13889,242.10503 143.40056,241.85419C142.55707,241.56763 141.90732,240.77037 141.16856,240.3582C140.36414,239.90939 139.23212,240.13489 139.00189,239.45686C138.76825,238.76878 139.00206,237.6722 139.00189,236.80336C139.00172,235.9247 138.88014,235.1028 138.29657,234.37669C137.75063,233.6974 137.03792,233.07768 137.00189,232.17419C136.96577,231.26859 136.6861,230.46954 136.42723,229.83952C136.0011,228.80241 135.81372,227.8968 135.2859,227.3102C134.68089,226.6378 133.71202,226.41774 133.12323,225.80336C132.47086,225.12263 132.16769,224.5932 131.4379,223.99953C130.78883,223.47153 130.63039,222.31143 129.83257,222.0262C129.05009,221.74646 128.24452,221.63982 128.00056,220.82619C127.76366,220.03609 126.58451,220.18394 125.90189,219.5822C125.38728,219.12856 124.92603,218.14743 124.0019,218.02486C123.13086,217.90933 122.30932,217.94496 121.48106,217.52486C120.69117,217.12421 119.96407,217.10471 119.0019,216.8582C118.20374,216.65372 117.51907,215.87939 116.91923,215.3102C116.33309,214.75401 115.5099,214.46193 114.68073,213.92503C114.0432,213.51222 113.09824,213.09203 112.48106,212.50403C111.78633,211.84215 111.05751,211.57837 110.35906,211.02936C109.82655,210.61078 110.04034,209.54922 109.29206,208.78203C108.74358,208.21968 107.74858,207.93787 107.28857,207.22485C106.76712,206.41663 106.38386,205.71451 106.08723,204.82486C105.80127,203.96722 105.77356,203.06044 105.42723,202.38885C105.00905,201.57794 105.00415,200.7347 105.0019,199.69153C105.00014,198.87553 105.0019,197.8582 105.0019,197.00403C105.0019,196.17419 105.0019,195.1942 105.0019,194.37819C105.0019,193.54086 104.71946,192.63393 105.01257,191.67152C105.23279,190.94843 105.71314,190.19743 106.17123,189.59286C106.76513,188.80908 107.88757,189.02486 108.70723,189.02486C109.66856,189.02486 110.52273,189.02486 111.40189,189.02486C112.29739,189.02486 113.2234,189.02486 114.10207,189.02486C114.88723,189.02486 115.81657,189.0233 116.75923,189.02486C117.57123,189.0262 118.46296,189.00081 119.24473,189.73019C119.78809,190.23714 120.39975,190.98883 121.3064,191.02486C122.16788,191.05908 123.06262,190.65646 124.01656,191.06087C124.77882,191.38402 125.1993,192.49063 126.0019,192.8582C126.74461,193.19835 127.47961,193.25824 128.17123,193.74086C128.90735,194.25452 130.11736,194.10048 130.64023,194.72935C131.20456,195.40808 131.56154,196.2375 132.29657,196.66769C133.07597,197.12386 133.6748,197.63116 134.20056,198.51019C134.61745,199.20718 134.86568,200.22716 135.00189,201.00403C135.15219,201.86124 135.57713,202.51599 136.00189,203.3582C136.45064,204.24797 136.70395,205.00549 136.8804,205.88203C137.05774,206.763 136.73038,207.79002 137.17256,208.45552C137.72928,209.29338 138.80211,209.4554 138.98056,210.17419C139.22984,211.17827 139.72792,211.76379 139.94923,212.67752C140.11462,213.36038 140.37189,214.47458 141.1019,214.9037C141.75525,215.28777 142.21774,216.05048 143.00189,216.69153C143.5992,217.17982 144.62167,217.02263 145.4019,217.4502C146.2233,217.90033 147.05635,218.13829 147.42723,218.87553C147.83722,219.69054 148.57123,220.02486 149.35373,220.02486C150.36589,220.02486 151.30858,219.91792 152.20323,220.02753C152.90234,220.11317 153.65277,220.72726 154.29207,221.31953C155.00491,221.97995 155.85257,222.02486 156.83124,222.02486C157.70723,222.02486 158.4339,222.02486 159.4379,222.02486C160.3019,222.02486 161.20056,222.02486 162.11172,222.02486L163.00189,222.02486L163.89206,222.02486" id="svg_2" stroke-width="3" stroke="#000" fill="none"/>
  <path t="23684,23916,23916,23930,23946,23962,23962,24005,24021,24029,24037,24045,24118,24122,24130,24154,24162,24223,24254,24262,24278,24293,24301,24317,24325,24341,24365,24418,24418,24450,24469,24485,24485,24493,24501,24517,24525,24601,24601,24612,24636,24636,24678,24693,24693,24715,24763,24774,24774,24789,24805,24805,24833,24853,24861,24885,24898,24924,24924,24932,24932,24956,24981,24981,25036,25046,25046,25070,25091,25099,25109,25133,25141,25149,25149,25165,25196,25220,25220,25244,25252,25260,25291,25291,25316,25316,25324,25332,25348,25365,25387,25387,25404,25412,25468,25486,25486,25486,25508,25516,25540,25540,25548,25571,25596,25604,25636,25652,25652,25668,25677,25723,25748,25772,25772,25796,25804,25828,25828,25852,25877,25892,25908,25940,25940,25956,25964,26011,26011,26038,26077,26077,26086,26149,26182,26204,26212,26220,26220,26228,26236,26244,26252,26260,26268,26268,26277" d="M126.0019,218.02486C126.85256,218.87553 127.29536,219.71159 128.16989,220.0222C128.97386,220.30775 130.11407,220.10323 130.64023,220.72935C131.19604,221.39079 131.70596,221.99626 132.66856,222.02486C133.52235,222.05022 134.39124,222.02486 135.35907,222.02486C136.20056,222.02486 137.11172,222.02486 138.00189,222.02486C138.89206,222.02486 139.71796,222.01437 140.61256,222.02486C141.50208,222.03528 142.20554,222.56709 143.10173,222.90337C143.93855,223.21736 144.85257,223.02486 145.75906,223.02486C146.61256,223.02486 147.48106,223.02486 148.44456,223.02486C149.15123,223.02486 150.22324,223.02486 151.08589,223.02486C152.00189,223.02486 152.8019,223.02486 153.7019,223.02486C154.64473,223.02486 155.52274,223.02486 156.39124,223.02486C157.33524,223.02486 158.15123,223.02486 159.08456,223.02486C160.00189,223.02486 160.81364,223.17094 161.71657,223.02486C162.60562,222.88101 163.32352,222.26247 164.24474,222.08203C165.08778,221.9169 166.00189,222.02486 166.8019,222.02486C167.71657,222.02486 168.70724,222.02876 169.4339,222.02486C170.42728,222.01952 170.9995,221.40811 171.70639,220.9722C172.37802,220.55803 173.20041,220.06757 174.16856,220.02486C175.00108,219.98813 176.14886,220.35266 176.71523,219.85419C177.3792,219.26981 177.42152,218.15625 178.29657,218.03386C179.21451,217.90547 180.06146,217.7399 180.7019,217.37753C181.52269,216.91312 182.10472,216.34344 182.80324,215.94086C183.58894,215.48801 184.3652,215.12498 185.2019,215.02353C186.12166,214.912 186.85118,214.61479 187.5659,213.99953C188.18437,213.46713 188.75179,213.27539 189.4339,213.02486C190.15901,212.75853 190.45111,211.78609 191.08589,211.30887C191.85245,210.73259 192.79924,210.96921 193.48456,210.45686C194.18658,209.93202 194.8205,209.12566 195.61256,209.02486C196.55894,208.90442 196.96751,208.2086 197.70723,208.02036C198.4158,207.84004 198.89935,207.20992 199.50189,206.5457C200.09993,205.88646 201.1826,205.89026 201.82722,205.58887C202.53503,205.25793 203.57539,204.78836 204.00056,203.94086C204.41817,203.10846 204.65712,202.23105 205.48106,202.0457C206.41507,201.8356 207.40938,201.88055 207.83524,201.02486C208.21387,200.26404 208.82462,200.28194 209.4339,199.85419C210.23782,199.28979 210.0675,198.3291 210.83524,198.02486C211.64891,197.70241 212.11795,196.71278 212.48106,196.0457C212.9386,195.20515 213.45461,194.60516 214.10173,193.92487C214.65947,193.33853 214.80302,192.39575 215.4379,191.63553C215.96646,191.00261 216.99602,191.01274 217.5699,190.45686C218.16042,189.88487 218.9976,189.39012 219.7179,188.93953C220.54012,188.42517 221.19464,188.32614 221.89206,187.66769C222.56805,187.02946 223.03845,186.65552 223.71657,185.94086C224.32228,185.30249 224.44333,184.33905 225.3019,184.08203C226.16592,183.82338 227.22507,183.91103 227.71657,183.22353C228.20378,182.54202 229.07243,182.44466 229.7589,181.80353C230.38086,181.22264 230.64856,180.4502 231.4859,180.1102L232.34923,180.02936L233.24474,180.01585" id="svg_3" stroke-width="3" stroke="#000" fill="none"/>
  <path t="28260,28486,28524,28540,28581,28595,28664,28707,28707,28719,28735,28747,28763,28797,28797,28836,28844,28852,28886,28886,28916,28916,28940,28948,28948,29013,29013,29059,29134,29146,29165" d="M227.00189,180.02486C227.98106,179.02486 228.07368,178.03552 228.85257,178.02486C229.83247,178.01144 230.45427,177.69392 231.16856,177.19153C231.86368,176.70262 232.8019,177.02486 233.7019,177.02486C234.6019,177.02486 235.50189,177.02486 236.48106,177.02486C237.33524,177.02486 238.15123,177.02486 239.16856,177.02486C240.00189,177.02486 240.77193,176.75403 241.16856,176.02486C241.55211,175.31976 242.44473,175.02715 243.35373,175.02486C244.24475,175.0226 245.054,174.71812 245.75906,174.37753C246.60562,173.96858 247.43256,173.94086 248.16989,173.30887L249.00189,173.0457L249.94057,173.02486L250.80324,172.93953" id="svg_4" stroke-width="3" stroke="#000" fill="none"/>
  <path t="30958,31743,31761,31797,31821,31859,31928,32024,32024,32042,32058,32112,32112,32181,32181,32194,32211,32286,32294,32301,32317,32317,32674,32723,32772,32772,32818,32843,32875,32875,32907,32940,32940,32970,32990,33036,33036,33044,33069,33086,33116,33116,33131,33148,33190,33204,33220,33220,33251" d="M128.00189,149.02486C127.0019,149.73019 127.0019,150.69153 127.0019,151.5457C127.0019,152.42487 127.0019,153.32486 127.0019,154.2262C127.0019,155.19153 127.0019,155.83952 127.0019,156.85553C127.0019,157.74086 127.0019,158.59286 127.0019,159.45686C127.0019,160.46753 127.0019,161.17419 127.0019,162.24637C127.0019,163.12469 127.0019,163.99953 127.0019,164.82619C127.0019,165.73953 126.89285,166.61002 127.05907,167.37669C127.28303,168.40971 127.85104,168.3112 128.44456,167.80353C129.04497,167.28998 129.90834,166.9256 130.08723,166.1382C130.26604,165.3512 130.68886,164.57416 131.2859,163.73953C131.81035,163.00639 132.12318,162.24657 132.57657,161.42487C133.00177,160.65425 132.82846,159.66501 133.0379,158.87553C133.26237,158.0294 134.46097,158.20662 134.97656,157.58887C135.50505,156.95567 135.89348,156.30215 136.48106,155.52486C137.03865,154.78723 137.00189,153.82619 137.0739,152.96353L137.70723,152.31953L138.29657,151.73019L138.98056,151.04619" id="svg_5" stroke-width="3" stroke="#000" fill="none"/>
  <path t="35550,35778,35860,35860,35926,35962,35962,35978,35978,35998,36028,36028,36044,36087,36171,36351,36455,36524,36830,36846,36862,36878,36894,36941,36957,36982,36982,36997,37014,37061,37077,37093,37102,37141,37173,37189,37198,37229,37237,37253,37253,37277,37285" d="M148.00189,155.02486C148.00189,157.52486 148.00082,158.4677 148.00189,159.21019C148.00323,160.13953 148.36385,160.99017 149.00189,161.5457C149.70193,162.1552 149.96588,162.83762 150.00189,163.85686C150.0329,164.73415 150.00189,165.54219 150.00189,166.50403C150.00189,167.42487 149.83696,168.34915 150.05907,169.13469C150.31947,170.05569 150.62646,169.90096 151.22324,169.26787C151.8295,168.62471 152.80197,168.36798 152.98106,167.52486C153.16589,166.65469 152.89311,165.73288 153.00323,164.82486C153.11479,163.90506 153.76622,163.37877 154.39124,162.62486C154.93626,161.96742 154.5937,160.81743 155.16856,160.19153C155.74799,159.56065 155.63571,158.98941 156.22324,158.26787C156.76161,157.60667 157.00189,157.00403 157.00189,156.04652C157.00189,155.19153 157.0739,154.4142 157.70723,153.72485L158.29657,153.32486L158.96024,152.52486L159.01256,151.6142" id="svg_6" stroke-width="3" stroke="#000" fill="none"/>
  <path t="37803,37894,37923,37923,37955,37979,38023,38023,38027,38067,38075,38075,38115,38123,38139,38139,38173,38271,38271,38317,38317,38317,38346,38535,38587,38635,38644,38694,38708,38724,38748,38781,38781,38798,38827,38835,38885,38893,38931,38931,38947,38963,38971,38998,39004,39004,39012,39020,39044,39044,39068,39076,39084,39084" d="M162.00189,155.02486C163.83524,155.02486 164.71178,155.01611 165.51923,155.02486C166.48123,155.03528 167.47047,155.27023 167.83524,156.02486C168.19075,156.76035 168.19873,157.67628 169.00189,158.0457C169.78928,158.40787 169.99112,159.21002 170.00189,160.2677C170.01062,161.12482 170.21115,161.998 170.57657,162.62486C171.03181,163.40584 171.20578,164.35417 171.52274,165.0457C171.97693,166.03668 172.4357,166.79585 172.71657,167.53952C173.02681,168.36093 173.52252,169.01665 174.4019,169.02486C175.29736,169.03322 176.07947,168.5988 176.57657,167.99953C177.08667,167.38458 176.73805,166.37245 177.04356,165.52486C177.34018,164.70195 178.60513,164.64015 178.99924,163.85553C179.37209,163.11324 179.00189,162.0457 179.00189,161.22353C179.00189,160.3102 179.00189,159.45686 179.00189,158.59286C179.00189,157.59953 179.00189,156.73953 179.00189,155.82486C179.00189,154.92487 178.82834,153.9866 179.08723,153.22485C179.38901,152.33696 179.98389,151.63605 180.00189,150.69153C180.01744,149.87569 180.00189,148.9767 180.08723,148.1382L180.35907,147.37669L180.80324,146.59419" id="svg_7" stroke-width="3" stroke="#000" fill="none"/>
  <path t="41723,41955,41986,42056,42090,42138,42138,42179,42253,42253,42253,42258,42266,42266,42339,42339,42355,42380,42380,42388,42412,42420,42436,42436,42452,42452,42523,42587,42612,42612,42620,42628,42660,42682,42723,42731,42731,42763,42823,42883,42883,42908,42924,42940,42972,43006,43006,43028,43036,43036,43069,43069,43255,43302,43324,43324,43347,43363,43406,43428,43466,43611,43652,43668,43668,43702,43724,43724,43863,43970,43979,43997,44012,44436,44436" d="M136.00189,153.02486C135.01256,153.06087 135.00189,153.82619 135.00189,154.8582C135.00189,155.67152 134.73264,156.57234 135.08723,157.45552C135.40038,158.23543 136.22701,158.86769 136.48106,159.5457C136.74437,160.2484 136.95323,161.36407 137.00223,162.34602C137.03508,163.0045 137.59665,163.76227 138.29657,164.01585C139.04752,164.28792 139.38797,165.16321 139.7179,165.82486C140.13843,166.66823 140.09241,167.72662 140.85257,167.99953C141.737,168.31705 142.12222,168.94751 142.70723,169.67303C143.25424,170.35146 143.98132,171.00377 144.52274,171.5457C145.2009,172.22452 145.63628,172.85925 146.05457,173.72485C146.45007,174.5433 147.57196,174.73251 147.9659,175.46086C148.37749,176.22185 148.42543,177.15521 149.15123,177.58887C149.91125,178.04297 150.00189,178.8862 150.00189,179.8582C150.00189,180.6142 150.00189,181.52486 150.00189,182.42487C150.00189,183.32036 150.00189,184.24637 150.00189,185.12503C150.00189,185.9102 150.00189,186.85019 150.00189,187.8582C150.00189,188.66319 150.00189,189.59286 150.00189,190.31953C150.00189,191.3102 150.19905,192.34081 149.66856,193.02486C149.15788,193.68338 148.15509,194.10318 148.00189,194.94086C147.85968,195.71852 147.46243,196.4745 146.70639,196.9722C146.01997,197.42406 145.52599,197.87563 144.90207,198.46753C144.2887,199.04942 143.94926,200.02036 143.00189,200.02486C142.20192,200.02866 141.37259,200.09021 140.91789,200.82619C140.44124,201.5977 139.7179,202.0262 139.01657,202.46086L138.55923,203.12469L137.85257,203.58887" id="svg_8" stroke-width="3" stroke="#000" fill="none"/>
  <path t="44939,45127,45139,45159,45159,45171,45179,45198,45206,45212,45220,45228,45228,45236,45291,45302,45308,45324,45372,45389,45389,45398,45407,45412,45420,45428,45436,45468,45476,45501,45501,45508,45516,45516,45532,45540,45556,45564,45579,45579,45604,45604,45651,45658,45662,45666,45682,45682,45701,45701,45708,45716,45724,45740,45740,45748,45748,45756,45756,45764,45764,45764,45772,45772,45780,45780,45788,45788,45797,45805,45805,45812,45812,45820,45868" d="M150.00189,193.02486C150.00189,192.02486 150.42363,191.40034 150.8804,190.5822C151.2291,189.95764 151.23181,189.14589 152.10173,189.02469C152.90361,188.91296 153.38464,188.23756 154.20056,188.02353C155.00237,187.81319 155.26535,186.80533 155.80324,186.22485C156.45543,185.52104 157.17111,184.94063 157.85257,184.59953C158.75891,184.14589 159.39532,183.56731 159.91924,182.82619C160.41525,182.12453 161.19569,182.06995 161.98106,181.52486C162.65588,181.05649 163.31224,180.40675 164.2019,180.1102C165.05939,179.82437 165.97656,180.02486 166.80324,180.02486C167.71657,180.02486 168.57127,180.0331 169.35373,180.02486C170.36606,180.01419 171.06476,179.5544 171.6019,178.87553C172.16461,178.16435 173.10236,178.05856 174.00189,178.02486C174.76517,177.99626 175.62814,177.62065 176.43256,177.30887C177.3149,176.96687 178.15617,177.12509 179.16856,177.02486C180.01425,176.94112 180.65317,176.224 181.48106,176.0457C182.42319,175.8428 183.36961,176.24527 184.16856,175.8582C184.92397,175.49223 185.60185,175.0302 186.50189,175.02486C187.39122,175.01959 188.36108,175.17325 189.18723,174.95287C190.03329,174.72717 190.34979,173.81558 191.32339,173.26787C191.95767,172.91106 193.00296,173.05673 193.8019,173.01419C194.60423,172.97147 195.60913,172.68417 196.2019,172.4142C197.21487,171.95285 197.94902,171.45549 198.83524,171.19153C199.67601,170.94109 200.524,171.07169 201.4859,171.0222C202.17911,170.98654 203.11523,170.45686 203.55524,169.87553L204.11172,169.03386L205.00189,169.02486" id="svg_9" stroke-width="3" stroke="#000" fill="none"/>
  <path t="49690,49914,49933,49958,49962,49962,49962,49966,50034,50034,50069,50077,50092,50219,50334,50334,50370,50398,50414,50428,50452,50452,50460,50468,50484,50492,50510,50541,50579,50595,50606,50606,50620,50636,50659,50667,50675,50709,50740" d="M208.00189,160.02486C208.00189,160.82619 207.85936,161.75874 208.04356,162.58736C208.27336,163.621 208.84778,164.26793 209.15123,164.73819C209.82072,165.77571 210.00189,166.59286 210.00189,167.31953C210.00189,168.37753 210.00189,169.1942 210.00189,170.02486C210.00189,171.03836 210.00182,171.87686 210.00189,172.74886C210.00198,173.66035 210.63657,174.03415 211.4019,173.59953C212.12711,173.18771 213.03456,172.89925 213.6019,172.4142C214.34378,171.77991 214.97322,171.07439 215.00189,170.17419C215.03075,169.26833 215.66461,168.97708 216.05457,168.32036C216.52052,167.53563 216.81216,166.54588 217.5699,166.10753C218.2206,165.73109 218.71336,165.13002 219.00206,164.2677C219.25349,163.51671 220.05457,162.9722 220.70639,162.37753L221.50189,162.0457L222.4019,162.02486" id="svg_10" stroke-width="3" stroke="#000" fill="none"/>
  <path t="52136,52335,52354,52386,52386,52413,52414,52428,52436,52444,52482,52579,52586,52648,52751,52762,52902,52902,52918,52981,53020,53053,53061,53069,53093,53098,53132,53148,53196,53202,53202,53216,53228,53244,53260,53268,53276,53292,53292,53317,53341" d="M190.00189,155.02486C190.00189,156.72485 190.00189,157.66769 190.00189,158.59286C190.00189,159.45686 190.17009,160.35744 190.50189,161.02486C190.96803,161.96248 191.00189,162.72935 191.00189,163.66769C191.00189,164.5457 191.00189,165.42487 191.00189,166.32486C191.00189,167.22485 190.82356,168.24774 191.02274,169.0457C191.24745,169.94597 191.7438,171.20844 192.64473,170.90154C193.40149,170.64375 193.20021,169.15816 194.10173,169.02486C194.97185,168.89619 194.80142,168.1877 195.05907,167.32486C195.31549,166.46613 196.49641,166.33629 196.94473,165.66769C197.47113,164.88269 197.45422,163.938 198.00189,163.52486C198.77293,162.94319 199.09659,162.11578 199.57657,161.4142C200.07086,160.69171 200.61502,160.39539 201.39124,160.00352C202.17924,159.60571 202.08589,158.59286 202.70639,157.9767L203.48106,157.52486" id="svg_11" stroke-width="3" stroke="#000" fill="none"/>
  <path t="56445,56655,56690,56706,56724,56814,56822,56836,56844,56870,56884,56964,56964,57024,57024,57045,57108,57108,57140,57148,57148,57228,57236,57252,57283,57331,57365,57381,57381,57414,57423,57423,57467,57483,57495,57507,57518,57525,57541,57565,57581,57613,57613,57629,57691,57706,57726,57750,57762,57774,57778,57786,57806,57814,57874,57882,57882,57898,57925,57930,57946,57979,58026,58042,58042,58126,58126,58148,58187,58187,58204,58235,58259,58308,58308,58395,58525,58525,58605,58636,58660,58692,58757,58757,58827,58868,58883,58899,58931,58955,58963,58963,58971,58971,59014,59095,59117,59127,59180,59213,59213,59227,59243,59275,59275,59290,59357,59357,59370,59378,59382,59472,59517,59547,59580,59580,59611,59622,59628,59644,59660,59668,59692,59718,59748,59777,59777,59829,59843,59843,59859,59867,59883" d="M117.0019,118.02486C117.0019,118.87553 117.0019,119.78186 117.0019,120.63553C117.0019,121.50403 117.0019,122.46086 117.0019,123.32486C117.0019,124.22486 117.0019,125.12469 117.0019,126.01019C117.0019,126.88619 117.0019,127.85819 117.0019,128.66319C117.0019,129.59286 116.75823,130.40536 117.17256,131.19286C117.62475,132.05231 118.39809,132.31665 118.89207,133.2677C119.31557,134.08308 119.76972,134.87003 120.6019,135.01419C121.48875,135.16783 122.40189,135.02486 123.3019,135.02486C124.2019,135.02486 125.1019,135.02486 126.0019,135.02486C126.8019,135.02486 127.8409,134.93413 128.70723,135.03386C129.44678,135.119 129.50629,136.16919 130.2859,136.85419C130.90041,137.3941 132.00189,137.02486 132.88074,137.02486C133.70723,137.02486 134.66856,137.02486 135.52274,137.02486C136.39124,137.02486 137.33524,137.02486 138.15123,137.02486C139.08456,137.02486 140.00229,137.05031 140.80324,137.02486C141.70326,136.99626 142.5255,136.56445 143.29739,136.07753C143.99983,135.63443 144.53122,135.14778 145.39124,135.02486C146.24367,134.90302 146.98975,134.11078 147.83524,134.02486C148.70277,133.93669 149.31013,133.77934 150.08456,133.30887C150.8636,132.8356 151.52272,132.50401 152.20056,131.82619C152.83524,131.19153 153.71535,131.04845 154.29739,130.31953C154.82086,129.66399 155.36681,129.21648 156.15123,128.98886C157.04691,128.72896 156.95721,127.58078 157.00189,126.87553C157.05917,125.97126 158.08865,125.9062 158.7589,125.14603C159.24301,124.59696 159.00189,123.67303 159.00189,122.56653C159.00189,121.69153 159.00189,120.87553 159.00189,119.95286C159.00189,119.02486 159.00189,118.1347 159.00189,117.30886C159.00189,116.45686 159.00189,115.59286 159.00189,114.58886C159.00189,113.72936 158.79166,113.00893 158.00189,112.50403C157.19881,111.99062 156.83415,111.19686 156.00189,111.02486C155.20082,110.85931 154.70511,110.08756 154.2019,109.59286C153.4807,108.88383 152.46556,109.17892 151.6019,109.01419C150.66028,108.83459 150.06203,108.05432 149.29207,107.6722C148.65932,107.35816 147.6326,107.12789 146.6974,107.02036C145.82585,106.92015 145.07109,106.4026 144.24457,106.14636C143.46034,105.90324 142.64339,106.13136 141.62723,106.01419C140.66391,105.90311 139.80989,105.7131 139.2449,104.92503C138.70638,104.17386 138.14056,104.02486 137.16856,104.02486C136.41257,104.02486 135.50189,104.02486 134.6019,104.02486C133.70639,104.02486 132.71657,104.02486 131.9019,104.02486C131.00189,104.02486 130.08456,104.02486 129.29657,104.02486C128.33524,104.02486 127.4339,104.02333 126.70723,104.02486C125.64472,104.02711 124.8019,104.3102 124.2019,104.82619L123.5019,105.50403L122.80323,105.93953L121.9179,106.11019" id="svg_12" stroke-width="3" stroke="#000" fill="none"/>
  <path t="60583,60690,60706,60775,60810,61055,61131,61163,61163,61269,61331,61371,61468,61515,61562,61588,61640,61640,61683,61772,61780,61882,61882,61956,61956,62022,62022" d="M116.0019,115.02486C117.17123,113.3102 118.11559,113.24743 118.83257,112.74086C119.51906,112.25582 120.28723,112.02486 121.1019,112.02486C122.0019,112.02486 122.94432,111.93862 123.5659,112.59953C124.17959,113.25205 124.0019,114.32486 124.0019,115.22486C124.0019,116.12486 124.0019,117.02486 124.0019,117.85819C124.0019,118.73019 124.25199,119.5988 123.64473,120.37753C123.08509,121.09518 122.08711,121.24257 122.0019,122.19153C121.92914,123.00184 121.55907,123.78203 120.81657,124.03953L119.88857,124.3102L119.28857,124.82619" id="svg_13" stroke-width="3" stroke="#000" fill="none"/>
  <path t="62782,62982,63087,63202,63229,63269,63284,63300,63348,63348,63356,63388,63418,63418,63436,63436,63460,63484,63515,63515,63547,63547,63585,63612,63612,63643,63643,63667,63683,63683,63715,63715,63768,63785,63856,63892,63908,63941,64019,64059,64084,64163,64163,64237,64237,64304,64323,64372,64402,64437,64437,64452,64452,64522,64522,64585,64585,64594,64639,64639,64682,64698,64698,64740,64740,64804,64804,64868,64955,64980,64988,64995" d="M136.00189,109.02486C135.98106,110.02486 135.51785,110.79446 135.02724,111.46086C134.46948,112.21846 133.63608,112.56738 133.1234,113.24636C132.58897,113.95412 133.00189,115.02486 133.00189,115.82486C133.00189,116.66769 132.97214,117.56704 133.00323,118.50886C133.03178,119.37353 133.32539,120.29637 133.80324,120.82352C134.45825,121.54613 135.3526,121.85426 136.10207,122.24636C136.82458,122.62437 137.55913,123.12081 138.29207,123.72486C139.0168,124.32216 139.158,125.34602 139.76357,125.6722C140.59001,126.11736 141.57124,125.74754 142.48106,126.06653C143.32436,126.36218 143.50073,127.39449 144.48456,127.85419C145.23065,128.20282 146.2234,128.02486 147.10173,128.02486C148.01089,128.02486 148.85304,128.05391 149.75906,128.02486C150.6506,127.99626 150.81229,127.29242 151.0379,126.42486C151.26302,125.55923 152.25909,125.04963 152.71657,124.3102C153.18996,123.54503 153.00189,122.73019 153.00189,121.73952C153.00189,120.82619 153.16144,119.94283 152.98056,119.17419C152.75156,118.20107 151.75729,118.16399 150.88857,117.74086C150.22388,117.41711 149.41936,116.76336 148.81656,116.41419C147.86496,115.86298 147.35376,115.22652 146.48106,115.04569C145.53902,114.8505 144.71173,115.02754 143.74857,115.02486C142.93938,115.02261 141.96675,115.09911 141.14507,114.80353C140.31125,114.50358 139.78333,113.6255 139.11523,113.30886C138.24721,112.89747 137.17123,113.02486 136.39124,113.02486L135.4379,113.06086L135.00639,113.72936" id="svg_14" stroke-width="3" stroke="#000" fill="none"/>
  <path t="67179,67375,67462,67466,67486,67502,67510,67601,67601,67612,67620,67628,67628,67699,67699,67747,67764,67803,67803,67811,67811,67827,67840,67840,67846,67900,67907,67915,67923,67923,67931,67942,67955,67963,67963,67995,68019,68019,68027,68040,68046,68046,68052,68115,68115,68148,68148,68164,68180,68204,68204,68212,68228,68261,68275,68275,68299,68307,68307,68323,68331,68371,68387,68387,68410,68410,68426,68457" d="M210.00189,104.02486C210.16856,104.85819 211.02724,105.02486 211.80324,105.02486C212.7019,105.02486 213.6019,105.02486 214.5659,105.02486C215.44456,105.02486 216.32538,104.87193 217.16989,105.11019C218.08258,105.36768 218.82332,105.9369 219.64023,106.02036C220.56509,106.11486 221.4339,106.02486 222.35907,106.02486C223.20323,106.02486 224.17368,105.95124 225.00189,106.04569C225.99429,106.15887 226.55721,106.67866 227.41257,106.99953C228.29578,107.33085 229.2018,107.49532 229.94057,107.99953C230.58826,108.44157 231.40137,109.00686 232.3064,109.02486C233.1684,109.04202 233.98106,109.02486 234.95123,109.02486C235.85257,109.02486 236.75923,109.02486 237.5699,109.02486C238.4339,109.02486 239.35457,109.02486 240.33524,109.02486C241.15123,109.02486 242.05006,109.02486 242.88857,109.02486C243.82722,109.02486 244.5179,109.02486 245.55524,109.02486C246.44456,109.02486 247.29657,109.02486 248.33524,109.02486C249.15123,109.02486 250.05006,109.02486 250.95374,109.02486C251.86324,109.02486 252.51923,109.02486 253.59123,109.02486C254.50189,109.02486 255.51291,108.90134 256.10175,109.46753C256.71118,110.05352 257.02322,111.03552 257.70724,111.37753C258.4339,111.74085 259.49457,112.15279 259.94473,112.97219C260.31854,113.65262 260.89465,114.34837 261.4339,114.73952C262.30319,115.37009 262.61255,116.17419 263.2019,116.85419L264.1019,117.02486" id="svg_15" stroke-width="3" stroke="#000" fill="none"/>
  <path t="72588,72935,72954,72981,72987,73004,73004,73050,73050,73066,73066,73086,73092,73100,73108,73124,73132,73164,73164,73181,73196,73196,73204,73212,73212,73228,73236,73286,73286,73292,73292,73308,73312,73316,73324,73324,73336,73340,73340,73348,73356,73356,73356,73364,73364,73372,73372,73383,73384,73389,73389,73389,73397,73413,73413,73421,73421,73429,73437,73437,73445,73445,73453,73453,73461,73461,73469" d="M160.00189,97.02486C160.00223,97.90336 160.70752,98.00144 161.66856,98.02486C162.5235,98.0457 163.1064,98.67841 163.75906,99.31953C164.40199,99.95107 165.29204,100.02036 166.33524,100.02486C167.00189,100.02774 168.04356,100.02486 168.85257,100.02486C169.83257,100.02486 170.61256,100.02486 171.50189,100.02486C172.41257,100.02486 173.32306,100.02486 174.14056,100.02486C175.16856,100.02486 176.04869,99.72279 176.48106,99.02486C176.97504,98.2275 177.71924,98.15646 178.4339,98.02486C179.40764,97.84557 180.09871,97.11984 181.00189,97.02486C181.75705,96.94545 182.67456,96.70512 183.34923,96.32036C184.14108,95.86877 184.88054,95.14616 185.4379,94.58886C186.10185,93.92498 186.68166,93.33131 187.52274,93.02486C188.46538,92.68141 189.13956,92.41306 189.90106,91.72936C190.5011,91.19064 191.30911,91.12566 192.00107,90.91503C193.08083,90.58635 193.49748,89.70004 194.32323,89.26786C195.10435,88.85902 196.19662,89.19102 196.88589,88.76886C197.60709,88.32714 197.95612,87.48561 198.5179,86.87686C199.19746,86.14048 200.20746,85.93662 200.98106,85.50403C201.71248,85.09502 202.1414,84.18912 203.02274,84.04569C203.96835,83.8918 204.77809,84.03074 205.65456,83.66769C206.3721,83.37048 207.1179,82.82352 207.75456,82.26769L208.48456,81.5422L208.98106,81.04569L209.7589,80.26786" id="svg_16" stroke-width="3" stroke="#000" fill="none"/>
  <path t="74358,74406,74415,74422,74422,74430,74462,74470,74494,74502,74510,74510,74518,74526,74558,74558,74566,74567,74574,74574,74598,74607,74614,74623,74630,74638,74646,74646,74654,74662,74669,74677,74701,74701,74701,74713,74713,74732,74732,74740,74740,74748,74756,74788,74796,74812,74812,74822,74831,74851,74851,74859,74875,74883,74891,74891,74907,74926,74926,74956,74956,74980,74980,74988,75004,75021,75032,75036,75036,75044,75060,75068,75076,75076,75084,75100,75108,75118,75126,75132,75148,75172,75196,75196,75204,75212,75222,75231,75231,75244,75252,75268,75276,75292,75308,75308,75326,75348,75356,75364,75364,75388,75404,75404,75412,75436,75436,75444,75444,75460,75468,75476,75484,75484,75500,75508,75508,75526,75533,75533,75549,75549,75557,75557,75573,75629,75645,75645,75661,75661,75709,75714,75737,75749,75749,75795,75829,75829,75892,75892,75909,75925,75933,75941,75941,75995,75995,76029,76045,76069,76073,76093,76097,76101,76113,76137,76137,76145,76157,76165,76165,76173,76173,76173,76173,76180,76180,76180,76188,76188,76188,76196,76196,76196,76196,76204,76204,76208" d="M176.00189,103.02486C177.02322,103.98886 177.90628,103.8657 178.83524,104.19153C179.51312,104.42929 179.78883,105.47153 180.4379,105.99953C181.16769,106.5932 181.4727,107.29134 182.16856,107.85819C182.90366,108.45701 183.78053,108.14697 184.6019,108.59953C185.37277,109.02425 186.38423,108.8092 187.15123,109.09686C187.94205,109.39346 187.96544,110.48354 188.5699,111.13819C189.17805,111.79684 189.71684,112.32509 190.08723,113.10886C190.46176,113.9014 191.24379,114.4098 192.10173,114.90353C192.83936,115.32802 193.48021,115.78444 194.15123,116.05019C195.03326,116.39952 194.81706,117.67206 195.52274,118.00403C196.39011,118.41206 197.33524,118.35819 197.85257,118.87553C198.4339,119.45686 199.1172,120.24822 199.7179,120.74086C200.51109,121.39137 201.23579,121.5644 201.98022,122.12486C202.69281,122.66135 202.93903,123.77827 203.70639,124.02036C204.56128,124.29007 205.41069,124.45166 206.00189,125.02486C206.6111,125.61552 207.21129,126.41982 207.94473,126.9677C208.63997,127.48704 209.23413,127.78938 209.98106,128.50403C210.56764,129.06526 211.61275,128.94507 212.20056,129.59286C212.77287,130.22357 213.29099,130.84239 214.10173,131.2462C214.80809,131.59801 215.39168,132.3606 215.80324,132.91153C216.46764,133.80093 216.80829,134.62708 217.65007,134.91052C218.62137,135.23759 219.47411,135.31046 219.88057,136.12486C220.30255,136.97035 220.54486,137.78006 221.48106,138.00403C222.33522,138.20836 223.41928,137.86578 224.1019,138.46753C224.6165,138.92117 225.18576,139.58353 225.97656,140.03552C226.73567,140.46941 227.38481,141.07953 227.8804,141.90353C228.2948,142.59254 229.05644,142.636 229.83257,143.3102C230.51471,143.90276 230.66196,144.77287 231.3019,145.32036C232.05405,145.96385 232.73094,146.32066 233.2234,147.12469C233.60298,147.74442 234.6221,147.85349 235.50189,148.0457C236.34396,148.22968 236.99863,148.86705 237.85257,149.04619C238.70757,149.22554 238.43102,150.26048 239.08723,151.0222C239.62527,151.64674 240.42577,151.83879 241.2019,152.3102C241.87827,152.72101 242.4019,153.42487 243.1019,154.12486C243.7019,154.72485 244.28123,155.34615 245.00189,156.02486C245.62071,156.60767 246.52702,156.7852 247.29207,157.07753C248.07582,157.37701 248.78215,157.64842 249.66856,158.02486C250.44072,158.35277 250.44756,159.55022 251.2234,160.02502C251.90244,160.44058 252.70302,160.72823 253.3019,161.32486C254.0032,162.02354 254.49455,162.56441 255.32306,163.12486C255.96088,163.55632 256.65042,164.20132 257.16989,164.82486C257.74716,165.51778 258.80334,165.87189 259.28857,166.59419C259.68643,167.18643 260.29147,168.0498 260.98105,168.4832C261.79898,168.99727 262.73242,169.10802 262.97656,169.8862C263.27313,170.83154 263.69086,171.4278 263.94473,172.32936C264.22076,173.30969 263.83536,174.13898 264.44455,175.00336C264.87616,175.61575 265.87933,176.10072 266.00189,177.02486C266.11145,177.85097 266.00189,178.73019 266.00189,179.45686C266.00189,180.46753 266.00189,181.31953 266.00189,182.3102C266.00189,183.22485 266.00189,184.12486 266.00189,185.02486C266.00189,185.8582 266.00189,186.73019 266.00189,187.45686C266.00189,188.52486 266.16162,189.49423 265.96591,190.17419C265.70294,191.08786 265.03473,191.66644 264.64023,192.33836C264.17981,193.12254 263.68521,193.7916 263.16589,194.70087C262.79468,195.35083 262.4614,196.02299 261.80206,196.7607C261.08438,197.56371 260.41251,197.94072 259.88589,198.79553C259.43411,199.52887 259.28271,200.15044 258.68073,201.32469C258.37073,201.92938 258.02274,202.50403 257.57123,203.33952L257.16989,204.34352L257.00189,205.06653L256.83389,205.87953" id="svg_17" stroke-width="3" stroke="#000" fill="none"/>
  <path t="86528,86778,86805,86828,86844,86844,86867,86885,86934,86934,86939,86947,86963,86963,86971,86979,87014,87036,87044,87068,87076,87084,87092,87092,87102,87109,87116,87132,87132,87140,87148,87148,87164,87172,87180,87180,87281,87298,87298,87317,87317,87325,87333,87349,87361,87365,87373,87381,87381,87389,87389,87389,87397,87405,87406,87406" d="M255.00189,205.02486C254.9659,206.01419 254.20056,206.02486 253.16856,206.02486C252.29657,206.02486 251.50342,205.67805 250.57657,206.03552C249.78345,206.34142 249.12247,206.92081 248.48456,207.10886C247.4794,207.40518 246.65485,207.86128 245.9019,208.2462C245.1387,208.63635 244.40195,209.01952 243.50189,209.02486C242.60191,209.03018 241.7019,209.02486 240.80324,209.02486C239.83524,209.02486 238.96553,208.88496 238.15123,209.04619C237.29425,209.21585 237.53377,210.45978 236.88756,211.01585C236.2162,211.59358 235.03065,210.99124 234.29657,211.38203C233.5448,211.78224 233.08318,212.66048 232.29207,212.9722C231.53009,213.27245 230.65659,213.46686 230.08456,214.22353C229.56645,214.90887 228.70724,215.02252 227.7804,215.02486C226.90173,215.02707 226.08247,215.03055 225.18723,215.46086C224.54173,215.77112 224.01952,216.83679 223.29739,217.02036C222.38799,217.25153 221.43318,216.99261 220.70723,217.02486C219.74573,217.06757 218.94034,217.39629 218.2059,217.59953C217.17554,217.88469 216.24915,218.00569 215.48857,218.02353C214.48134,218.04715 213.45889,218.02486 212.7299,218.02486L211.8929,218.02486" id="svg_18" stroke-width="3" stroke="#000" fill="none"/>
  <path t="92718,92832,92832,92859,92867,92883,92891,92915,92923,92923,92939,92949,92964,92964,92980,92980,92996,93004,93062,93082,93098,93114,93122,93122,93130,93138,93156,93187,93275,93283,93283,93291,93291,93307,94359,94359,94475,94475,94481,94489,94517,94529,94529,94533,94537,94549,94627,94641,94641,94654,94659,94700,94700,94708,94708,94724,94740,94740,94757,94780,94804,94804,94828,94836,94836,94860,94860,94892,94916,94924,94924,94957,94957,94980,94996,94996,95012,95053,95068,95068,95084,95100,95100,95149,95165,95165,95181,95189,95197,95221,95245,95245,95260,95260,95268,95276,95292,95316,95324,95324,95332,95336,95340,95355,95373,95373,95397,95397,95405,95405,95405,95413,95421,95421,95437,95437,95460,95461,95461,95461,95485,95485,95493,95493,95493,95493,95493,95505,95505,95509,95509,95521,95521,95525,95525,95525,95525,95541,95541,95541,95565,95565,95565,95565" d="M140.00189,241.02486C141.00189,241.19153 141.66583,241.66269 142.01256,242.46086C142.38181,243.31084 143.06929,243.64856 143.88057,244.02502C144.63049,244.37302 145.30946,245.14622 145.71657,245.82486C146.15805,246.56081 146.42873,247.43369 147.10173,248.12469C147.63751,248.6748 148.64073,248.80693 149.29657,249.13919C150.04214,249.51692 149.94051,250.84497 150.61256,251.02486C151.47188,251.25487 152.33952,251.3508 152.88074,252.12469C153.37526,252.83183 154.22241,252.93318 154.94057,253.4502C155.60445,253.92813 156.13231,254.64432 156.98723,254.98886C157.80042,255.31659 158.89519,254.79315 159.59123,255.09686C160.46371,255.47757 160.56966,256.51749 161.48106,256.98318C162.26399,257.38324 163.01892,257.60666 164.00189,257.85818C164.76682,258.05389 165.75906,258.02487 166.61256,258.02487C167.48106,258.02487 168.32245,258.37155 168.86324,258.87552C169.50447,259.47308 170.36357,259.98883 171.2019,260.02487C172.10107,260.06354 173.04733,259.83109 173.8019,260.1102C174.67149,260.43188 174.74046,261.56952 175.33524,262.19153C175.85693,262.73712 176.6532,263.19901 177.16989,263.82486C177.74854,264.52573 178.45746,265.20053 179.08456,265.73953C179.67059,266.24323 180.78552,266.06546 181.29739,266.73019C181.8092,267.39487 181.89806,268.64471 182.5699,268.93951C183.36481,269.28833 184.15125,269.51236 184.61256,270.17419C185.12712,270.91238 186.16339,270.82462 187.00189,271.19153C187.73723,271.51331 188.48941,272.17422 189.15123,272.63553C189.88943,273.15009 189.99739,274.12503 190.00189,274.91019C190.00723,275.8396 190.18307,276.66809 191.00189,277.19153C191.61324,277.58234 192.63173,277.96408 192.94923,278.73019C193.23232,279.41324 193.7766,280.06827 194.3019,280.73468C194.77019,281.32874 195.21509,282.38388 196.00189,282.85818C196.77057,283.32156 196.92694,284.05087 197.02322,284.89685C197.10756,285.63785 197.7135,286.61551 198.15123,287.18887C198.76781,287.99649 199.14937,288.64105 199.64923,289.13919C200.22693,289.7149 200.12735,290.88177 200.52274,291.52487C201.04897,292.3808 201.36554,293.07336 201.94923,293.91504C202.435,294.61551 203.30208,295.15848 203.64473,295.78201C204.103,296.616 204.00157,297.4881 204.57123,298.42352C204.95374,299.05164 205.51857,299.54019 206.36589,300.38885C207.00139,301.02536 207.51587,301.65887 208.33524,302.19153C208.96815,302.60297 209.78064,303.11642 210.08456,303.91019C210.37544,304.66986 210.62114,305.5802 211.01923,306.42087C211.35081,307.12112 212.10069,307.79782 212.76973,308.37836C213.13492,308.69522 213.89758,309.33127 214.66724,309.88754C215.60007,310.56174 216.45543,310.91663 217.32323,311.24637C218.0166,311.50983 218.88919,311.96451 219.50189,312.56653C220.24014,313.2919 220.65009,314.0369 221.02274,314.52487C221.58975,315.26733 222.37309,316.10529 223.04356,316.48318C223.74394,316.87796 224.64523,317.12552 225.32523,317.34286L226.08524,317.60818L226.92523,317.95352" id="svg_19" stroke-width="3" stroke="#000" fill="none"/>
  <path t="97715,97843,97862,97862,97875,97883,97899,97907,97915,97924,97939,97963,97972,97972,97980,97988,97994,98002,98014,98018,98044,98061,98068,98068,98076,98092,98092,98100,98100,98116,98132,98132,98140,98157,98157,98163,98172,98172,98188,98204,98204,98212,98220,98220,98228,98236,98253,98253,98268,98268,98276,98284,98292,98292,98300,98308,98316,98340,98349,98364,98396,98396,98421,98425,98453,98461,98462,98469,98469,98477,98485,98493,98493,98493,98500,98508,98516,98540,98540,98548,98557,98557,98565,98589,98589,98589,98589,98597,98605,98605,98613,98613,98621,98629" d="M322.00189,164.02486C320.98105,164.0457 319.88931,164.10287 319.36356,164.72935C318.74774,165.46315 318.08475,165.55083 317.33524,166.19153C316.65302,166.77472 316.97598,167.78888 316.29739,168.08203C315.46161,168.4431 314.58112,168.81981 313.90207,169.46753C313.41425,169.93286 313.06937,170.9288 312.48105,171.5457C311.81949,172.23941 311.24838,172.88353 310.96591,173.63553C310.65976,174.45052 310.15909,175.11731 309.98056,175.87553C309.75146,176.84856 308.52655,176.71445 308.04355,177.52486C307.56046,178.33542 308.14587,179.43938 307.29657,179.91052C306.65366,180.26717 305.72751,180.32133 305.00189,181.02486C304.41068,181.59807 303.49393,181.87708 302.90207,182.46753C302.30353,183.06467 301.97256,183.98904 301.29657,184.38203C300.56027,184.81007 300.099,185.6134 299.78058,186.4677C299.49338,187.2382 299.34637,188.37648 298.66858,188.8582C297.99139,189.33949 297.18198,189.22449 296.96024,190.02486C296.73151,190.85042 295.59259,190.7439 294.78058,191.24637C294.13245,191.64743 294.08597,192.69125 293.56589,193.42487C293.00797,194.21187 292.17148,194.45464 291.4379,195.0502C290.78833,195.57756 290.57928,196.5993 289.88757,197.08203C289.21246,197.55316 288.19406,197.86723 287.71655,198.59286C287.35034,199.14935 286.70734,199.96748 285.80191,200.02486C284.90369,200.08177 284.00259,200.19255 283.36591,200.63553C282.51883,201.22488 281.85944,201.68864 281.02356,201.90337C280.10504,202.13931 279.14255,202.29089 278.50189,202.5457C277.84579,202.80666 277.08838,203.79405 276.29739,204.02036C275.47104,204.25677 274.54419,203.90874 273.65005,204.08203C272.72849,204.26064 272.0145,204.93985 271.2019,205.02353C270.29205,205.11723 269.33524,205.02486 268.58673,205.02486C267.66724,205.02486 267.05255,205.02486 265.87338,205.02486C264.90173,205.02486 264.11658,205.02486 263.17657,205.02486L262.4859,205.02486L261.41257,205.02486L260.52274,205.02486" id="svg_20" stroke-width="3" stroke="#000" fill="none"/>
  <path t="99783,99891,99898,99914,99922,99922,99922,99938,99946,99957,99966,99971,99979,99979,99987,99995,99995,100003,100012,100012,100020,100028,100036,100036,100044,100044,100054,100054,100061,100068,100068,100076,100076,100085,100085,100093,100093,100101,100109,100109,100117,100133,100133,100149,100165,100165,100196,100212,100212,100226,100226,100234,100267,100267,100275,100283,100295,100299,100307,100307,100315,100327,100331,100331,100343,100347,100357,100357,100365,100388,100396,100396,100429,100429,100443,100443,100461,100461,100467,100491,100517,100557,100557,100565,100571,100579,100603,100603,100627,100627,100661,100667,100667,100683,100683,100692,100692,100722,100722,100775,100789,100789,100802,100814,100814,100830,100830,100846,100861,100867,100867,100879,100883,100883,100895,100899,100899,100923,100923,100931,100939,100947,100947,100947,100957,100957,100965" d="M303.00189,100.02486C303.00189,100.82619 303.00189,101.73952 303.00189,102.58736C303.00189,103.56753 303.00189,104.27553 303.00189,105.25686C303.00189,106.21053 303.00189,107.12469 303.00189,107.99953C303.00189,108.78653 302.67911,109.78373 303.16855,110.69153C303.52148,111.34617 303.99146,112.04552 304.00189,113.00336C304.0108,113.82348 303.99005,114.67634 304.28589,115.50886C304.59952,116.39146 304.87271,117.31245 305.35455,117.97669C305.84595,118.65409 305.99741,119.44897 306.28589,120.42486C306.46667,121.0364 306.80908,122.03007 306.97656,122.80353C307.19012,123.78995 307.90805,124.34844 307.99124,125.24619C308.08151,126.22058 307.94907,127.00566 308.00189,127.85819C308.05917,128.78284 308.5538,129.52214 309.15125,130.16353C309.81381,130.87485 310.00189,131.68886 310.00189,132.52486C310.00189,133.52486 310.35315,134.1673 310.7179,134.91153C311.14185,135.7766 311.18057,136.67375 311.80322,137.10753C312.58151,137.64973 312.84479,138.52367 313.05457,139.37219C313.28159,140.29041 313.80255,140.8242 314.48105,141.50403C315.16788,142.1922 315.68066,142.84163 316.02722,143.62486C316.38913,144.44279 316.66995,145.30788 317.07388,146.0862C317.48996,146.88791 318.54745,147.14462 318.96024,148.00403C319.30173,148.71498 319.24512,149.74933 319.70639,150.31503C320.36288,151.12019 321.56778,150.91934 321.91791,151.59286C322.32388,152.37383 322.73499,153.02501 323.41257,153.46086C324.20581,153.9711 325.08853,154.40337 325.66858,155.02486C326.23221,155.62878 326.69528,156.3418 327.4339,156.73953C328.42929,157.27554 329.08426,157.7851 329.98105,158.00403C330.78003,158.19908 331.77484,158.07376 332.30191,158.7347C332.7735,159.3261 333.21512,160.3839 334.00189,160.8582C334.77057,161.32158 335.39072,161.71278 336.15125,162.0862C336.91245,162.45993 336.7637,163.49042 337.01089,164.38203C337.24075,165.21106 338.19553,165.39934 338.75906,166.34619C339.12427,166.95979 339.29449,167.96838 339.64923,168.77753C340.02844,169.64247 340.09293,170.44994 340.61255,171.11153C341.20868,171.87054 341.39206,172.56099 341.83524,173.52486C342.21423,174.34918 342.84579,174.88568 343.29739,175.67752C343.68216,176.35219 343.89069,177.4509 344.4379,178.01019C345.1091,178.69623 345.34653,179.34492 346.06323,180.03952C346.70575,180.66222 347.39624,180.85683 348.05255,181.62486C348.67307,182.35101 349.47006,182.68716 350.22339,183.2462C350.83542,183.70041 351.73181,184.02661 352.41257,184.46086C353.20773,184.96809 353.83789,185.42487 354.60324,185.82486L355.5929,186.32486L356.28757,186.72485L356.89658,187.32486" id="svg_21" stroke-width="3" stroke="#000" fill="none"/>
  <path t="103707,103830,103854,103862,103867,103867,103867,103876,103884,103884,103915,103922,103922,103930,103942,103942,103950,103958,103958,103965,103965,103980,103988,103996,104004,104004,104012,104012,104028,104036,104044,104061,104075,104107,104107,104115,104123,104131,104140,104140,104147,104157,104157,104165,104172,104172,104180,104204,104212,104220,104220,104228,104234,104242,104262,104262,104268,104268,104276,104292,104300,104300,104308,104308,104308,104316,104323,104323,104331,104331,104339,104347,104356,104365,104372,104380,104388,104388,104396,104396,104396,104404,104412,104412,104420,104428,104428,104436,104436,104444,104452,104452,104461,104461,104462,104462,104469,104477,104477,104485,104497,104501,104505,104517,104529,104537,104549,104556,104557,104564,104572,104572,104580,104588,104596,104605,104613,104621,104660,104668,104699,104699,104699,104705,104705,104705,104713,104721,104729,104729,104729,104733,104737,104737,104747,104747,104757,104757,104764,104765,104765,104765,104772,104772,104780,104788,104788,104796,104804,104812,104812,104820,104828,104828,104836,104836,104853,104861,104869,104869,104869,104869,104877,104877,104877,104885,104885,104893,104901,104901,104948,104957,104973,104981,104989,104989,105060,105060" d="M362.00189,204.02486C362.00189,203.74086 362.14432,204.65295 361.96024,205.56653C361.79358,206.39359 361.30551,207.03134 360.85257,207.73819C360.25656,208.66827 360.00247,209.46753 360.00189,210.31953C360.00122,211.3102 359.67072,212.05894 359.28589,212.82486C358.89102,213.61078 359.00623,214.50888 359.00189,215.37219C358.99738,216.26773 358.52228,217.08009 358.00189,217.5457C357.18091,218.28024 357.02274,219.0034 357.00189,220.0457C356.9863,220.82603 357.0647,221.78487 356.99289,222.67752C356.93655,223.37787 356.25262,224.21561 355.70724,224.72037C355.01199,225.36386 355.00198,226.32486 355.00189,227.22485C355.0018,228.12469 354.52048,228.78065 354.12323,229.46753C353.68787,230.22029 353.38486,231.01201 352.94922,231.72935C352.53476,232.41183 352.08279,233.34154 352.01257,234.16353C351.93744,235.04306 351.7179,235.87686 351.42722,236.74886C351.12323,237.66069 350.77463,238.46458 350.42722,239.17419C350.00531,240.036 350.28339,240.90999 349.88757,241.72485C349.51959,242.48241 348.32025,242.70258 348.02322,243.62486C347.74725,244.48177 348.14154,245.44986 347.83524,246.3582C347.58813,247.09103 347.01761,247.87057 346.52274,248.4832C345.93616,249.20934 345.66528,249.95407 345.00189,250.69153C344.43478,251.32195 344.08255,252.16054 344.00189,253.02486C343.94693,253.61398 343.57025,254.72888 343.00189,255.3582C342.44025,255.9801 342.46509,257.00482 341.91791,257.73819C341.40961,258.41946 340.49789,258.82288 340.16855,259.69153C339.88864,260.42972 339.6633,261.3335 339.05005,261.97668C338.44745,262.6087 337.74954,263.18683 337.33524,264.02487C336.96524,264.77328 337.06909,265.62286 336.48105,266.50403C336.00983,267.21014 335.38095,267.73529 334.98105,268.54568C334.58066,269.35706 334.06848,270.12326 333.16855,270.69153C332.5694,271.06989 331.45956,270.94583 331.04556,271.74368C330.68793,272.43289 330.35153,273.45648 329.94391,273.97302C329.5159,274.51538 328.75717,275.19159 328.25656,276.0542C327.72543,276.96942 327.34418,277.50699 326.50189,278.04568C325.75342,278.52438 325.44931,279.22177 324.70639,279.91504C324.07544,280.50381 324.1752,281.47397 323.56589,281.99954C322.85352,282.61398 322.26797,283.06311 321.91791,283.82486C321.57333,284.57462 320.87781,285.32791 320.2019,285.73953C319.35941,286.25259 319.439,287.03641 318.83124,287.73953C318.25769,288.40308 317.0975,288.29684 317.00189,289.1347C316.90094,290.01938 316.67603,290.79358 315.83524,291.35818C315.32257,291.70245 314.61142,292.40128 314.02356,293.2247C313.61758,293.79333 313.17981,294.51733 313.01257,295.6142C312.88699,296.43777 312.51135,297.36603 312.1499,297.79285C311.51813,298.53891 310.96939,298.95511 310.25522,300.0542C309.84631,300.68347 309.21561,301.22391 308.56989,301.82486C307.85522,302.48996 307.69327,303.10568 306.86591,304.07687C306.31989,304.71783 305.98874,305.01303 305.41257,305.66687C304.4657,306.74136 304.21408,307.5506 303.71655,308.22354C303.14835,308.9921 302.28644,309.19391 302.00189,310.02487C301.7171,310.8566 301.27444,311.51306 300.94922,312.31952C300.63684,313.09415 300.03177,313.73792 300.00323,314.62753C299.97156,315.61536 300.24362,316.41391 299.7179,317.30887C299.29169,318.03439 298.65945,318.6871 298.29657,319.44904C297.99426,320.0838 297.64603,320.76639 297.33524,321.85818C297.05579,322.83997 297.36264,323.56018 296.83524,324.52487C296.42236,325.28006 295.36719,325.50916 295.08722,326.50754C294.90897,327.14322 295.00189,328.24619 295.00189,329.08618C295.00189,329.87552 295.00189,330.91953 295.00189,331.7392L295.00189,332.43387L295.00189,333.42487L295.00189,334.22485" id="svg_22" stroke-width="3" stroke="#000" fill="none"/>
  <path t="105750,105861,105870,105884,105901,105901,105917,105926,105933,105949,105949,105965,105973,105973,105973,105981,105981,105990,105990,105997,105997,106013,106022,106029,106038,106045,106053,106085,106094,106094,106101,106101,106125,106133,106141,106149,106158,106158,106181,106197,106197,106221,106221,106237,106246,106253,106277,106277,106285,106286,106301,106316,106325,106325,106333,106341,106349,106355,106355,106363,106379,106387,106387,106395,106403,106411,106419,106435,106439,106454,106459,106467,106467,106483,106483,106499,106507,106515,106515,106540,106540,106549,106555,106563,106571,106579,106579,106587,106603,106603,106612,106628,106636,106645,106645,106655,106659,106659,106671,106675,106691,106691,106699,106699,106715,106715,106731,106755,106755,106763,106763,106771,106779,106779,106787,106795,106819,106819,106827,106835,106835,106845,106860,106860,106868,106868,106884,106884,106900,106908,106916,106924,106924,106955,106972,106980,106980,106988,107004,107012,107020,107020,107036,107068,107068,107076,107084,107092,107100,107108,107108,107116,107124,107132,107132,107149,107149,107155,107155,107163,107171,107171,107188,107188,107196,107204,107204,107212,107212,107220,107228,107228,107236,107244,107253,107260,107402" d="M371.00189,215.02486C371.00189,215.82619 371.00189,216.73953 371.00189,217.59953C371.00189,218.59419 371.00253,219.37669 371.00189,220.2677C371.00122,221.22353 370.43118,221.83311 370.08722,222.59286C369.78568,223.25894 370.00189,224.39102 370.00189,225.3582C370.00189,226.0302 370.00189,226.7742 370.00189,227.88203C370.00189,228.77303 370.13962,229.71635 369.88757,230.37219C369.50269,231.37373 368.44806,231.55455 368.07388,232.42487C367.71725,233.25432 368.00189,234.22485 368.00189,235.12486C368.00189,236.02486 368.00189,236.94086 368.00189,237.8582C368.00189,238.7392 368.00189,239.43387 368.00189,240.4222C368.00189,241.31053 368.01895,242.24654 368.00189,243.12469C367.98389,244.05072 367.33591,244.58498 366.70639,245.32936C366.24387,245.8763 366.0199,246.8497 366.00189,247.8582C365.98752,248.66307 366.00189,249.59286 366.00189,250.31953C366.00189,251.3102 366.08145,252.22711 366.00189,253.10886C365.91821,254.03613 365.34866,254.63283 364.80322,255.50752C364.40591,256.14465 364.26456,257.13892 363.83524,257.85818C363.35492,258.66287 363.06421,259.22513 362.57657,259.96353C362.09311,260.69562 362.02176,261.43573 362.00174,262.34604C361.98376,263.16409 361.39139,263.79251 360.7179,264.31018C360.0032,264.8595 360.19852,265.85941 359.94473,266.72485C359.68744,267.60233 359.28259,268.40225 358.88757,269.1347C358.48935,269.87314 357.40842,270.13156 357.02322,271.07553C356.71671,271.82669 356.91391,272.90805 356.48105,273.50403C355.8996,274.30463 355.3501,274.85104 354.94922,275.72485C354.61642,276.45026 353.74524,277.00043 353.28723,277.73953C352.81308,278.50473 353.17361,279.60092 352.39124,280.00354C351.54202,280.44055 350.97583,280.63516 350.57657,281.43552C350.12256,282.34561 350.41537,283.30566 349.9299,284.03952C349.44141,284.77789 348.30664,284.70871 348.01089,285.72485C347.75937,286.58902 348.04459,287.65582 347.29657,287.9722C346.61554,288.26022 346.02383,288.81418 345.64474,289.67303C345.35001,290.34082 344.43607,290.88818 343.7019,291.38202C342.9133,291.91248 342.52191,292.60797 341.51923,292.9422C340.88208,293.1546 340.28976,293.8028 339.91922,294.45685C339.47165,295.24689 339.21109,296.09369 338.88757,296.72485C338.50342,297.47433 337.41843,297.58032 336.52274,298.04568C335.72061,298.46243 335.57269,299.26187 334.94922,300.07303C334.45068,300.72165 333.53961,301.26794 332.82724,301.58887C331.91278,302.00085 331.27463,302.39069 330.97656,303.17419C330.66177,304.00168 329.63266,303.81152 328.86322,304.09686C328.06598,304.39252 328.19147,305.54495 327.71655,306.31018C327.33176,306.93021 326.59564,307.59912 325.83255,308.10886C325.19095,308.53745 324.17667,308.90564 323.36356,309.02036C322.43332,309.15161 322.28473,310.05328 321.66858,310.69153C321.1572,311.22125 320.22366,311.44412 319.7179,312.22354C319.26099,312.92767 318.36279,313.2059 317.70724,313.72937C316.97833,314.31143 316.7778,315.24377 316.20056,315.8262C315.60986,316.42221 315.38074,317.51306 314.64474,317.96768C313.92697,318.41104 313.28839,318.5188 312.94922,319.31952C312.62576,320.08313 311.68808,320.36728 311.00189,321.02487C310.34555,321.65387 310.21039,322.52164 309.9299,323.17419C309.54385,324.07236 308.41501,323.97321 307.63791,324.46085C306.91785,324.91269 306.35904,325.66766 305.71655,326.31018C305.20056,326.8262 304.50287,327.55515 303.68073,328.12503C303.03888,328.56995 302.32629,329.18814 302.02274,330.00403C301.70721,330.85211 300.78796,331.1427 300.35907,331.72937C299.80386,332.48883 299.28589,333.10886 299.00323,333.8262L298.83124,334.73953L298.00189,335.02487" id="svg_23" stroke-width="3" stroke="#000" fill="none"/>
  <path t="109838,109943,109964,109964,109980,109980,109996,110012,110012,110012,110028,110028,110028,110036,110060,110060,110076,110084,110084,110084,110131,110137,110137,110149,110149,110164,110164,110172,110172,110188,110188,110196,110209,110209,110217,110217,110217,110233,110233,110233,110241,110241,110252,110267,110267,110275,110299,110307,110323,110323,110339,110339,110347,110356,110363,110371,110387,110395,110419,110419,110419,110427,110427,110435,110435,110443,110443,110443,110443,110453,110453,110467,110491,110491,110515,110523,110547,110556,110563,110571,110604,110604,110619,110619,110626,110634,110707,110715,110723,110723,110723,110731,110739,110739,110739,110747,110756,110763" d="M448.00189,249.02486C448.04355,250.02486 448.64639,250.70586 449.29657,251.13019C450.00455,251.59224 450.00049,252.54219 450.00189,253.5457C450.00333,254.56786 449.98465,255.29887 450.05905,256.13385C450.13873,257.02805 450.33746,257.91626 450.57657,258.71686C450.86023,259.66663 451.00189,260.59286 451.00189,261.31952C451.00189,262.39102 450.98541,263.35849 451.00641,264.0257C451.03592,264.96338 451.55225,265.73608 451.8804,266.46768C452.25549,267.30392 451.9563,268.28415 452.08722,268.9942C452.28125,270.04639 452.6221,270.76257 452.83524,271.69153C453.03421,272.55878 453.00189,273.46753 453.00189,274.31952C453.00189,275.2782 453.00189,276.09186 453.00189,276.82086C453.00189,277.85818 453.00153,278.79953 453.00189,279.47754C453.00256,280.70752 452.95319,281.51328 453.08722,282.25552C453.26422,283.23572 453.82364,283.88589 453.96591,284.85019C454.11313,285.84802 454.00189,286.6142 454.00189,287.50403C454.00189,288.4502 454.00189,289.27954 454.00189,290.08737C454.00189,291.02402 454.00189,292.05554 454.00189,292.77304C454.00189,293.67303 454.00189,294.69153 454.00189,295.54568C454.00189,296.42487 454.00189,297.32037 454.00189,298.1582C454.00189,299.1622 454.00189,299.73685 454.00189,300.67136C454.00189,301.76038 454.00189,302.59286 454.00189,303.46753C454.00189,304.1662 454.00189,305.36218 454.00189,306.13687C454.00189,306.95953 454.00189,307.7742 454.00189,308.86002C454.00189,309.69553 454.00189,310.69153 454.00189,311.59286C454.00189,312.31952 454.00189,313.31018 454.00189,314.22485C454.00189,315.12485 454.00189,316.02487 454.00189,316.90353C454.00189,317.74088 454.00189,318.59286 454.00189,319.45685C454.00189,320.46753 454.00189,321.17419 454.00189,322.19287C454.00189,323.02487 454.00131,324.00403 454.00189,324.84369C454.00256,325.79285 453.94312,326.53632 454.08722,327.25687C454.31485,328.39523 454.99448,329.19617 455.40189,329.83954C455.79483,330.46008 456.56589,331.07553 456.96591,331.87552L457.00223,332.78201" id="svg_24" stroke-width="3" stroke="#000" fill="none"/>
  <path t="111463,111563,111578,111590,111594,111613,111629,111629,111645,111653,111661,111676,111692,111716,111716,111724,111732,111732,111757,111757,111757,111764,111772,111788,111796,111811,111811,111819,111819,111835,111843,111843,111853,111876,111880,111884,111900,111900,111908,111916,111936,111948,111948,111957,111957,111981,111981,111985,111997,112017,112025,112052,112052,112060,112089,112089,112089,112097,112129,112137,112172,112186,112186,112194,112194,112202,112210,112218,112226,112242,112260,112267,112275,112283,112299,112299,112315,112315,112323,112339,112339,112356,112366,112379,112387,112395,112395,112411,112419,112435,112443,112460,112783,112793,112804,112812,112828,112836,112915,112915,112933,112956,112966,112966,113084,113124,113133,113140,113140,113164" d="M475.00189,249.02486C473.28723,249.19553 473.01233,250.02469 473.00189,250.96353C472.99231,251.82614 473.00189,252.66086 473.00189,253.67303C473.00189,254.45552 473.00189,255.38203 473.00189,256.32486C473.00189,257.22354 472.94452,258.09973 473.01257,258.8862C473.09744,259.86694 473.74881,260.55289 473.96591,261.43552C474.18362,262.32071 473.94067,263.06146 474.16855,264.02487C474.35974,264.83322 474.8371,265.51468 474.98105,266.50403C475.11368,267.4155 475.01605,268.31387 475.50189,269.04568C475.95834,269.73322 475.98914,270.45148 476.28589,271.42352C476.52493,272.20654 476.95917,273.13644 477.00189,274.02487C477.04031,274.82394 476.71729,275.79538 477.07388,276.62485C477.44806,277.49518 478.47186,277.68121 478.83124,278.50885C479.18109,279.31451 479.00189,280.38885 479.00189,281.22354C479.00189,282.19153 479.00131,283.02487 479.00189,283.8392C479.00256,284.79285 478.87927,285.55194 479.16855,286.69153C479.34326,287.37982 479.95917,288.22021 480.00189,289.04568C480.04477,289.87442 480.00189,290.85419 480.00189,291.73468C480.00189,292.54221 480.00189,293.41019 480.00189,294.35818C480.00189,295.26486 480.00189,295.96237 480.00189,297.06854C480.00189,297.97668 480.00189,298.73019 480.00189,299.69153C480.00189,300.59552 480.00189,301.43387 480.00189,302.42352C480.00189,303.18887 480.00189,304.13953 480.00189,305.02487C480.00189,305.97668 480.33481,306.85434 479.83524,307.69153C479.3728,308.46646 479.00189,309.08618 479.00189,309.87552C479.00189,310.85419 478.41638,311.57806 478.00189,312.04568C477.30475,312.83218 477.01321,313.61401 477.00189,314.54568C476.9902,315.50879 477.19971,316.29565 476.71655,317.13818C476.21188,318.01822 475.14343,318.01926 474.99741,318.73019C474.80124,319.68518 474.20126,320.05215 473.61255,320.87552C473.07224,321.6312 473.13846,322.53525 472.64923,323.32037C472.1842,324.06665 471.94379,324.72885 471.50189,325.52487C471.05811,326.32434 471.03055,327.22531 471.00189,328.12469C470.9733,329.02173 470.09579,329.3476 470.01257,330.17419C469.92227,331.07104 470.29568,332.10608 469.55923,332.78201C469.00513,333.29059 468.03857,333.45862 468.00189,334.32486C467.96384,335.22406 467.7804,336.12485 467.29739,336.72485L466.61255,337.43552" id="svg_25" stroke-width="3" stroke="#000" fill="none"/>
  <path t="121339,121454,121465,121469,121505,121518,121518,121533,121541,121541,121562,121570,121570,121582,121582,121597,121614,121690,121718,121718,121723,121742,121754,121803,121822,121844,121844,121860,121860,121876,121884,121884,121923,121930,121930,121971,121987,122021,122021,122028,122036,122053,122085,122085,122110,122123,122123,122132,122156,122204,122204,122213,122221,122228,122228,122244,122252,122252,122268,122276,122292,122300,122308,122316,122324,122324,122340,122348" d="M228.00189,183.02486C227.00189,183.02486 226.11856,183.06721 225.50189,183.52486C224.75403,184.07986 224.05084,184.59128 224.00639,185.37669C223.95605,186.26633 223.80887,187.14894 223.29739,187.72485C222.6371,188.46835 222.02132,189.20393 221.6019,189.83952C221.02795,190.70929 220.46181,191.12523 220.00172,191.90353C219.58763,192.60406 219.19853,193.43768 218.55923,194.12486C218.09196,194.62714 217.18716,195.2281 217.00189,196.02486C216.79666,196.90744 216.32866,197.5937 215.57657,197.98886C214.77213,198.41153 213.65585,197.9034 213.17123,198.59286C212.65369,199.32918 212.35349,199.96492 211.35373,200.02936C210.5687,200.07996 210.04176,200.73534 209.29657,201.32036C208.63672,201.83838 208.20522,202.48312 207.71657,203.22353C207.19008,204.02126 206.27322,203.83186 205.4019,204.06087C204.54607,204.2858 204.30283,205.47298 203.55923,205.90337C202.81493,206.33417 201.72458,205.8669 200.9019,206.2462C200.23366,206.55431 199.3967,206.9817 199.00189,207.52486C198.50427,208.20944 197.9214,208.79491 196.98723,209.01419C196.25993,209.18492 195.17656,209.02486 194.4859,209.02486C193.50189,209.02486 192.51923,209.02486 191.71173,209.02486C190.78056,209.02486 189.892,209.01463 189.00189,209.02486C188.07372,209.03552 188.41359,210.09999 187.7804,210.78186C187.22545,211.37947 186.2019,211.02486 185.3019,211.02486L184.4019,211.02486" id="svg_26" stroke-width="3" stroke="#000" fill="none"/>
 </g>
</svg>