<svg width="500" height="333.3333333333333" xmlns="http://www.w3.org/2000/svg" xmlns:svg="http://www.w3.org/2000/svg" xmlns:xlink="http://www.w3.org/1999/xlink">
 <!-- Created with SVG-edit - http://svg-edit.googlecode.com/ -->
 <g display="inline" class="layer">
  <title>Layer 1</title>
  <path t="0,147,148,167,167,173,173,195,196,217,217,217,222,222,242,242,268,268,288,308,308,318,318,318,318,342,344,344,352,353,357,365,388,389,393,394,394,396,397,397,406,406,413,413,413,433,434,438,438,439,439,439,450,450,472,473,474,474,486,486,486,488,488,600,631,632,633,633,633,633,641,641,641,641,641,641,666,666,666,667,667,667,678,678,678,678,678,679,680,680,680,680,680,680,680,702,702,709,709,709,718,718,729,730,730,732,732,801,823,824,825,825,825,825,825,884,884,884,884,884,885,885,885,885,897,898,898,898,898,898,898,898,898,1089,1089,1089,1089,1089,1089,1089,1089,1089,1356,1356,1356,1356,1356,1356,1356,1357,1357,1366,1366,1366,1366,1366,1366,1366,1366,1366,1395,1399" d="M94.5,83.66666C95.5,82.66666 95.4706,81.90887 95.5045,81.0095C95.53272,80.26085 95.79022,79.27033 96.07467,78.50267C96.42638,77.55349 96.7259,76.75266 97.352,76.18134C97.97296,75.6147 98.78705,75.15247 99.24533,74.26667C99.63168,73.51991 99.62871,72.42347 100.02084,71.70834C100.49523,70.84317 101.27685,70.54116 102.02084,70.16666C102.96062,69.69361 103.7708,69.67655 104.66666,69.33334C105.4749,69.02369 105.95835,68.62825 106.73067,68.23466C107.81227,67.68347 108.67177,67.74029 109.5,67.64584C110.4924,67.53266 111.14836,66.86651 112,66.6875C112.88099,66.50232 113.82937,66.71838 114.556,66.496C115.58139,66.1822 116.17342,65.81033 116.824,65.51733C117.99544,64.98975 118.63196,64.72636 119.46667,64.66933C120.50741,64.59824 121.28534,64.67001 122.33334,64.66666C123.03834,64.66441 124.01595,64.58822 124.91734,64.24133C125.48301,64.02364 126.70598,63.77545 127.56783,63.72383C128.03697,63.69574 129.00931,63.67318 129.96533,63.668C131.21416,63.66124 131.87584,63.66667 132.69333,63.66667C133.66667,63.66667 134.45267,63.66667 135.27467,63.66667C136.33333,63.66667 137.26401,63.66667 138.09866,63.66667C139.0955,63.66667 139.84283,63.66667 140.87466,63.66667C141.82167,63.66667 142.54167,63.66523 143.66667,63.66667C144.18933,63.66734 145.08412,63.67476 145.776,63.72383C147.0018,63.81079 147.95421,63.94769 148.46249,64.02834C149.52277,64.19657 150.06561,64.28944 151.13333,64.55334C152.17267,64.81021 153.13426,65.14417 153.59016,65.32833C154.4866,65.69045 155.35091,66.12312 155.78267,66.35333C157.13043,67.07197 157.58704,67.35135 158.54666,67.90266C159.04187,68.18716 160.06041,68.77338 160.58667,69.068C161.66414,69.67121 162.21931,69.96889 163.33467,70.55767C163.882,70.8466 164.41833,71.12184 165.41867,71.65234C165.87543,71.89456 167.26932,72.70647 167.9375,73.125C168.82469,73.68071 169.5096,73.95632 170.24933,74.26667C171.17216,74.65383 171.85605,75.05872 172.66667,75.83334C173.16357,76.30817 173.67467,76.84133 174.4785,77.64516C175.08934,78.256 175.69148,78.88313 176.20799,79.33867C176.98183,80.02117 177.57509,80.42657 178.21867,81.01334C178.99002,81.71658 179.38594,82.16321 179.78934,82.66666C180.7021,83.80583 181.13145,84.51144 181.58533,85.26667C182.06783,86.06953 182.54308,86.93628 183.02083,87.85416C183.51807,88.80951 184.01155,89.80914 184.50133,90.84666C185.51462,92.99316 186.00119,94.10683 186.49466,95.22134C186.98384,96.32619 187.4565,97.41104 187.91667,98.45834C188.35519,99.45635 188.7636,100.3932 189.15866,101.24533C189.82043,102.67271 190.09378,103.22318 190.37733,103.644C190.61601,103.99823 190.88809,104.27567 191.20833,104.4375C191.54634,104.60831 191.98064,104.68443 192.48933,104.736C193.82997,104.87192 194.69875,104.88702 195.67599,104.952C196.73741,105.02258 197.85484,105.10018 199,105.1875C200.14554,105.27485 201.26349,105.36246 202.32401,105.468C204.16824,105.65154 204.90079,105.75546 205.504,105.86667C205.99693,105.95754 206.39043,106.05241 206.6875,106.16666C206.91917,106.25576 207.07983,106.36667 207.196,106.46667L207.464,107.06667L207.5,107.96667" id="svg_1" stroke-width="3" stroke="#000" fill="none"/>
  <path t="2598,2667,2689,2689,2693,2693,2693,2693,2693,2693,2701,2702,2702,2702,2729,2729,2729,2729,2736,2736,2736,2736,2736,2736,2741,2742,2742,2750,2750,2750,2750,2759,2759,2775,2775,2775,2793,2793,2793,2815,2815,2847,2876,2877,2905,2910,2910,2935,2965,2965,2968,2968,2990,2990,2992,2997,2997,3004,3004,3030,3030,3038,3039,3039,3093,3093,3156,3164,3164,3173,3173,3173,3173,3173,3187,3187,3187,3187,3187,3187,3187,3187,3190,3190,3190,3190,3190,3190,3196,3196,3196,3196,3196,3196,3196,3196,3196,3205,3205,3205,3205,3205,3206,3206,3226,3226,3226,3226,3226,3227,3229,3229,3229,3229,3229,3229,3230,3237,3238,3238,3238,3260,3260,3260,3379,3396,3396,3404,3416,3419,3431,3431,3437,3438,3438,3461,3461,3463,3463,3463,3469,3493,3493,3503,3503,3530,3530,3547,3560,3590,3590,3605,3605,3628,3633,3638,3662,3669,3696,3696,3723,3732,3748,3767,3778,3788,3806,3831,3832" d="M5.5,57.66667C6.11067,56.06667 6.70533,55.46133 7.244,54.92267C8.16667,54 8.48374,53.67956 9.21517,52.956C9.61105,52.56437 10.43012,51.76315 10.8465,51.37733C11.9877,50.3199 12.64243,49.80326 13.192,49.38933C13.88454,48.86772 14.70106,48.12402 15.118,47.65233C15.58378,47.12539 16.0904,46.51105 17.16667,45.66667C17.57156,45.34901 18.50174,44.7724 18.99067,44.49867C19.95419,43.95923 20.41558,43.70089 21.66667,43.16667C22.51716,42.8035 23.36055,42.59527 24.264,42.22383C24.86633,41.9762 25.83251,41.49686 26.448,41.14933C27.46131,40.57719 28.10728,40.01455 29.043,39.56683C29.75056,39.22828 30.3091,39.04201 31.5,38.83333C32.38423,38.67839 33.22795,38.672 34.16667,38.66667C34.95832,38.66217 35.9,38.66667 36.8,38.66667C37.7,38.66667 38.60127,38.61887 39.5,38.66667C40.3034,38.70939 41.06023,39.1308 41.69867,39.86934C42.19302,40.4412 42.40017,41.43538 42.5,42.14583C42.64392,43.17012 43.3365,43.80517 43.47917,44.6875C43.6321,45.63327 43.47044,46.41996 43.5045,47.32383C43.53271,48.07249 43.81086,49.05913 44.07467,49.90267C44.36298,50.82458 44.4623,51.61393 44.48933,52.40533C44.52752,53.52306 44.10245,54.49118 44.572,55.23067C44.97469,55.86486 46.02909,55.64109 47.14367,55.44483C47.83664,55.32281 48.6276,55.11326 49.53767,54.84784C50.0455,54.69973 51.16849,54.33862 52.436,53.89867C53.11165,53.66415 53.80133,53.416 54.5,53.16667C55.19867,52.91734 55.88835,52.66919 56.564,52.43467C57.83151,51.99471 58.965,51.63035 59.49833,51.4765C60.53854,51.17644 61.07122,51.0429 62.20667,50.784C63.49768,50.48963 64.22803,50.34535 65.004,50.18134C65.81604,50.00969 66.65253,49.83305 67.5,49.64583C68.34853,49.45839 69.18614,49.2708 69.996,49.06533C71.50416,48.6827 72.17319,48.47305 72.78933,48.268C73.36346,48.07693 74.39577,47.68733 74.872,47.50267C75.77721,47.15167 77.11975,46.68019 77.58933,46.552C78.56361,46.28604 79.08125,46.17666 80.176,45.97117C80.75628,45.86224 81.99986,45.66569 82.6635,45.5665C84.0442,45.36014 84.7446,45.25967 85.4375,45.14583C86.1166,45.03426 86.78941,44.98243 88.5,44.5C88.97713,44.36544 89.78859,44.06385 90.636,43.492C91.53657,42.88428 92.06429,42.36356 92.84283,42.02833C93.71417,41.65314 94.75651,41.75785 95.21467,42.468C95.67253,43.1777 95.49992,44.16667 95.5,45.07734C95.50008,45.98817 95.46602,46.89304 95.72134,47.86667C95.88209,48.47967 96.29721,49.25172 96.44283,50.27117C96.56364,51.11687 96.5,52.08783 96.5,52.88133C96.5,53.65683 96.5,54.696 96.5,55.66667C96.5,56.481 96.5,57.43467 96.5,58.16667C96.5,59.33333 96.5,60.125 96.5,60.96667C96.5,61.86667 96.40717,62.78259 96.58533,63.552C96.81084,64.52583 97.33522,65.1578 97.47916,66.14584C97.61195,67.05728 97.5,67.96667 97.5,68.86667C97.5,69.76667 97.5,70.66666 97.5,71.46667C97.5,72.36667 97.5,73.26667 97.5,74.16666C97.5,75.06667 97.5,75.96667 97.5,76.86667L97.5,77.76667L97.5,78.66666L97.5,79.46667" id="svg_2" stroke-width="3" stroke="#000" fill="none"/>
  <path t="6389,6651,6651,6651,6677,6677,6677,6696,6696,6696,6696,6696,6700,6700,6700,6718,6732,6732,6732,6732,6740,6740,6757,6765,6765,6785,6800,6835,6835,6845,6851,6868,6885,6886,6893,6911,6911,6911,6918,6918,6928,6932,6933,6933,6940,6940,6965,6965,6965,6967,6967,6967,6990,6990,6990,7019,7020,7020,7049,7049,7051,7065,7069,7069,7084,7084,7092,7092,7092,7092,7106,7106,7106,7124,7124,7128,7128,7132,7132,7141,7141,7167,7168,7197,7198,7216,7216,7224,7230,7236,7236,7252,7252,7252,7253,7261,7261,7261,7261,7261,7261,7262,7268,7268,7268,7268,7276,7276,7291,7292,7292,7297,7297,7297,7326,7326,7388,7388,7396,7396,7406,7406,7406,7427,7427,7432,7433,7433,7433,7433,7433,7436,7436,7436,7460,7460,7463,7463,7523,7523,7596,7596,7604,7623,7623,7628,7629,7629,7638,7638,7851,7883,7900,7919,7919,7924,7953,7953,7958,7958,7987,7987,7996,7996,8017,8017,8091,8126,8126,8127,8128,8165,8165,8823,8823" d="M7.5,158.66667C8.06933,155.98267 8.52023,155.16631 8.85183,154.61934C9.4777,153.58698 9.88224,152.86896 10.30983,152.09967C10.82958,151.16458 11.26652,150.41513 11.50533,150.01317C11.99696,149.18568 12.47769,148.37076 13.16667,147.33333C13.5194,146.80219 14.03334,146.10437 14.496,145.24533C14.9901,144.32793 15.3427,143.88882 16.02083,143.16667C16.49188,142.66505 17.41769,141.86299 17.9375,141.20833C18.4868,140.51653 18.84001,139.67545 19.5,139.16667C20.26504,138.5769 20.82697,137.93304 21.5,137.33333C22.12216,136.77895 22.66048,136.20122 23.33333,135.5C23.8948,134.91486 24.62408,134.47363 25.2,133.96217C25.9435,133.30188 26.64367,132.62415 27.336,132.27733C28.07954,131.90486 28.89629,131.71634 29.84283,131.67117C30.74635,131.62807 31.66592,131.49805 32.336,131.24133C33.10049,130.94844 34.12393,130.80719 34.9,130.55684C35.948,130.21877 36.48142,129.59895 37.18533,129.23466C38.13988,128.74068 38.99933,128.68991 39.816,128.66933C40.81702,128.64409 41.52083,128.66667 42.26933,128.66667C43.46667,128.66667 44.14,128.66667 45.1375,128.66667C46.2355,128.66667 47.068,128.66667 47.9,128.66667C48.8045,128.66667 49.66667,128.66667 50.5,128.66667C51.479,128.66667 52.367,128.66667 53.26433,128.66667C54.19733,128.66667 54.896,128.66667 55.61867,128.66667C56.67817,128.66667 57.64267,128.66667 58.48117,128.66667C59.532,128.66667 60.30543,128.65451 61.268,128.668C62.00019,128.67825 63.18606,128.78839 63.828,129.092C64.73296,129.52 65.38533,129.666 66.336,129.66667C67.10133,129.66721 68.10672,129.60774 68.9,129.72383C69.91232,129.87198 70.70369,130.20148 71.39017,130.96217C71.92669,131.55672 72.82166,131.66667 73.54166,131.66667C74.66666,131.66667 75.47517,131.66667 76.10416,131.66667C76.83317,131.66667 78.16666,131.66667 78.68533,131.66667C79.81067,131.66667 80.40134,131.66667 81,131.66667C82.18933,131.66667 82.764,131.66667 84.31384,131.66667C85.16683,131.66667 85.89584,131.66667 86.80933,131.66667C87.816,131.66667 88.72533,131.66667 89.66666,131.66667C90.45267,131.66667 91.27467,131.66667 92.33334,131.66667C93.264,131.66667 93.8955,131.66667 94.9,131.66667C95.7,131.66667 96.70737,131.57712 97.664,131.70267C98.49258,131.8114 99.13663,132.32472 100.04266,132.76666C100.73377,133.10376 101.5348,133.29094 102.53467,133.86934C103.25557,134.28636 104.16521,135.00224 104.836,135.436C105.20986,135.67775 106.0065,136.17796 106.78933,136.71851C107.1672,136.97943 108.36361,137.97536 108.9375,138.60417C109.38281,139.0921 110.3599,139.54512 111.10133,139.83467C111.93282,140.15939 112.48939,140.67688 113.33334,141.5C113.87059,142.02399 114.53318,142.85097 115.1,143.23067C115.92345,143.78229 116.93537,143.68021 117.556,143.58133C118.55898,143.42154 119.49876,143.16118 120.142,143.01933C121.23347,142.77864 122.08921,142.68274 122.9,142.24133C123.72364,141.79292 124.6,141.66667 125.5,141.66667C126.3,141.66667 127.136,141.66667 127.98534,141.66667C128.9045,141.66667 129.89867,141.66667 130.664,141.66667C131.61734,141.66667 132.46933,141.66667 133.26801,141.66667C134.24933,141.66667 135.24646,141.99771 136.04266,141.63066C136.79997,141.28154 137.37138,140.68582 138.10266,140.668C139.09972,140.64369 139.89999,140.66667 140.89999,140.66667L141.7,140.66667L142.70016,140.66667L143.52083,140.66667" id="svg_3" stroke-width="3" stroke="#000" fill="none"/>
  <path t="9966,9987,9987,9987,9987,9987,10000,10000,10000,10000,10000,10000,10000,10000,10006,10006,10006,10006,10006,10006,10006,10006,10006,10012,10012,10012,10012,10012,10012,10012,10012,10013,10025,10025,10025,10025,10025,10025,10025,10025,10025,10029,10029,10029,10029,10029,10029,10029,10030,10030,10047,10047,10047,10047,10047,10047,10047,10047,10047,10052,10053,10053,10053,10053,10053,10053,10053,10053,10069,10069,10069,10069,10069,10070,10070,10070,10070,10076,10076,10076,10076,10076,10076,10076,10076,10076,10090,10090,10090,10090,10090,10090,10090,10090,10091,10092,10092,10092,10092,10092,10092,10093,10093,10093,10111,10112,10112,10112,10112,10112,10112,10112,10112,10118,10118,10118,10118,10118,10119,10119,10119,10119,10135,10136,10136,10136,10136,10136,10136,10136,10141,10142,10142,10156,10156,10174,10194,10194,10198,10198,10198,10198,10198,10216,10217,10222,10222,10222,10233,10233,10371,10372,10385,10385,10385,10385,10385,10385,10386,10386,10387,10387,10387,10387,10387,10387,10388,10388,10388,10398,10398,10398,10398,10398,10398,10398,10398,10398,10405,10405,10405,10405,10405,10405,10405,10405,10405,10428,10429,10429,10429,10429,10429,10446,10446,10446,10446,10446,10447,10447,10447,10447,10461,10461,10461,10461,10461,10478,10478,10496,10496,10497,10515,10515,10515,10515,10521,10521,10521,10522,10522,10522,10522,10550,10550,10550,10550,10550,10550,10551,10551,10558,10559,10559,10559,10559,10559,10559,10560,10560,10577,10577,10577,10577,10577,10578,10578,10578" d="M4.5,276.66666C8.9005,276.44482 9.71841,276.32065 10.5625,276.10416C11.47734,275.86954 11.96185,275.71091 13.56483,275.12418C14.1609,274.90601 14.77901,274.66174 15.42933,274.42667C16.10265,274.18326 16.80101,273.94345 17.52783,273.72916C18.27174,273.50983 19.83106,273.15228 20.643,273.03116C21.46861,272.90799 22.3137,272.82889 23.172,272.77466C24.04112,272.71976 24.92125,272.69415 25.809,272.68018C26.70261,272.66611 28.5,272.66666 29.40033,272.66666C30.30267,272.66666 31.209,272.66666 32.12133,272.66666C33.04167,272.66666 33.972,272.66666 34.91433,272.66666C35.87067,272.66666 37.83333,272.66666 38.843,272.66666C39.87067,272.66666 40.91433,272.66666 41.972,272.66666C43.04167,272.66666 44.12133,272.66666 45.209,272.66666C46.30267,272.66666 48.5,272.66666 49.6,272.66666C50.7,272.66666 51.8,272.66666 52.9,272.66666C54,272.66666 55.1,272.66666 56.2,272.66666C57.3,272.66666 59.5,272.66666 60.6015,272.66666C61.712,272.66666 62.8405,272.66666 63.996,272.66666C65.1875,272.66666 66.424,272.66666 67.7145,272.66666C69.068,272.66666 72,272.66666 73.59116,272.66666C75.24934,272.66666 76.9515,272.66666 78.67467,272.66666C80.39584,272.66666 82.092,272.66666 83.74017,272.66666C85.31734,272.66666 88.16666,272.66611 89.39983,272.66684C90.512,272.66751 91.52218,272.66879 92.44933,272.67734C93.31252,272.6853 94.13078,272.69907 94.92284,272.72385C95.70812,272.74844 97.33351,272.83066 98.20634,272.888C99.11752,272.94785 100.05441,273.01843 101.00533,273.09201C101.9584,273.16574 102.90128,273.242 103.82233,273.314C104.70928,273.3833 106.3332,273.50217 107.0495,273.54532C107.70255,273.58466 108.29984,273.61395 108.848,273.64133C109.35416,273.6666 109.82551,273.68921 110.2685,273.71933C110.69086,273.74805 111.50056,273.82935 111.89983,273.888C112.29927,273.94666 112.69575,274.01804 113.08933,274.09201C113.47942,274.16534 113.86375,274.24265 114.24284,274.314C114.61443,274.38394 115.33286,274.50385 115.67817,274.54517C116.01157,274.58505 116.33366,274.61212 116.64267,274.63068C116.93736,274.64835 117.2173,274.65738 117.48116,274.66217C117.72797,274.66663 118.16667,274.66553 118.35733,274.66699C118.53201,274.66833 118.69506,274.67142 118.84933,274.68799C119.0005,274.70422 119.15215,274.73358 119.30534,274.78101C119.46978,274.83191 119.83458,274.99765 120.043,275.10934C120.27206,275.23212 120.51377,275.37302 120.772,275.51733C121.04108,275.66772 121.3146,275.8302 121.609,275.96133C122.77575,276.48108 123.677,276.62195 124.48566,276.65765C125.3562,276.69608 126.29733,276.66599 127.136,276.66666C127.98933,276.66733 128.82188,276.67621 130,276.83334C130.75311,276.93378 131.5654,277.09164 132.388,277.24133C133.16273,277.38232 134.11015,277.59445 135.12933,277.65601C136.04123,277.71106 136.76465,277.63797 137.55183,277.72385C138.58525,277.83658 139.5762,277.9491 140.33333,278.5C140.56081,278.66553 139.50024,278.83594 138.28267,278.95065C137.53665,279.02094 136.72145,279.09344 135.85417,279.16666C134.95212,279.24283 134.03212,279.3179 133.11067,279.38266C131.33385,279.50754 130.50716,279.54852 129.72267,279.58133C128.97246,279.6127 128.24805,279.63312 127.54166,279.64584C126.84538,279.65839 126.15101,279.66345 125.45067,279.66534C124.00001,279.66928 123.23583,279.66666 122.44666,279.66666C121.6375,279.66666 120.81333,279.66666 119.97916,279.66666C119.14,279.66666 118.30083,279.66666 117.46667,279.66666C115.83334,279.66666 115.04333,279.66666 114.27333,279.66666C113.52333,279.66666 112.79333,279.66666 112.08334,279.66666C111.39333,279.66666 110.72334,279.66666 110.07333,279.66666C108.24216,279.66666 107.664,279.66666 106.51867,279.66666C105.9375,279.66666 105.34133,279.66666 104.076,279.66666C102.66666,279.66666 101.89367,279.66666 101.08266,279.66666C100.24567,279.66666 99.39467,279.66666 98.54166,279.66666C97.69867,279.66666 96.87767,279.66666 96.09067,279.66666C94.66666,279.66666 94.05083,279.66666 93.5,279.66666C92.57333,279.66666 91.54583,279.66666 90.46933,279.66666C89.75183,279.66666 88.84734,279.66666 87.984,279.66666C86.97916,279.66666 85.95617,279.66666 85.17467,279.66666C84.49866,279.66666 83.67067,279.66666 82.66666,279.66666C81.47733,279.66666 80.82767,279.66666 80.152,279.66666C79.45834,279.66666 78.75467,279.66666 78.049,279.66666C76,279.66666 75.36283,279.66666 74.74267,279.66666C74.1265,279.66666 72.85416,279.66666 72.172,279.66666C71.44183,279.66666 70.65067,279.66666 68.83334,279.66666C67.78733,279.66666 66.66534,279.66666 65.49133,279.66666C64.28934,279.66666 63.08333,279.66666 61.89734,279.66666C60.75533,279.66666 59.68133,279.66666 57.83333,279.66666C57.10083,279.66666 56.49333,279.66666 55.99583,279.66666C55.59333,279.66666 55.27083,279.66666 55.01333,279.66666L54.80583,279.66666" id="svg_4" stroke-width="3" stroke="#000" fill="none"/>
  <path t="11149,11180,11180,11180,11180,11193,11193,11193,11193,11193,11200,11200,11200,11200,11200,11200,11208,11208,11208,11208,11208,11208,11208,11208,11208,11216,11216,11216,11216,11216,11216,11216,11216,11216,11222,11222,11222,11222,11223,11223,11223,11223,11223,11233,11233,11233,11233,11233,11233,11233,11233,11233,11243,11243,11243,11243,11244,11244,11244,11244,11244,11248,11248,11248,11248,11248,11248,11248,11248,11248,11263,11263,11263,11263,11263,11263,11263,11263,11263,11286,11286,11286,11286,11286,11288,11288,11288,11288,11296,11296,11296,11296,11296,11296,11296,11296,11296,11302,11302,11303,11303,11303,11303,11303,11303,11303,11338,11338,11338,11338,11338,11338,11338,11338,11338,11719,11719,11720,11720,11720,11720,11720,11720,11720" d="M50.5,290.66666C52.84,290.66666 53.63334,290.66666 54.50667,290.66666C54.96083,290.66666 56.33333,290.66666 57.216,290.66666C58.07467,290.66666 58.92533,290.66666 59.784,290.66666C60.66667,290.66666 61.59067,290.66666 62.57867,290.66666C63.10417,290.66666 64.23317,290.66666 64.84267,290.66666C66.16666,290.66666 66.886,290.66666 67.64133,290.66666C68.42867,290.66666 69.244,290.66666 70.08334,290.66666C70.94267,290.66666 71.818,290.66666 72.70533,290.66666C74.5,290.66666 75.40034,290.66418 76.30267,290.67065C77.20902,290.67715 78.1216,290.69141 79.04166,290.72916C79.97233,290.76733 80.91599,290.8212 81.87067,290.92267C83.83736,291.13174 84.84453,291.32275 85.87067,291.51999C86.91595,291.72092 87.97229,291.952 89.04166,292.1875C90.12163,292.42532 91.20714,292.67471 92.30267,292.89999C94.49641,293.35114 95.5988,293.53152 96.7,293.69601C97.79886,293.86017 98.89943,293.9996 100,294.125C101.09945,294.25027 102.19976,294.36014 103.3,294.46399C105.49954,294.6716 106.59969,294.76648 107.69733,294.86667C108.79102,294.96649 109.87872,295.06619 110.95834,295.16666C112.02805,295.26617 113.08578,295.36545 114.12933,295.46667C116.16689,295.66431 117.15682,295.7666 118.128,295.86533C119.08116,295.96222 120.01716,296.0578 120.9375,296.14584C121.8425,296.23242 122.73339,296.31512 123.612,296.38135C125.33254,296.51102 126.17944,296.54675 127.02267,296.58533C127.86979,296.62408 128.72823,296.65845 129.60417,296.70834C130.5056,296.75967 131.43977,296.82059 132.41066,296.92133C134.50311,297.13846 135.62883,297.32382 136.80133,297.51999C138.00824,297.72192 139.23131,297.94998 140.45833,298.1875C141.67665,298.42334 142.86963,298.66595 144.02533,298.89999C146.16663,299.33359 147.12704,299.52585 148.01334,299.69467C148.82875,299.85001 149.57951,299.98688 150.27083,300.10416C150.90622,300.21194 151.49179,300.30554 152.03334,300.37866C152.99883,300.509 153.43492,300.5481 153.84134,300.58133C154.21928,300.61224 154.57057,300.63275 154.89583,300.64584C155.19592,300.65793 155.47215,300.66339 155.72533,300.66534C156.16666,300.66876 156.35699,300.66666 156.52933,300.66666C156.68567,300.66666 156.828,300.66666 156.95833,300.66666C157.07866,300.66666 157.19099,300.66666 157.29733,300.66666C157.5,300.66666 157.6328,300.62741 157.64133,300.67599C157.64914,300.72046 157.43066,300.74133 157.08333,300.8125L156.51601,300.91867L155.68466,301.06683L154.54533,301.26401" id="svg_5" stroke-width="3" stroke="#000" fill="none"/>
  <path t="12157,12293,12293,12293,12293,12293,12293,12293,12293,12293,12307,12307,12307,12307,12307,12307,12307,12307,12307,12308,12309,12309,12309,12309,12309,12309,12309,12309,12318,12318,12318,12318,12318,12318,12318,12318,12318,12325,12325,12325,12325,12325,12326,12326,12326,12326,12334,12334,12334,12334,12334,12334,12334,12334,12334,12559,12559,12559,12559,12560,12561,12561,12561,12561,12577,12577,12577,12577,12585,12585,12585,12585,12585,12601,12601,12601,12601,12601,12601,12601,12601,12601,12638,12638,12638,12638,12638,12638,12638,12638,12638,12643,12643,12643,12643,12643,12643,12643,12643,12643" d="M171.5,315.66666C219.33333,314.83334 222.4753,314.78619 225.22934,314.75201C227.63731,314.72211 229.74132,314.70087 231.58333,314.6875C233.20532,314.67575 234.64934,314.66995 235.95734,314.668C238.33333,314.66446 239.4785,314.66666 240.61467,314.66666C241.74283,314.66666 242.864,314.66666 243.97917,314.66666C245.08934,314.66666 246.1955,314.66666 247.29866,314.66666C249.5,314.66666 250.59933,314.66666 251.69467,314.66666C252.782,314.66666 253.85733,314.66666 254.91667,314.66666C255.95599,314.66666 256.97134,314.66666 257.95868,314.66666C259.83334,314.66666 260.71365,314.66666 261.556,314.66666C262.36234,314.66666 263.13467,314.66666 263.875,314.66666C264.58533,314.66666 265.26767,314.66666 265.92401,314.66666C267.16666,314.66666 267.75665,314.66846 268.32666,314.664C268.87671,314.6597 269.40692,314.65094 269.91666,314.625C270.40698,314.60007 270.87881,314.56732 271.32666,314.496C272.1716,314.36145 272.55972,314.2327 272.92667,314.09866C273.27982,313.96964 273.60867,313.8201 273.91666,313.66666C274.20862,313.52118 274.4758,313.37045 274.72665,313.23468C275.16519,312.99728 275.35513,312.9064 275.52533,312.83734C275.67108,312.7782 275.79556,312.73721 275.89584,312.70834C275.97037,312.68689 276.04379,312.69193 276.04132,312.66934C276.03683,312.62817 275.93518,312.66666 275.84134,312.66666C275.19601,312.66666 274.16663,312.66104 273.15866,312.67117C272.76398,312.67514 271.86221,312.6933 270.78534,312.75201C269.49933,312.82214 268.77084,312.88623 267.98801,312.952C267.15683,313.02182 266.28391,313.10159 265.375,313.1875C264.43591,313.27625 263.47293,313.37067 262.492,313.46799C260.49991,313.66565 259.49945,313.76617 258.496,313.86801C257.48645,313.97049 256.4678,314.07568 255.4375,314.1875C254.39182,314.30099 253.32805,314.41998 252.244,314.552C249.99902,314.82541 248.83679,314.98627 247.65601,315.14932C246.46878,315.31326 245.28799,315.48132 244.125,315.64584L242.992,315.80533L241.901,315.95685L240.864,316.09732" id="svg_6" stroke-width="3" stroke="#000" fill="none"/>
  <path t="13165,13212,13212,13220,13220,13220,13220,13220,13220,13238,13239,13239,13239,13239,13239,13239,13239,13239,13243,13243,13243,13243,13243,13243,13243,13243,13243,13253,13253,13253,13253,13253,13253,13253,13253,13253,13277,13277,13277,13277,13277,13277,13277,13277,13277,13279,13279,13279,13279,13279,13279,13279,13279,13279,13285,13285,13285,13285,13285,13285,13285,13285,13285,13318,13318,13318,13318,13318,13318,13318,13318,13318" d="M274.5,291.66666C276.37866,291.65601 277.13486,291.62439 278.16666,291.5C279.04562,291.39401 279.53781,291.31049 280.625,291.14584C281.21475,291.05652 281.83136,290.95551 283.83334,290.66666C284.54266,290.56433 285.27054,290.46576 286.01434,290.36667C286.77188,290.26575 287.5416,290.16617 288.32132,290.06668C289.10895,289.96619 289.90262,289.86627 291.5,289.66666C292.30048,289.56662 293.10376,289.466 293.91351,289.37115C294.73175,289.27533 295.56213,289.18372 296.40799,289.10266C297.27115,289.01996 298.15503,288.93582 300,288.83334C300.96539,288.77972 301.96658,288.74808 303.00751,288.72385C304.09323,288.69858 305.22913,288.68536 306.42001,288.67734C307.67084,288.66891 308.98666,288.66733 311.83334,288.66666C313.37067,288.66629 314.97198,288.66666 316.62134,288.66666C318.30267,288.66666 320,288.66666 321.69733,288.66666C323.37866,288.66666 325.02802,288.66666 328.16666,288.66666C329.62668,288.66666 331.00665,288.66666 332.30667,288.66666C333.52667,288.66666 334.66666,288.66666 335.72665,288.66666C336.70667,288.66666 337.60666,288.66666 339.16666,288.66666C339.828,288.66666 340.41733,288.66666 340.94266,288.66666C341.41199,288.66666 341.83334,288.66666 342.21466,288.66666C342.564,288.66666 342.88934,288.66681 343.5,288.66666C343.7995,288.66656 344.09604,288.66693 344.38651,288.66217C344.66803,288.65756 344.9375,288.64584 345.19199,288.63068L345.4285,288.6095L345.64401,288.58133" id="svg_7" stroke-width="3" stroke="#000" fill="none"/>
  <path t="14333,14533,14533,14558,14558,14558" d="M424.5,291.66666C428.73065,291.66666 429.71466,291.66666 430.66666,291.66666L431.45715,291.66666L432.31067,291.66666" id="svg_8" stroke-width="3" stroke="#000" fill="none"/>
  <path t="25916,26181,26198,26218,26227,26242,26260,26277,26277,26296,26296,26316,26316,26318,26345,26346,26347,26347,26348,26392,26398,26446,26463,26463,26464,26464,26472,26472,26487,26487,26491,26491,26491,26491,26491,26500,26500,26507,26507,26618,26620,26625,26625,26790,26790,26790,26790,27087,27087,27087,27087,27087,27087,27087,27087,27088,27310,27310,27310,27310,27310,27310,27310,27311,27311,27327,27327,27327,27327,27345,27345,27364,27385,27409,27409,27429,27429,27449,27451,27468,27484,27508,27524,27547,27547,27563,27592,27592,27597,27628,27645,27683,27683,27724,27745,27748,27764,27764,27784,27789,27816,27816,27851,27851,27867,27879,27908,27941,27972,27996,28012,28012,28028,28051,28063,28083,28083,28100,28100,28116,28131,28132,28247,28273,28286,28286,29036,29051,29066,29066,29069,29087,29087,29092,29148,29148,29340,29340,29372,29405,29460,29460,29580,29620,29629,29629,29637,29652,29661,29661,29669,29669,29686,29686,29689,29707,29707,29720" d="M331.5,188.66667C333.29999,188.66667 334.20001,188.66667 335.10001,188.66667C336,188.66667 336.89999,188.66667 337.79999,188.66667C338.60016,188.66667 339.38535,188.66667 340.336,188.66667C341.10132,188.66667 342.09552,188.66096 343.01468,188.66667C343.87473,188.67201 344.81848,188.89497 345.5,189.16667C346.47455,189.55519 347.29868,189.666 348.20001,189.66667C349.10001,189.66734 350.02084,189.64088 350.8045,190.01933C351.69336,190.44859 352.32486,190.64867 353.33334,190.66667C354.12521,190.68082 355.15268,190.66667 355.84732,190.66667C356.91733,190.66667 357.72534,190.66667 358.70667,190.66667C359.56332,190.66667 360.02667,190.66667 360.97333,190.66667C361.88,190.66667 362.99268,190.66667 363.91666,190.66667C364.98401,190.66667 365.67465,190.66667 366.74283,190.66667C367.60001,190.66667 368.5,190.66667 369.29999,190.66667C370.10266,190.66667 370.784,190.66667 371.28616,190.66667C371.92133,190.66667 373.66666,190.66667 374.80533,190.66667C376.09601,190.66667 377.50067,190.66667 378.98132,190.66667C380.5,190.66667 382.01868,190.66667 383.49933,190.66667C384.90399,190.66667 387.33334,190.66792 388.2915,190.66634C389.07867,190.66502 389.71405,190.66464 390.216,190.64534C390.6044,190.6304 390.901,190.61037 391.1145,190.55234C391.27832,190.50781 391.50421,190.33704 391.59982,190.22383C391.7034,190.10118 392.04605,189.67181 392.33334,188.83333C392.6217,187.99173 393.07367,187.20363 393.44733,186.36667C393.79211,185.59435 394.26321,184.93973 394.44284,184.01401C394.60764,183.1647 394.60834,182.27829 395.07468,181.60533C395.57867,180.87799 395.82095,180.02539 396.37866,179.44533C396.98221,178.81761 397.44916,178.10013 397.49551,177.31483C397.55518,176.30432 397.8674,175.51866 398.216,174.86667C398.66907,174.01927 399.07364,173.20361 399.44733,172.36667C399.79208,171.59451 400.1785,170.85114 400.52533,170.06667C400.88702,169.24863 401.26373,168.3996 401.7215,167.56667C402.09247,166.89163 403.06805,166.36221 403.37851,165.56667C403.70865,164.72064 403.52051,163.89656 403.85266,163.01401C404.11847,162.30779 404.46561,161.30588 405,160.66667C405.51666,160.04866 405.95578,159.28459 406.41599,158.468C406.8121,157.76511 407.62799,157.47801 408.20001,156.96217C408.92722,156.30637 409.37506,155.46202 409.50015,154.56667C409.6268,153.6602 410.10797,153.06401 410.79999,152.36667C411.29807,151.86475 412,151.16667 412.70001,150.46666C413.20001,149.96666 413.83463,149.16118 414.70001,148.75067C415.45746,148.39137 416.29788,148.01112 416.47916,147.16667C416.67032,146.27605 416.5,145.34534 416.5,144.492C416.5,143.552 416.45248,142.66525 416.5,141.86667C416.55725,140.9044 417.07977,140.19241 417.64932,139.492C418.17773,138.84218 418.12842,137.8709 418.53601,137.10266C418.89471,136.42659 419.97025,136.34801 420.84732,136.01933C421.73035,135.68843 422.76453,135.8555 423.5,135.5C424.25461,135.13525 424.45691,133.99222 425.14667,133.64133C425.9285,133.24361 426.75439,133.10498 427.47849,132.3455C428.04904,131.74707 428.62152,130.95226 429.29999,130.584C430.02582,130.19005 430.70001,129.46666 431.29999,128.86667L431.89999,128.26666" id="svg_9" stroke-width="3" stroke="#000" fill="none"/>
  <path t="34740,35251,35268,35307,35325,35340,35411,35412,35436,35483,35495,35516,35516,35532,35563,35643,35979,35989,35990,36020,36283,36283,36327,36348,36348,36350,36355,36372,36398" d="M235.5,88.66666C233.8,88.72383 232.8252,89.1005 232.55716,89.96667C232.29056,90.82817 232.68327,91.82094 232.33333,92.66666C232.00867,93.45129 231.56522,94.19872 231.14734,94.96667C230.68976,95.80758 230.52536,96.66707 230.5,97.46667C230.47141,98.36803 229.88187,98.977 229.58533,99.86667C229.29945,100.72432 229.4628,101.66753 229.5,102.46667C229.54271,103.38431 230.53925,103.49023 231.3,103.752C232.07956,104.02024 232.83086,104.77461 233.21466,105.46667C233.67192,106.29116 233.536,107.23067 234.216,107.75066L234.49867,108.468" id="svg_10" stroke-width="3" stroke="#000" fill="none"/>
  <path t="37581,37820,37835,37837,37859,37859,37891,37907,37907,37931,37931,38164,38164,38326,38327,38327,38375,38375,38375,38375,38375,38375,38382,38382,38382,38382,38407,38444,38480,38489,39992,39992,40017" d="M235.5,89.66666C237.32533,89.66666 238.33333,89.66666 239.12534,89.66666C240.15266,89.66666 240.84734,89.66666 241.87466,89.66666C242.82133,89.66666 243.5,89.66666 244.616,89.66666C245.384,89.66666 246.32544,89.65469 247.01601,89.66666C248.0538,89.68467 248.55589,90.30807 248.92534,90.89467C249.56097,91.90388 249.91808,92.29055 250.63733,93.204C251.0191,93.68886 251.41565,94.17104 252.16533,95.132C252.83904,95.99558 253.35667,96.72403 253.91667,97.54166C254.29332,98.09159 255.11632,98.65099 255.89999,99.092C256.71689,99.55171 257.44733,100.02383 257.78534,100.86533L258.30133,101.38133L259.20001,101.66217" id="svg_11" stroke-width="3" stroke="#000" fill="none"/>
  <path t="40220,40447,40461,40483,40483,40524,40524,40525,40525,40551,40556,40586,40596,40596,40612,40612,40641,40650,40663,40668,40677,40691,40691,40709,40865,40879,40898,40927,40927,40959,40980,40995,41051,41052,41076,41077,41092,41112,41131,41148,41181,41181,41190,41221,41404,41419,41420,41459,41476,41726,41731,41731,41731,41731,41926,41926,41926,41926,41932,41948,41948,41960,41960,41979,41979,42011,42179,42179,42315,42332,42356,42356,42612,42619,42620,42627,42627,42628,42636,42636,42636,42655,42771,42771,42771,42781,42781,42844,42851,42875,42899,42911,42911,42915,42915,42928,42971,43259,43275,43295,43296,43299,43317,43333,43333,43388,43388,43419,43731,43731,43755,44211,44211,44224,44228,44237,44237,44263,44264" d="M230.5,86.66666C232.95833,86.14584 233.3912,85.34591 233.66667,84.5C233.94458,83.64658 234.31099,82.82758 234.52533,82.04134C234.76097,81.17698 235.18729,80.35782 235.88933,79.728C236.46106,79.21508 236.92647,78.41199 237.33333,77.66666C237.74907,76.90506 238.42638,76.35892 238.93201,75.86667C239.64114,75.17629 240.11804,74.35631 240.41467,73.46667C240.70058,72.60919 240.79579,71.93764 241.59984,71.44517C242.21956,71.06559 242.34657,69.94387 242.936,69.27734C243.55022,68.58278 244.60001,68.66666 245.5,68.66666C246.3,68.66666 247.20001,68.66074 248.10001,68.66666C248.91071,68.672 249.84032,68.84837 250.5,69.1875C251.51118,69.70734 252.14328,70.13929 252.88933,70.64133C253.55763,71.09107 254.09418,71.76051 254.60983,72.37117C255.15317,73.01462 255.98904,73.42809 256.51468,74.26667C256.98987,75.02479 257.69662,75.62394 258.5,75.66666C259.29886,75.70914 260.22653,75.85053 261.10001,75.63067C261.98593,75.40767 262.82367,74.64336 263.52335,74.36667C264.07632,74.14799 265.06998,73.85328 266.242,73.567C266.6615,73.46453 267.5033,73.26017 268.30533,73.13866C269.49445,72.95852 269.74612,73.70061 269.39017,74.42384C269.01096,75.19434 268.38443,75.90709 267.52167,76.42384C266.83203,76.83688 266.27048,77.37296 265.5,77.83334C264.78052,78.26325 264.51044,79.16649 264.5,80.07733C264.48959,80.98794 264.34024,81.85526 264.50134,82.78C264.6474,83.61844 265.47198,83.666 266.51434,83.66666C267.32132,83.66718 267.90268,83.66666 269.09732,83.66666C269.95834,83.66666 270.72934,83.66666 271.84933,83.66666C272.83334,83.66666 273.5087,83.62533 274.24933,83.70267C275.36633,83.81931 276.01904,84.42178 277,84.64584C277.86755,84.84399 278.46674,85.20333 278.85266,85.97117C279.29596,86.85314 279.48199,87.49152 279.5,88.5C279.51538,89.36203 279.5,90.26667 279.5,91.16666C279.5,92.06667 279.40866,92.99484 279.66666,93.83334C279.92734,94.68048 280.61166,95.18246 281.33334,95.83334C281.95218,96.39145 282.63104,96.49545 283.47849,97.10934C284.08521,97.54884 284.65549,98.31908 285.5,98.83334C286.11307,99.20666 286.50876,100.26255 285.79468,100.6185C285.11581,100.95689 284.884,101.91848 284.21466,102.496C283.58432,103.03987 282.61465,102.752 281.68533,103.10267L281.06934,103.468" id="svg_12" stroke-width="3" stroke="#000" fill="none"/>
  <path t="50165,51244,51244,51547,51547,51555,51575,51582,51582,51915,51915,51932,51941,51941,51956,51956,52059,52131,52131,52199,52217,52217,52239,52263,52282,52292,52332,52367,52410,52472,52472,52491,52507,52539,52563,52574,52599,52600,52609,52610,52617,52617,52627,52627,52650,52662,52696,52696,52709,52709,52772,52773,52776,52797,52807,52853,52875,52875,52886,52886,52894,52901,52901,52916,52916,52932,52932,52932,52947,52947,52955,52956,52963,52964,52979,52996,53123,53132,53143,53148,53148,53155,53156,53165,53173,53173,53233,53233,53288,53288,53288,53288,53288,53459,53459,53472,53499,53499,53519,53532,53532,53541,53560,53576,53576,53605,53668,53668,53669,53708,53708,53740,53740,53804,53804,53822,53876" d="M176.5,110.66666C173.89999,110.66666 172.89999,110.66666 171.9045,110.66666C171.15717,110.66666 170.25717,110.66666 169.29866,110.66666C168.33333,110.66666 167.5,110.66666 166.66667,110.66666C165.8045,110.66666 164.864,110.66666 164.01466,110.66666C163.28934,110.66666 162.10133,110.66666 161.336,110.66666C160.38533,110.66666 159.5,110.66475 158.74283,110.66666C157.85182,110.66891 156.67392,110.77316 156.50267,111.468C156.28763,112.34056 156.5,113.26667 156.5,114.16666C156.5,115.06667 156.5,115.96667 156.5,116.86667C156.5,117.76667 156.5,118.66666 156.5,119.46667C156.5,120.36667 156.5,121.26667 156.5,122.16666C156.5,123.06667 156.41254,123.99367 156.66667,124.83334C156.92897,125.69997 157.5,126.5 158,127.16666C158.5,127.83334 159.03654,128.64456 159.33333,129.5C159.6068,130.28825 160.2674,130.82054 160.5,131.6875C160.71494,132.48859 161.13896,133.27295 161.60001,133.98801C162.02689,134.65009 162.65517,135.60684 163.064,136.256C163.54321,137.01692 164.07378,137.61028 164.52533,138.27733C165.02412,139.01416 165.52695,139.86787 166.136,140.23067C167.06947,140.7867 167.88713,140.61972 168.74283,141.01933C169.65414,141.44492 170.35155,141.79433 170.91066,142.53867C171.29449,143.04965 171.96239,144.08739 172.52083,144.64583C173.07928,145.20428 173.86946,145.83524 174.664,146.22C175.45343,146.60229 176.34074,146.80106 176.89999,147.51733C177.33426,148.07355 178.22905,148.47144 179.10001,148.70267C179.95526,148.92972 180.0354,150.06557 180.78667,150.58133C181.51556,151.08173 182.5,150.66667 183.4785,150.66667C184.29866,150.66667 185.136,150.66667 185.98399,150.66667C186.84734,150.66667 187.76534,150.66672 188.48134,150.66667C189.7065,150.66658 190.5589,150.66537 191.01601,150.65601C191.93748,150.63712 192.93755,150.98096 193.98801,150.38C194.66817,149.99091 194.5,148.84134 194.5,147.83333C194.5,146.97116 194.5,146.14583 194.5,145.18266C194.5,144.492 194.43752,143.38641 194.92534,142.68134C195.35884,142.05476 195.31781,141.29471 195.52133,140.29201C195.69066,139.45778 196.40027,138.86613 196.79466,138.26216C197.41284,137.31549 197.43408,136.44655 197.7215,135.46683C197.9565,134.66576 198.5,133.83333 198.97917,133.1875L199.416,132.468L199.85266,131.71933" id="svg_13" stroke-width="3" stroke="#000" fill="none"/>
  <path t="55104,55190,55248,55248,55248,55248,55248,55260,55260,55260,55260,55260,55260,55260,55260,55260,55263,55263,55263,55263,55263,55263,55264,55264,55264,55294,55295,55295,55295,55295,55295,55400,55400,55408,55408,55408,55408,55408,55412,55412,55412,55431,55431,55431,55471,55472,55472,55472,55491,55491,55498,55498,55498,55502,55520,55534,55562,55562,55572,55594,55594,55606,55606,55606,55606,55609,55610,55628,55656,55658,55740,55741,55741,55756,55757,55757,55757,55757,55757,55770,55770,55798,55798,55802,55803,55803,55809,55809,55809,55835,56012,56013,56014,56081,56125,56125,56140,56141,56155,56155,56155,56169,56169,56169,56170,56170,56188,56188,56331,56331,56356,56366,56367,56368,56368,56368,56375,56375,56375,56406,56407,56407,56453,56453,56453,56625,56625,56626,56627,56667,56668,56723,56723,56830,56831,56873,56873,56873,56874,56874,56874,56874,56911,56911,56911,56911,56911,57023,57023,57092,57093,57093,57093,57093,57179,57179,57179,57731,57732,57735,57736,57736,57765,57765,57765,57765,57765,57765,57773,57773,57773,57774,57774,57774,57774,57775,57775,57780,57781,57781,57781,57782,57793,58212,58213,58292,58302,58326,58326,58343,58348,58348,58348,58365,58366,58396,58758,58785,58785,58791,58791,58791,58791,58791,58796,58796,58797,59244" d="M172.5,110.66666C172.84134,111.38267 173.66095,111.58908 174.40401,111.66267C175.48215,111.76944 176.17612,111.82826 176.98534,111.92133C179.00159,112.15322 180.22005,112.32794 181.55733,112.51867C182.98141,112.72177 184.45877,112.94193 185.95833,113.16666C187.4481,113.38994 188.89534,113.61077 190.26933,113.81467C192.66612,114.17034 193.6339,114.30548 194.448,114.41067C195.12332,114.49792 195.67699,114.5623 196.125,114.60416C196.48241,114.63757 196.7662,114.65659 196.992,114.66267C197.33322,114.67184 197.47868,114.66576 197.616,114.668C197.74734,114.67014 197.88387,114.63007 198.384,114.752C199.39546,114.99858 200.06851,115.35618 201,115.5C201.74753,115.61542 202.57581,115.63853 203.424,115.656C204.24788,115.67297 205.33566,115.66666 206.20267,115.66666C207.18134,115.66666 208.18666,115.66666 209.04167,115.66666C209.66167,115.66666 210.66667,115.66666 211.74367,115.66666C212.45833,115.66666 213.133,115.66666 214.44667,115.66666C215.14,115.66666 216.04266,115.66666 217,115.66666C217.73199,115.66666 218.828,115.66666 219.7,115.66666C220.60001,115.66666 221.5,115.66666 222.3,115.66666C223.25717,115.66666 224.16861,115.69279 225.01883,115.6095C225.83675,115.52936 226.80125,115.31596 227.47917,115.16666C228.4473,114.95346 229.47536,114.86747 230.18649,114.614C231.06099,114.3023 231.80431,113.77097 232.70134,113.66534C233.67401,113.5508 234.37053,113.20662 235.13316,112.96217C236.15678,112.63406 237.03516,112.46381 237.51067,112.37117C238.49834,112.17876 239.48865,112.01916 239.964,111.952C241.21199,111.7757 242.22134,111.95634 243.16667,111.5C243.82651,111.18147 244.63742,110.73093 245.54167,110.6875C246.20309,110.65573 247.16667,110.66666 248.21733,110.66666C249.01199,110.66666 250.02005,110.73299 250.8,110.314C251.54805,109.91217 252.43059,110.06023 253.21466,109.58134C254.01816,109.09059 254.39771,108.6114 255.34666,108.23067C255.96947,107.9808 256.91769,107.5555 257.74667,107.26667C258.34393,107.05858 259.66611,106.66463 260.38266,106.46667C261.11407,106.2646 261.8428,106.08049 262.53067,105.86667C263.73575,105.49207 264.39984,105.07037 265.47849,104.78817C266.28043,104.57836 267.08676,104.66922 268.16666,104.5C268.83978,104.39452 269.61703,104.23969 270.43466,104.02C271.25485,103.79962 272.34937,103.36945 272.9285,103.0185C273.68741,102.55862 274.68997,101.87077 275.31067,101.728C276.17456,101.5293 277.18896,101.38954 278.04166,101.14584C278.66339,100.96814 279.66431,100.65791 280.74365,100.37117C281.45682,100.18171 282.12051,99.95491 283.23566,99.78833C284.09769,99.65956 284.97839,99.9644 285.67465,100.24133C286.6062,100.61185 287.19763,101.16681 287.33334,102.16666C287.47632,103.22002 287.44342,103.85407 287.45334,104.52666C287.46368,105.2291 287.46463,105.947 287.43832,106.66417C287.36484,108.66807 287.3114,109.24247 287.14282,110.21467C287.00577,111.00507 286.82629,111.64001 286.30133,112.70133C285.95596,113.39957 285.65063,114.33156 285.58401,115.00533C285.50668,115.78772 285.49371,116.63884 285.41599,117.50134C285.30563,118.72607 285.16074,119.44664 284.92532,120.37334C284.68054,121.33697 284.40118,122.26768 285.07468,122.86667C285.71292,123.43429 286.35275,123.48733 287.36566,123.76717C288.19849,123.99725 289.20883,124.22729 289.784,124.37466C290.41418,124.53613 291.10452,124.7115 292.66666,125.16666C293.55054,125.4242 294.48322,125.71555 295.45065,126.02016C296.43524,126.33018 297.41669,126.64574 298.37866,126.95467C299.3027,127.25141 300.16812,127.53748 301.66666,128C302.26251,128.1839 302.75964,128.3316 303.17117,128.438C303.76855,128.59247 304.75729,128.49319 305.5,128.83333C306.30261,129.2009 306.71725,130.09715 307.60001,130.54533C308.4426,130.97311 309.09933,131.24268 309.91068,131.65199C310.82056,132.11101 311.33148,132.52161 312.01599,133.18401C312.754,133.89818 313.37476,134.4127 314.14816,134.614C315.1564,134.87642 315.65652,135.52992 316.29068,135.728C317.31924,136.04926 318.12198,136.2299 319.02667,136.528C319.50107,136.68431 320.43668,137.01849 321.66666,137.5L322.27335,137.78L323.04666,138.22L323.89999,138.63066" id="svg_14" stroke-width="3" stroke="#000" fill="none"/>
  <path t="62024,62181,62181,62199,62200,62221,62231,62231,62238,62265,62281,62281,62290,62300,62302,62312,62319,62319,62356,62357,62357,62375,62375,62375,62375,62375,62375,62375,62477,62477,62477,62493,62525,62526,62575,62575,62607,62607,62628,62668,62668,62686,62686,62716,62764,62797,62855,62892,62957,63134,63173,63173,63247,63248,63284,63309,63309,63317,63317,63357,63395,63669,63669,63669,63692,63692,63695,63695,63726,63726,63727,63727,63727,64028,64029,64039,64046,64058,64063,64078,64100,64101,64117,64261,64301,64301,64317,64342,64361,64361,64376,65660,65673,65674,65694,65694,65741,65773,65802,65802,65830,65862,65981,65981,65981,66053,66083,66104,66143,66154,66154,66193,66194,66396,66410,66411,66411,66417,66417,66418,66429,66430,66430,66430,66433,66434,66447,66447,67181,67181,67191,67191,67198,67199,67208,67209,67220,67221,67221,67223,67223,67268,67269,67298,67309,67332,67333,67358,67376,67423,67423,67469,67469,67469,67474,67475,67475,67495,67512,67512,67512,67538,67562,67562,67592,67592,67627,67637,67651,67669,67669,67677,67689,67692,67716,67717,67729,67732,67742,67749,67749,67767,67774,67777,67781,67806,67806,67807,67828,67838,67893,67893,67916,67932,67941" d="M196.5,137.66667C197.5,137.66667 198.25717,137.66667 199.15266,137.66667C200.01601,137.66667 201,137.66667 201.98399,137.66667C202.67467,137.66667 203.74283,137.66667 204.60001,137.66667C205.5,137.66667 206.3,137.66667 207.2,137.66667C208.10001,137.66667 209.00644,137.56877 209.91066,137.67734C210.83888,137.78879 211.49681,138.24799 212.5,138.5C213.3389,138.71074 213.88133,138.67889 215.33333,138.83333C215.80714,138.88373 216.86337,139.01898 217.42667,139.092C218.00005,139.16632 219.13629,139.31703 219.67999,139.38266C221.0914,139.55304 222.10884,139.64729 223.008,139.66533C223.8745,139.68271 224.83014,139.57521 225.67467,139.70267C226.63722,139.84793 227.22261,140.42975 228.15266,140.6095C229.00209,140.77367 230.01736,140.62645 230.82133,140.888C231.519,141.11497 232.47198,141.60448 233.29866,141.66533C234.19757,141.73151 235.10001,141.66667 236,141.66667C236.89999,141.66667 237.84554,141.59949 238.47467,142.092C239.09879,142.58057 239.99841,142.55711 240.84734,142.72383C241.77405,142.90582 242.34671,143.42412 243,144.1875C243.65039,144.94749 244.04378,145.64207 244.33333,146.5C244.61781,147.34293 245.04858,148.00319 245.416,148.868C245.80598,149.78593 245.81584,150.60014 246.38667,151.09734C247.19482,151.80122 248.10133,151.66533 249.10001,151.66667C249.89999,151.66774 250.90404,151.70616 251.73599,151.63066C252.67195,151.54573 253.44795,151.31322 254.23866,151.092C255.16641,150.83243 256.16229,150.30843 256.97916,150.6875C257.68655,151.01578 257.44705,152.20145 257.85266,152.96666C258.30106,153.81261 258.71457,154.63675 259.07468,155.26666C259.56873,156.13086 259.76453,157.09804 260.5,157.5C261.23566,157.90205 262.18524,158.10802 262.88934,158.65199C263.51086,159.13217 263.6629,160.0304 264.216,160.74933C264.74988,161.44328 265.50629,161.99521 265.89999,162.51733C266.5098,163.32602 267.20056,163.71387 268,164.16667C268.79605,164.61754 269.24942,165.28697 269.55267,165.96133C269.92627,166.7921 270.88156,167.14395 271.66666,167.66667C272.30356,168.09071 272.99271,168.49817 274.08932,168.65601C274.97064,168.78285 275.51944,169.33784 276.35068,169.64133C277.13809,169.92882 277.62109,170.52707 278.36133,171.06667C278.98221,171.51927 279.84103,172.11385 280.66666,172.66667C281.3222,173.10562 281.95349,173.38687 282.92151,173.76666C283.72952,174.08368 284.60449,174.36667 285.5,174.66667C286.39551,174.96666 286.98474,175.15157 287.81467,175.46666C288.8204,175.8485 289.48672,176.12083 290.47867,176.76649C291.14581,177.20073 291.98117,177.61517 292.67465,177.65601C293.75003,177.71931 294.46933,177.66667 295.50534,177.66667C296.24933,177.66667 297.35733,177.66675 298.15067,177.66667C299.04266,177.66658 299.7627,177.75172 300.73199,177.58133C301.71173,177.40909 302.36978,176.89807 303.32535,176.692C304.00888,176.5446 304.94434,176.09579 305.79999,175.71933C306.57404,175.37878 307.31552,174.98819 308.10001,174.64133C308.91803,174.27965 309.7233,173.80515 310.47067,173.49733C311.2966,173.15717 312.01932,172.64334 312.55182,172.31483C313.57541,171.68338 314.27365,171.33641 315.01334,170.868C315.90082,170.306 316.67126,169.67406 317.31467,169.26666C317.93521,168.87375 318.45966,168.01109 318.78534,167.18266C319.06467,166.47215 319.47864,165.55296 320.20001,165.02834C320.91003,164.51196 321.93619,164.40099 322.37866,163.56667C322.82141,162.73186 323.0654,162.01869 323.79999,161.37117C324.46222,160.78743 325.37146,160.50673 325.5,159.66667C325.62167,158.87138 326.24478,158.12894 326.46399,157.26666C326.68594,156.39352 326.69241,155.35414 327.30133,154.952C328.05804,154.45224 328.60794,153.87955 329.07468,153.06667C329.4726,152.37367 329.82059,151.48978 330.35068,150.84134C330.78439,150.31078 331.32874,149.41521 331.50134,148.46666C331.66721,147.55513 332.14734,146.96666 332.48932,146.06667L332.52084,145.16667L332.85718,144.37117" id="svg_15" stroke-width="3" stroke="#000" fill="none"/>
  <path t="69256,69391,69397,69413,69438,69438,69477,69485,69485,69532,69929,69942,69973,69973" d="M325.5,136.66667C328.08932,137.65601 329.03476,137.61371 329.79999,138.01933C330.64594,138.46774 331.26611,138.81361 332.13599,139.24133C332.9552,139.64413 333.93588,139.55605 334.47916,140.1875C335.04269,140.8425 335.37851,141.76666 335.5,142.66667L335.41467,143.46666" id="svg_16" stroke-width="3" stroke="#000" fill="none"/>
  <path t="74062,74277,74277,74289,74289,74289,74308,74308,74308,74330,74330,74330,74353,74353,74353,74382,74382,74392,74405,74405,74419,74419,74423,74440,74440,74470,74493,74493,74508,74512,74512,74517,74533,74553,74577,74577,74581,74581,74598,74612,74633,74637,74646,74646,74662,74668,74677,74678,74696,74701,74710,74710,74732,74749,74750,74760,74760,74775,74798,74828,74908" d="M324.5,140.66667C323.5,140.83333 322.83832,141.32672 322.16666,141.83333C321.50455,142.33273 320.73657,142.82211 319.83334,143.5C319.29669,143.90276 318.70731,144.43611 317.95715,144.98801C317.25024,145.50809 316.45541,146.02582 315.66666,146.5C314.96793,146.92006 314.12341,147.30772 313.38535,147.86667C312.66,148.41599 312.13226,149.10051 311.39984,149.76649C310.7692,150.33992 309.78851,150.41338 309.06934,150.75067C308.33282,151.0961 307.78369,151.95645 307.14816,152.36667C306.24777,152.94786 305.47083,153.42252 304.79999,153.71933C303.95233,154.09438 303.37637,154.97052 302.70001,155.38133C301.92389,155.85275 301.33975,156.28006 300.69867,156.836C300.00125,157.44078 299.71365,158.27635 299.29999,159.064C298.91266,159.80145 297.92422,160.33189 297.53601,161.10266C297.14896,161.87115 296.86334,162.54045 296.55716,163.3765C296.33563,163.98137 296.72546,165.06047 296.491,165.96666C296.26306,166.84763 295.21796,166.92952 294.67065,167.86667C294.20868,168.65768 294.65909,169.69847 294.44284,170.36667C294.15485,171.2565 293.15567,171.73083 292.52084,172.16667C291.71097,172.72267 291.50266,173.46666 291.41467,174.38133L290.62134,174.888L290.14734,175.614L289.53601,176.10266" id="svg_17" stroke-width="3" stroke="#000" fill="none"/>
  <path t="77087,78328,78328,78333,78333,78343,78343,78343,78353,78353,78369,78369,78369,78373,78390,78390,78407,78407,78407,78421,78421,78439,78448,78448,78470,78487,78487,78500,78500,78550,78565,78565,78565,78606,78607,78628,78660,78670,78684,78685,78709,78710,78711,78716,78732,78732,78770,78770,78772,78772,78772,78772,78791,78791,78791,78805,78891,78891,78901,78915,78929,78942,78942,78948,78995,79022,79022,79022,79084,79084,79093,79108,79109,79127,79127,79140,79148,79540,79540,79548,79557,79588,79637,79660,79660,79812,79812,79828,79828,79838,79838,79844,79845,79845,79845,79857,79857,79858,79858,79858,79862,79862,79862,79862,79870,79870,79871,79871,79877,79877,79878,79878,79887,79887,79887,79892,80116,80116,80124,80124,80132,80132,80132,80132,80132,80132,80132,80140,80141,80141,80141,80141,80141,80141,80141,80141,80148,80148,80149,80149,80149,80149,80149,80150,80157,80157,80157,80157,80157,80158,80158,80164,80164,80164,80164,80164,80164,80173,80173,80173,80173,80654,80655,80655,80662,80671,80677,80678,80678,80688,80693,80693,80702,80712,80712,80721,80733,80733,80749,80781,80781,80797,80797,80797,80808,80808,80813,81132,81133,81133,81141,81141,81149,81149,81160,81180,81222,81245,81245,81260,81262,81272,81278,81286,81286,81301,81302,81321,81342,81342,81366,81367,81368,81383,81384,81403,81418,81418,81430,81430,81446,81488,81488" d="M300.5,176.66667C300.5,177.53867 300.5,178.26933 300.5,179.27116C300.5,180.12384 300.5,181.08783 300.5,181.88133C300.5,182.65683 300.56003,183.70557 300.44284,184.472C300.29333,185.44966 299.97556,186.1599 299.784,186.89867C299.49936,187.99649 299.5,188.98833 299.5,189.70833C299.5,190.83333 299.5,191.61484 299.5,192.40533C299.5,193.33333 299.5,194.24533 299.5,195.1875C299.5,195.98801 299.5,196.84134 299.5,197.78267C299.5,198.83333 299.53336,199.49255 299.5,200.5C299.47141,201.36359 298.99902,202.05089 298.5,203C298.15836,203.64977 297.86661,204.39861 297.62149,205.52367C297.46606,206.23706 297.5,207.16667 297.5,208.06667C297.5,208.97116 297.49994,209.83333 297.5,210.66667C297.50009,211.64517 297.62619,212.44176 298.07468,213.26666C298.50421,214.05675 298.49878,214.98801 298.5,215.66667C298.50201,216.78534 298.63589,217.55415 299.164,218.43083C299.53366,219.04449 300.01859,219.67575 300.44199,220.36583C301.02606,221.31781 301.39862,222.13777 301.48651,223.0005C301.57864,223.905 301.83691,224.69792 302.216,225.46666C302.63281,226.31189 302.42432,227.33307 302.936,228.06667C303.4071,228.74207 304.24872,229.20268 304.47916,230.16667C304.66632,230.94966 304.80786,231.85458 305.36133,232.492C305.83096,233.03288 306.74683,233.68416 307.21335,234.46533C307.67151,235.23251 307.74899,236.16899 308.11066,236.84134C308.55646,237.6701 309.24634,238.31979 309.7955,238.96666C310.43622,239.72136 310.55545,240.77573 311.11066,241.23067C311.79514,241.79152 312.79999,241.66658 313.70001,241.66667C314.60001,241.66676 315.49951,241.83401 316.13599,242.27733C316.98337,242.86757 317.69888,243.22964 318.47849,243.76649C319.11035,244.20161 319.95276,244.61742 320.556,244.92134C321.59747,245.44604 322.20694,245.96556 322.93201,246.46266C323.31296,246.72383 324.49213,247.51337 325.29868,247.98C326.08188,248.43311 326.4725,248.63866 327.24283,249.005C328.32434,249.51935 329.34073,249.91525 329.97916,250.14583C330.59351,250.36772 331.80182,250.76204 332.40451,250.97116C333.33859,251.29527 333.99179,251.53691 335.02118,251.98801C335.75293,252.30867 336.48044,252.66405 337.19016,253.01401C338.16846,253.4964 338.9603,253.9529 339.83383,254.30499C340.7243,254.66393 341.62308,254.86081 342.20001,255.37117C342.84991,255.94609 343.47385,256.50107 344.33334,257C345.1188,257.45596 345.59082,257.68912 346.64584,258.20834C347.22318,258.49246 347.83466,258.78046 348.47733,259.06934C349.82883,259.67679 350.54181,259.96875 351.26801,260.26666C352.00449,260.56879 352.75067,260.86667 353.5,261.16666C354.24933,261.46667 354.99612,261.76309 355.73199,262.06668C357.16953,262.65973 357.85828,262.96359 358.52933,263.26532C359.83054,263.85037 360.45789,264.14682 361.07867,264.43066C361.69058,264.71045 362.28845,265.00262 364.09982,265.74533C364.69583,265.98972 365.29559,266.21378 365.88934,266.44135C367.06415,266.8916 367.6467,267.10999 368.21466,267.35068C369.88986,268.06064 370.41452,268.34338 370.92932,268.61932C371.92429,269.15265 372.39456,269.42087 373.24268,269.98267C374.35361,270.71857 374.92889,271.21021 375.45834,271.625C376.17581,272.1871 377.18073,272.78262 377.95834,273.14584C378.64481,273.46646 379.6048,274.06842 379.491,274.97116C379.37579,275.8851 378.68008,276.52814 378.14816,276.95685C377.31082,277.63168 376.32291,277.55603 375.52084,277.6875C374.64008,277.83188 374.04843,278.5065 373.31467,278.69199C372.24142,278.96332 371.51196,279.56516 370.79999,279.66217C369.8717,279.78867 369.00845,279.93845 368.28934,280.27734C367.29099,280.74786 366.72287,281.11917 365.89999,281.38135C364.93008,281.69037 363.05225,281.5502 363.41733,282.38266C363.42645,282.40347 364.06619,282.15561 364.82001,281.86533C365.81839,281.48087 366.63608,281.05304 367.47849,280.78799C368.285,280.53424 369.03827,279.92404 369.89999,279.70267C370.77277,279.47845 371.57843,279.20786 372,278.66666C372.6669,277.81049 373.65341,277.98853 374.37866,277.44534C375.02255,276.9631 375.67178,276.74036 376.5,276.64584C377.4924,276.53259 378.0946,276.0614 378.79999,275.36667C379.50531,274.672 380.02084,274.14584 380.66666,273.5C381.32532,272.84131 381.84732,272.31934 382.61465,271.552C383.1955,270.97116 383.79999,270.36667 384.5,269.66666C385,269.16666 385.70001,268.46667 386.29999,267.86667L386.89999,267.26666L387.60001,266.56668L388.20001,265.96667" id="svg_18" stroke-width="3" stroke="#000" fill="none"/>
  <path t="82872,82991,82997,83013,83014,83030,83030,83030,83042,83061,83061,83064,83064,83064,83069,83079,83088,83089,83106,83106,83114,83128,83150,83150,83150,83177,83177,83177,83191,83191,83248,83249,83249,83249,83266,83266,83266,83670,83670,83717,83725,83725,83733,83733,83733,83733,83742,83742,83742,83742,83742,83742,83742,83749,83749,83749,83749,83749,83749,83749,83760,83760,83760,83760,83760,83760,83760,83760,83766,83766,83766,83766,83766,83766,83766,83766,83774,83774,83774,83774,83774,83774,83774,83775,83782,83782,83782,83782,83782,83782,84093,84093,84093,84093,84189,84213,84232,84232,84240,84300,84301,84381,84381,84422,84432,84432,84445,84461,84477,84533,84661,84661,84692,84693,84716,84716,84717,84892" d="M329.5,187.66667C331.064,188.27733 331.38892,189.10771 331.85718,189.97566C332.23557,190.67702 332.71878,191.42728 332.97916,192.16667C333.23456,192.89195 333.4155,194.02133 333.66666,194.83333C333.93759,195.7093 334.37943,196.66042 334.46399,197.45599C334.54074,198.1781 334.44165,199.18248 334.85266,199.96666C335.29718,200.81471 335.49933,201.552 335.5,202.492C335.50049,203.18266 335.51468,204.26645 335.92532,205.07733C336.31345,205.84373 336.48846,206.70811 336.49866,207.35333C336.5144,208.35054 336.5,209.16667 336.5,209.98267C336.5,211.214 336.49527,211.89201 336.50015,213.08833C336.50235,213.62834 336.51538,214.51526 336.58533,215.15334C336.73886,216.5537 336.92456,217.27083 337.07468,217.96933C337.33203,219.16695 337.34766,220.05008 337.936,220.65199C338.49979,221.22876 339.09,221.94287 339.83334,222.33333C340.7338,222.80632 341.44214,222.75002 342.15866,223.00534C343.49231,223.48056 343.95871,223.80043 344.4715,224.08633C345.56839,224.69789 346.13046,225.03999 346.7135,225.37033C347.30246,225.70403 348.49326,226.34782 349.70001,226.89999C350.29675,227.17303 350.90091,227.42458 351.5,227.6875C352.10092,227.95123 353.31696,228.48947 354.5,229.16667C355.10913,229.51535 355.70349,229.91496 356.29999,230.32916C356.90353,230.74826 357.5,231.1875 358.10001,231.62666C358.70001,232.06583 360.49585,233.33977 361.10001,233.72366C361.69598,234.10239 362.29739,234.45691 362.89999,234.79466C363.49747,235.12955 364.09674,235.45169 365.29999,236.064C366.4968,236.67302 367.09961,236.9669 367.69867,237.26534C368.29532,237.56256 369.47855,238.14708 370.064,238.43066C370.64221,238.71074 371.20938,238.99292 372.87817,239.74516C373.41034,239.98505 374.44324,240.42934 374.9375,240.64583C375.88226,241.05963 376.34338,241.23485 377.55649,241.8665C378.2818,242.24417 379.2067,242.78688 379.64133,243.18134C380.48007,243.9426 381.0629,244.60226 381.82117,244.88817C382.66837,245.20761 383.41434,245.85678 383.5,246.83333C383.57281,247.66348 383.30634,248.53531 383.55716,249.36217C383.82672,250.25075 384.7312,250.67023 385.21466,251.46666C385.65997,252.20029 386.11804,252.97702 386.41467,253.86667C386.70062,254.7243 386.66333,255.66902 387.11066,256.30267C387.59641,256.99072 388,257.6875 388.5,258.66666L388.88934,259.45599L389.21466,260.18134L389.46399,261.04132" id="svg_19" stroke-width="3" stroke="#000" fill="none"/>
  <path t="87348,87544,87560,87560,87567,87589,87639,87681,87681,87695,87695,87703,87724,87743,87743,87743,87765,87783,87786,87786,87790,87800,87818,87818,87829,87829,87850,87872,87872,87872,87873,87887,87887,87887,87901,87945,87945,87952,87991,88035,88036,88040,88084,88120,88121,88173,88173,88209,88231,88231,88381,88458,88459,88496,88496,88541,88542,89223,89224,89229,89248,89249,89260,89260,89260,89273,89273,89281,89298,89343,89350,89428,89429,89460,89460,89471,89471,89501,89501,89509,89516,89516,89540,89548,89549,89549,89565,89577,89578,89584,89592,89592,89598,89613,89629,89629,89656,89656,89660,89660,89677,89678,89693,89693,89702,89709,89709,89716,89717,89732,89796,89796" d="M333.5,141.66667C334.52084,140.70833 335.45367,140.93285 336.1955,141.314C336.97681,141.71542 337.70328,142.20985 338.60001,142.54517C339.45065,142.86325 340.34195,142.80249 340.89999,143.51733C341.33423,144.07356 342.19626,144.5377 342.89999,145.11333C343.62546,145.70673 343.79419,146.59204 344.38535,147.09734C345.19043,147.78549 346.01291,148.03548 346.83334,148.5C347.43134,148.83858 348.28165,149.14668 349.02084,149.66667C349.72525,150.16217 350.35706,150.51497 351.15268,150.96217C351.98926,151.4324 352.91641,151.57684 353.83334,152C354.5383,152.32533 355.03558,152.68799 355.81732,153.26933C356.59348,153.84651 357.22281,154.48283 357.83835,154.95233C358.70334,155.61211 359.54681,155.97353 360.29999,156.38266C361.0975,156.81587 361.6543,157.58293 362.5,157.66667C363.29608,157.7455 364.28317,157.60225 364.89999,158.11333C365.6217,158.71129 365.83209,159.80745 366.5,160.33333C367.18011,160.86882 368.13678,160.63048 369.15268,160.67117C369.84875,160.69907 370.68823,161.15523 371.66666,161.5C372.30002,161.72318 373.36731,161.49815 374.12534,161.73866C375.07053,162.03856 375.40576,162.80559 376.33334,163.33333C377.13397,163.78885 378.05423,163.74588 378.98401,163.38C379.70874,163.09482 380.48642,162.35132 380.87466,161.84134C381.3945,161.15852 382.19785,160.48715 382.79016,159.97116C383.50626,159.34734 384.07376,158.72307 384.52533,158.056C385.02411,157.31917 385.60001,156.56667 386.20001,155.96666C386.8045,155.36217 387.38535,154.78133 387.98401,154.18266C388.67465,153.492 389.40213,152.89343 389.95834,152.1875C390.48679,151.51683 390.69302,150.54259 391.2045,149.96666C391.86478,149.22318 392.50687,148.50414 392.89999,147.84134C393.30716,147.15486 394.01636,146.35085 394.33334,145.5C394.62289,144.72278 394.84775,143.94566 395.59982,143.44516C396.20483,143.04254 396.41595,142.00031 396.936,141.26666C397.49396,140.47952 398.12561,140.09122 398.79999,139.36217C399.3204,138.79956 399.80954,138.01454 400.20001,137.26216C400.61011,136.47198 400.95432,135.65907 401.5,134.83333C401.94336,134.16241 402.2756,133.28151 402.78665,132.46666C403.15308,131.8824 404.14816,131.36667 404.79016,130.96666L405.43866,130.26666L405.78534,129.46533L406.30133,128.78133" id="svg_20" stroke-width="3" stroke="#000" fill="none"/>
  <path t="92980,93180,93207,93230,93231,93239,93279,93304,93312,93360,93361,93391,93391,93423,93476,93612,93612,93625" d="M407.5,126.66666C409.20001,126.72383 409.97791,127.27547 410.82117,127.54533C411.61221,127.79848 412.26831,128.20908 412.85718,128.96217C413.37344,129.62244 414.1842,129.94342 414.83334,130.66667C415.27579,131.15964 416.3197,131.686 416.86401,132.056C417.68057,132.61105 418.60001,132.66684 419.5,132.83333L420.10001,133.24133L421,133.64583" id="svg_21" stroke-width="3" stroke="#000" fill="none"/>
  <path t="94829,95026,95028,95028,95039,95039,95046,95046,95059,95059,95078,95089,95089,95110,95110,95112,95112,95236,95245,95245,95245,95261,95261,95270,95270,95277,95277,96120,96196,96196,96217,96316,96457,96457,96596,96812,96821,96821,96828,96828,96841,96841,96852,96852,96858,96859,96859,96865,96865,96868,96887" d="M408.5,125.66666C408.5,124.66666 408.65268,123.75172 409.38666,123.668C410.3299,123.56042 411.10132,123.66666 412.10001,123.66666C412.89999,123.66666 413.89868,123.66666 414.84283,123.66666C415.74283,123.66666 416.60016,123.66666 417.38535,123.66666C418.336,123.66666 419.10132,123.66666 420.091,123.66666C420.92932,123.66666 421.79102,123.16848 422.66666,122.83334C423.30359,122.58956 424.10132,122.66734 425.10001,122.66666C425.89999,122.66613 426.89999,122.66666 427.70001,122.66666C428.69983,122.66666 429.664,122.66666 430.61465,122.66666C431.5,122.66666 432.29999,122.66666 433.20001,122.66666C434.13599,122.66666 434.98401,122.66666 435.84732,122.66666C436.74283,122.66666 437.79193,122.43497 438.59982,122.88834C439.26764,123.26311 439.56219,124.33047 439.43832,125.014C439.24271,126.09352 438.62405,126.56156 437.84283,127.31934C437.29672,127.84905 436.5116,128.51738 435.90451,128.9095C435.17056,129.38358 434.25717,129.96666 433.70132,130.46666L433,131.14583L432.20001,131.614" id="svg_22" stroke-width="3" stroke="#000" fill="none"/>
  <path t="102602,102765,102781,102791,102791,102816,102817,102833,102833,102857,102867,102867,102882,102929,102929,102933,102933,102942,102942,102942,102945,102950,102950,102950,102976,102976,102976,102976,102980,102980,102980,102980,102980,102980,102980,102980,102994,102995,102995,102995,103032,103033,103033,103033,103197,103197,103206,103206,103207,103215,103215,103215,103228,103229,103229,103233,103233,103243,103645,103653,105140,105325,105332,105341,105341,105357,105357,105357,105373" d="M176.5,125.66666C177.38667,125.66666 178.32533,125.66666 179.33333,125.66666C180.12534,125.66666 180.98534,125.66666 181.9045,125.66666C182.89867,125.66666 183.664,125.66666 184.61467,125.66666C185.5,125.66666 186.3,125.66666 187.21466,125.66666C188.07066,125.66666 188.909,125.66666 189.90134,125.66666C190.73599,125.66666 191.66667,125.66666 192.45717,125.66666C193.31067,125.66666 194.5,125.66666 195.10001,125.66666C196,125.66666 196.89999,125.66666 197.80099,125.66666C198.76401,125.66666 199.51601,125.66666 200.412,125.66666C201.5,125.66666 202.12784,125.66666 202.80267,125.66666C203.51151,125.66666 204.97917,125.66666 205.71201,125.66666C206.42683,125.66666 207.11067,125.66666 208.33333,125.66666C209.30533,125.66666 210.39583,125.66666 210.98283,125.66666C212.14267,125.66666 212.80533,125.66666 213.84933,125.66666C214.532,125.66666 215.72934,125.66666 216.45833,125.66666C217.5,125.66666 218.31067,125.66666 219.18533,125.66666C220.18533,125.66666 221.02083,125.66666 221.60451,125.66666C222.79967,125.66666 223.67867,125.66666 224.48567,125.66666C225.52933,125.66666 226.29733,125.66666 227.2,125.66666C228.10001,125.66666 229,125.66666 229.89999,125.66666C230.8,125.66666 231.70134,125.66666 232.66667,125.66666C233.336,125.66666 234.5,125.66666 235.28934,125.66666L236.01466,125.66666L236.97917,125.66666" id="svg_23" stroke-width="3" stroke="#000" fill="none"/>
  <path t="107806,108077,108085,108085,108094,108123,108141,108160,108160,108189,108190,108202,108202,108245,108253,108253,108273,108274,108303,108303,108325,108360,108362,108362,108422,108422,108429,108448,108461,108464,108464,108478" d="M240.5,119.66666C240.5,121.492 240.5,122.5 240.5,123.36217C240.5,124.26667 240.47421,125.18752 240.85266,125.97117C241.28192,126.86005 241.48199,127.49152 241.5,128.5C241.51413,129.29189 241.42117,130.33075 241.55716,131.01401C241.74205,131.94305 242.38643,132.82498 242.464,133.492C242.58052,134.4939 242.5,135.29201 242.5,136.31934C242.5,137.01401 242.39442,138.07811 242.784,138.86667C243.21384,139.73674 243.51801,140.4362 243.85266,141.31934C244.12004,142.02496 244.48199,143.03009 244.5,143.86667C244.51936,144.76645 244.5,145.66667 244.5,146.46666L244.55716,147.42383" id="svg_24" stroke-width="3" stroke="#000" fill="none"/>
  <path t="110342,110445,110445,110456,110466,110473,110489,110489,110507,110507,110510,110510,110510,110518,110531,110536,110536,110551,110551,110560,110560,110574,110576,110576,110577,110592,110592,110592,110602,110602,110602,110620,110620,110620,110621,110621,110633,110637,110648,110660,110688,110688,110703,110709,110732,110732,110757,110757,110764" d="M248.5,128.66667C249.5,127.66666 250.3,127.66666 251.2,127.66666C252.10001,127.66666 253.02083,127.66666 253.8215,127.66666C254.71066,127.66666 255.70264,127.71404 256.5,127.64584C257.5069,127.55972 258.27386,127.19926 259.01468,126.95067C259.96246,126.63262 260.8045,126.66666 261.82132,126.66666C262.5,126.66666 263.47882,126.66782 264.30984,126.66666C265.27066,126.66533 266.05334,126.68739 266.90268,126.496C267.81729,126.28992 268.69449,125.81432 269.26401,125.48133C270.34338,124.85022 271.02209,124.38162 271.68933,124.11333C272.67453,123.71719 273.52063,123.67819 274.18533,123.668C275.18387,123.65268 276,123.66666 276.81601,123.66666C278.03833,123.66666 278.86908,123.89538 279.73834,123.66217C280.5575,123.44241 281.05081,122.72652 281.79999,122.314C282.6387,121.85219 283.27591,121.54107 284.10001,121.092C284.88968,120.66168 285.82132,120.6665 286.67465,120.63067L287.61465,120.38267L288.29868,119.95067L289.10001,119.64133" id="svg_25" stroke-width="3" stroke="#000" fill="none"/>
  <path t="114273,114693,114709,114712,114748,114806,114845,114910,114932,114935,114973,114973,115013,115015,115039,115040,115040,115061,115077,115124,115124,115148,115148,115164,115188,115228,115236,115237,115276,115308,115308,115319,115319,115348,115502,115525,115525,115534,115534,115543,115543,115552,115553,115557,115589,115589,116093,116093,116106,116111,116118" d="M181.5,117.66666C180.66667,117.83334 180.15286,118.49928 179.55267,119.01933C178.89906,119.58568 178.10687,119.95663 177.62134,120.7665C177.18381,121.49628 176.65149,121.96071 176.49867,122.86667C176.34457,123.78027 175.88217,124.37964 175.47467,125.26667C175.10129,126.07944 174.56088,126.76055 174.5,127.66666C174.44637,128.46486 174.38472,129.37827 174.536,130.30267C174.67874,131.17496 175.04156,131.88838 175.7,132.78133C176.15485,133.39816 176.95988,134.02229 177.37866,134.76649C177.79594,135.50803 178.67723,135.55528 179.47917,135.6875C180.35893,135.83255 180.61264,136.90303 181.26167,137.30949C182.05608,137.80701 182.81042,137.905 183.58267,138.38266C184.30746,138.83098 185.336,138.66667 186.10133,138.66667C187.10001,138.66667 187.89999,138.66667 188.89867,138.66667C189.664,138.66667 190.616,138.66667 191.384,138.66667C192.32533,138.66667 193.33333,138.66667 194.12534,138.66667C195.15266,138.66667 195.84734,138.66667 196.85333,138.65601L197.52083,138.16667L198.20534,137.71933" id="svg_26" stroke-width="3" stroke="#000" fill="none"/>
  <path t="119038,119303,119317,119405,119405,119493,119521,119521,119541,119556,119589,119605,119605,119613,119644,119692,119989,120093,120197,120197,120208,120257,120438,120438,120557,120576,120589,120629,120629,120639,120686,120733,120773,120805,120806,120828,120901,120902,120925,120957,121006,121028,121044,121045,121076,121270" d="M155.5,113.66666C156.72133,112.788 157.31392,112.24281 157.78534,111.46667C158.19615,110.7903 158.9176,110.28384 159.59984,109.56667C160.15758,108.98035 160.32004,108.0581 160.85716,107.37117C161.43889,106.6272 162.61011,106.61207 163.064,106.056C163.6785,105.30316 164.12727,104.67255 164.89999,104.24133C165.7189,103.78435 166.60001,103.66666 167.5,103.66666C168.3,103.66666 169.2,103.66666 170.02083,103.66666C170.98399,103.66666 171.84734,103.66666 172.74283,103.66666C173.7,103.66666 174.60001,103.66666 175.5,103.66666C176.3,103.66666 177.20006,103.65625 178.10001,103.66666C179.00018,103.67709 179.80376,104.01978 180.5,104.66666C181.10327,105.22717 181.96405,105.51052 182.7,105.952C183.37862,106.3591 184.17458,107.08178 184.44284,107.96667C184.70447,108.8297 184.5,109.76667 184.5,110.66666L184.5,111.46667L184.5,112.36667L184.5,113.1875" id="svg_27" stroke-width="3" stroke="#000" fill="none"/>
  <path t="123413,123589,123860,123880,123880,123886,123908,123948,124157,124212,124258,124290" d="M151.5,114.66666C151.5,113.66666 151.6543,112.7504 152.5,112.66666C153.29611,112.58783 154.2,112.66666 155.10001,112.66666C156,112.66666 156.89999,112.66666 157.88933,112.67733L158.45833,113.16666L157.88933,113.692" id="svg_28" stroke-width="3" stroke="#000" fill="none"/>
  <path t="126173,126310,126339,126339,126339,126343,126412,126412" d="M150.5,118.66666C153.02083,118.66666 154.04266,118.66666 154.75067,118.66666C155.49466,118.66666 156.69017,118.66666 157.66667,118.66666L158.31467,118.656" id="svg_29" stroke-width="3" stroke="#000" fill="none"/>
  <path t="126933,126988,126996,127008,127008,127008,127012,127012,127025,127028,127028,127036,127045,127055,127060,127060,127069,127292,127292,127320,127320,127324,127334,127335,127352,127364,127364" d="M150.5,122.66666C152.3,122.66666 153.172,122.66666 154.04283,122.66666C154.76134,122.66666 155.55183,122.66666 156.81334,122.66666C157.45833,122.66666 158.4785,122.66666 159.5,122.66666C160.3,122.66666 161.2,122.66666 162.10001,122.66666C162.91066,122.66666 163.82133,122.66666 164.67467,122.66666C165.61467,122.66666 166.51649,122.77167 167.38533,122.58134C168.17908,122.40745 169.02411,121.97588 169.864,121.692C170.70891,121.40643 171.3,120.86533 172,120.16666L172.7,119.468L173.3,118.952" id="svg_30" stroke-width="3" stroke="#000" fill="none"/>
  <path t="238151,238261,238261,238261,238261,238261,238286,238286,238286,238286,238286,238286,238304,238304,238304,238305,238305,238305,238305,238305,238305,238306,238306,238306,238306,238306,238307,238307,238307,238307,238309,238309,238309,238309,238309,238309,238309,238309,238309,238320,238320,238320,238321,238321,238321,238321,238321,238321,238329,238329,238329,238329,238329,238329,238329,238329,238329,238334,238335,238335,238335,238335,238335,238335,238335,238335,238364,238364,238364,238364,238364,238364,238364,238365,238365,238366,238367,238367,238367,238367,238367,238367,238367,238367,238425,238426,238426,238426,238426,238426,238426,238426,238427,238438,238438,238438,238438,238438,238438,238438,238438,238438,238489,238490,238490,238490,238490,238490,238490,238490,238490,238522,238522,238522,238522,238522,238523,238523,238523,238523,238550,238551,238551,238551,238551,238551,238551,238552,238552,238570,238570,238570,238570,238570,238570,238570,238571,238571,238622,238624,238624,238625,238625,238625,238625,238625,238625,239040,239040,239040,239040,239041,239046,239046,239054,239054,239054,239062,239062,239062,239083,239083,239088,239088,239089,239094,239117,239126,239126,239142,239206,239217,239217,239231,239232,239238,239238,239247,239262,239262,239263,239263,239280,239280" d="M68.5,236.66667C71.124,236.668 71.57696,236.66493 72.5625,236.6875C73.08142,236.69939 74.13824,236.72739 75.16666,236.83333C76.14402,236.93401 77.12581,237.13805 77.64584,237.27083C78.20472,237.41353 79.46911,237.7984 81,238.33333C81.89659,238.64662 82.87544,239.00858 83.937,239.40433C85.07817,239.82976 86.29211,240.29048 87.576,240.78133C88.9268,241.29774 90.33901,241.84178 93.33334,243C94.90617,243.60838 96.51398,244.23244 98.14533,244.85851C99.78332,245.48712 101.41511,246.10834 103.02934,246.70801C104.6065,247.29391 106.12981,247.86862 109,248.83333C110.30209,249.27098 111.52603,249.64667 112.672,249.98083C113.7422,250.29291 114.74926,250.56532 115.696,250.81334C116.5873,251.04683 117.43439,251.2509 119,251.66667C119.73698,251.8624 120.44726,252.06462 121.1375,252.26666C121.81392,252.46466 122.47916,252.66667 123.14,252.86667C123.80083,253.06667 124.46475,253.27325 125.83334,253.66667C126.54153,253.87025 127.26688,254.06725 128.00084,254.27116C128.74022,254.47659 129.48041,254.68335 130.21333,254.90266C130.93874,255.11974 131.65634,255.32562 133,255.83333C133.64052,256.07535 134.2471,256.34546 134.83299,256.61484C135.40442,256.87756 135.95732,257.14798 136.504,257.40533C137.04268,257.65894 137.57039,257.92563 138.66667,258.33334C139.21704,258.53802 139.78841,258.70471 140.37517,258.85233C140.97649,259.0036 141.60307,259.13113 142.25467,259.24533C142.93208,259.36404 143.64162,259.47205 145.16667,259.66666C145.98413,259.77097 146.83064,259.86688 147.69267,259.96667C148.55864,260.06689 149.4169,260.1647 150.25467,260.26666C151.0609,260.36478 151.82561,260.44781 153.16667,260.66666C153.73018,260.75861 154.2247,260.86218 154.66516,260.96216C155.06599,261.05313 155.43689,261.14847 155.79466,261.23065C156.14925,261.3121 156.51334,261.40143 157.33333,261.5C157.80725,261.55698 158.3345,261.58582 158.91283,261.61401C159.54385,261.64478 160.22917,261.66663 160.96933,261.69199C161.7655,261.71927 162.61906,261.74207 164.5,261.83334C165.52957,261.8833 166.6147,261.95013 167.752,262.01935C168.93736,262.09149 170.16655,262.16867 171.436,262.24133C172.74121,262.31604 174.07808,262.39713 176.83333,262.5C178.24057,262.55255 179.65327,262.58463 181.05583,262.6095C182.43327,262.63391 183.77081,262.64767 185.05333,262.65601C186.26582,262.66388 187.39333,262.66599 189.33333,262.66666C190.12067,262.66693 190.79201,262.66666 191.36133,262.66666C191.84267,262.66666 192.25,262.66666 192.59734,262.66666C192.89867,262.66666 193.168,262.66681 193.66667,262.66666C193.92149,262.66656 194.18535,262.66675 194.45717,262.66217C194.73602,262.65747 195.021,262.64868 195.31067,262.63068C195.60471,262.6124 195.90334,262.59488 196.5,262.5C196.80083,262.45215 197.09796,262.38525 197.39101,262.314C197.67929,262.2439 197.95851,262.1673 198.228,262.09201C198.48584,262.01996 198.72772,261.94443 199.16667,261.83334C199.35651,261.78531 199.53049,261.74969 199.69017,261.71933C200.11418,261.6387 200.99158,261.39493 201.71066,261.056C202.70918,260.58536 203.30112,260.24509 204.18533,259.86667C205.17392,259.4436 205.71646,259.24655 206.54733,259.02383C207.56902,258.74994 208.47911,258.68396 209.5,258.66666C210.28929,258.65326 211.03497,258.62567 211.97917,258.16666C212.8199,257.75793 213.54456,257.35562 214.3,256.95065C215.05595,256.54541 215.89232,256.22244 216.60001,255.56683C217.19363,255.01689 217.99982,254.67709 218.91066,254.66667C219.82127,254.65627 220.67467,254.66667 221.61467,254.66667C222.5,254.66667 223.25717,254.66667 224.15266,254.65767L225.01601,254.496L225.74283,253.96133L226.29866,253.23466" id="svg_31" stroke-width="3" stroke="#000" fill="none"/>
  <path t="240193,240271,240271,240271,240277,240277,240277,240277,240286,240286,240286,240286,240286,240286,240294,240294,240294,240294,240294,240305,240305,240305,240305,240305,240305,240311,240311,240311,240311,240311,240321,240321,240321,240321,240321,240321,240326,240326,240326,240326,240333,240333,240333,240333,240358,240358,240358" d="M248.5,256.66666C251.46167,256.66217 252.04414,256.67532 252.98666,256.58133C254.02557,256.47772 254.76526,256.30899 255.5625,256.16666C256.41788,256.01395 257.83282,255.82721 258.3425,255.78799C259.39993,255.70662 259.94012,255.69464 261.01334,255.64133C261.53757,255.61528 263.00342,255.52231 263.84799,255.38133C264.62769,255.25117 265.375,255.0518 266.15201,254.86534C266.9989,254.66209 267.9537,254.46715 268.98666,254.256C269.52103,254.14676 270.06488,254.05078 271.13333,253.78133C272.17175,253.51945 273.13379,253.1908 274.03867,252.84134C274.48071,252.67062 275.33487,252.28162 276.66666,251.83333C277.57568,251.52734 278.04941,251.41379 279,251.20833C279.47314,251.10606 280.41254,250.92197 281.77832,250.78816C282.63663,250.70407 283.45822,250.68094 284.23834,250.67117C285.33325,250.65747 286.01547,250.68935 286.97916,250.64583C287.89999,250.60425 288.79984,250.44533 289.68933,250.24133L290.54285,250.01933" id="svg_32" stroke-width="3" stroke="#000" fill="none"/>
  <path t="244621,244740,244749,244749,244757,244757,244773,244800,244800,244806,244831,244831,244845,244860,244885,244892,244924,244933,244933,244942,244950,244950,244957,244957,244957,244967,244967,244967,244972,244973,244973,244992,244992,244992,244999,244999,244999,244999,244999,245006,245006,245015,245022,245036,245050,245082,245095,245104,245109,245109,245126,245137,245137,245160,245161,245168,245168,245188,245188,245189,245189,245207,245231,245231,245253,245324,245333,245340,245340,245356,245356,245369,245378,245378,245379,245406,245406,245430,245430,245430,245460,245460,245496,245496,245526,245535,245543,245557,245557,245557,245576,245595,245595,245595,245597,245611,246084,246100" d="M418.5,142.66667C419.14667,141.10266 419.99817,140.82124 420.84732,140.614C421.76898,140.38907 422.37442,139.91284 423.32535,139.692C424.32486,139.45987 424.94434,139.09579 425.79999,138.71933C426.57404,138.37878 427.27182,137.8343 428.20001,137.67117C429.05188,137.52145 429.54398,136.81239 430.30133,136.668C431.24026,136.489 432.16599,136.75465 432.84732,136.6095C433.9147,136.38211 434.65823,135.76985 435.52084,135.6875C436.49579,135.59442 437.31369,135.68724 437.95715,135.6095C438.92813,135.49219 439.72073,135.2235 440.54733,135.01933C441.57343,134.7659 442.49979,134.67821 443.18399,134.668C444.18787,134.65303 445.0625,134.66667 445.71884,134.66667C446.83334,134.66667 447.66547,134.67357 448.52933,134.65601C449.37753,134.63875 450.19565,134.72972 451.35867,134.38266C452.22104,134.12532 452.99985,133.67935 453.89999,133.66667C454.79541,133.65407 455.30875,133.00047 456.02084,132.6875C456.8262,132.33354 457.73639,132.20473 458.5,131.83333C459.25391,131.46666 460.04367,131.15675 460.60001,130.3455C461.03552,129.71045 461.61966,128.94386 462.25717,128.56134C463.18362,128.00545 463.67731,127.48401 464.47849,126.68816C464.98083,126.18917 465.70001,125.46667 466.20001,124.96667C466.89999,124.26667 467.70087,123.64455 468.14282,122.96667C468.62131,122.23275 468.73019,121.15573 469.60001,120.78817C470.43655,120.43468 471.25717,120.66666 472.15268,120.66666C473.01599,120.66666 473.88535,120.66666 474.83334,120.66666C475.75067,120.66666 476.49536,120.62996 477.53201,120.668C478.30682,120.69643 479.27359,120.93891 480.02084,121.1875C480.82211,121.45405 481.80826,121.8773 482.45834,122.14584C483.47092,122.56411 484.29254,122.76116 485,123.16666C485.7933,123.62138 486.7251,123.56372 487.66666,123.83334C488.3508,124.02924 489.02798,124.45116 489.87466,125.06667C490.67834,125.65091 491.30301,126.1084 492.01599,126.38133C493.02728,126.76848 493.55267,127.314 494.30133,127.66534L495.20001,127.66666" id="svg_33" stroke-width="3" stroke="#000" fill="none"/>
  <path t="247525,247716,247716,247725,247725,247725,247735,247735,247735,247735,247742,247742,247742,247752,247752,247757,247757,247804,247836,247844,247860,247860,247868,247868,247885,247886,247892,247892,247916,247916,247916,247924,247933,247940,247957,247966,247966,247973,247973,247982,247982,247982,247989,247989,247989,247989,247999,247999,247999,248004,248004,248004,248004,248015,248015,248015,248015,248021,248021,248021,248021,248021,248031,248031,248031,248036,248036,248044,248045,248053,248054,248068,248068,248076,248076,248085,248085,248101,248117,248117,248325,248325" d="M418.5,155.66667C417.66666,154.66667 418.15335,154.00644 419.043,153.78799C419.75708,153.61266 420.61615,153.65842 421.79999,153.44533C422.40448,153.33652 423.29565,153.07217 423.89999,152.95067C425.09009,152.71138 425.96814,152.73125 426.72934,152.58267C427.70975,152.39131 428.35474,151.81886 429.15268,151.37117C429.98965,150.9016 430.86349,150.68468 431.79999,150.66667C432.70117,150.64935 433.66666,150.66667 434.5,150.66667C435.33334,150.66667 436.2533,150.63712 437.15717,150.67117C437.90582,150.69939 438.91129,150.92549 439.70001,151.27733C440.51254,151.63977 441.30884,152.03319 442.01468,152.46666C442.7652,152.92758 443.74274,153.32266 444.37866,153.888C444.97989,154.42249 445.67178,154.593 446.5,154.6875C447.49274,154.80077 448.13174,155.33496 449.043,155.76649C449.75192,156.10222 450.60175,156.34737 451.5,156.5C452.39438,156.65198 453.00366,156.63382 453.89999,156.75067C455.10657,156.90797 455.70377,157.09039 456.60001,157.37117C457.50394,157.65436 458.39999,157.96667 459,158.16667C459.89999,158.46667 461.10342,158.86578 461.72134,159.07733C462.3728,159.30035 463.07242,159.54738 464.24249,159.98784C465.10211,160.31143 465.97797,160.64909 466.41333,160.80533C467.24445,161.10359 468.63846,161.53662 469.4375,161.625C470.09317,161.69753 471.10001,161.66667 471.89999,161.66667C472.89999,161.66667 473.70001,161.66667 474.70001,161.66667C475.5,161.66667 476.5,161.66667 477.28934,161.66667C478.33334,161.66667 479.12534,161.66667 479.98401,161.66667C480.84732,161.66667 481.87466,161.66667 482.82132,161.66667L483.5,161.66667L484.47882,161.6665L485.30984,161.6095" id="svg_34" stroke-width="3" stroke="#000" fill="none"/>
  <path t="249774,249820,249831,249837,249850,249850,249850,249853,249853,249853,249853,249863,249863,249863,249869,249869,249869,249876,249876,249877,249885,249885,249885,249885,249885,249892,249892,249892,249900,249900,249900,249900,249908,249908,249908,249908,249917,249917,249917,249924,249924,249924,249935,249935,249945,249950,249950,249950,249965,249965,249965,249983,249983,250156,250156,250169,250169,250206,250206,250206,250250,250250,250250,250250,250250,250250,250250,250250,250254,250254,250254,250254,250254,250254,250254,250254,250263,250263,250263,250263,250264,250277,250278,250278,250336,250336,250336,250336,250347,250348,250348,250348,250349,250349,250424,250424,250424,250424,250447,250447,250479,250480,250480,250515,250515,250553,250581,250599,250599,250614" d="M310.5,123.66666C310.5,121.86667 310.18802,120.98743 310.5625,120.16666C310.91541,119.3932 311.82346,119.27554 312.61349,118.85233C313.51901,118.36726 314.09949,117.90103 314.97916,117.1875C315.5434,116.72983 316.31857,116.1326 317.26401,115.74267C317.8866,115.48589 318.72122,115.02227 319.29999,114.38C319.92355,113.68802 320.47147,112.96516 321.10901,112.472C321.74548,111.97968 322.8349,111.3356 323.46799,110.9C324.15234,110.42912 324.83273,109.92601 325.53201,109.52C326.4371,108.99448 327.2598,108.799 327.94818,108.50867C328.95911,108.0823 329.46259,107.60606 330.02084,107.125C330.61032,106.61702 331.47983,105.80674 332.39551,105.13284C332.96704,104.7122 333.51074,104.30835 334.57849,103.90916C335.45746,103.58057 336.15646,103.48375 336.89999,102.81467C337.55646,102.22394 338.01904,101.39162 338.89734,100.92133C339.58063,100.55546 340.36804,100.16884 340.94299,99.34534C341.3219,98.80265 341.87527,98.27377 342.89999,97.55067C343.48203,97.13995 344.13367,96.82439 345.09549,96.014C345.68573,95.51669 346.25256,94.73405 347,94.20834C347.75473,93.6775 348.52066,93.65872 349.5,93.66666C350.35391,93.67358 351.19553,93.806 352.33334,94.16666C352.81161,94.31827 353.88046,94.74356 354.45868,95.00667C355.06641,95.2832 355.68753,95.59566 356.30817,95.95167C356.94254,96.31554 358.18161,97.14825 358.7565,97.63084C359.90317,98.59341 360.40411,99.14585 360.89584,99.6875C361.37875,100.21944 361.82895,100.75851 362.24133,101.3C363.01804,102.31985 363.65515,103.28582 364.18134,104.17333C364.42242,104.57997 364.83185,105.34206 365.33334,106.33334C365.74942,107.15578 366.11075,107.88978 366.66666,108.83334C367.14474,109.64479 367.53934,110.24007 367.90451,110.94267C368.53226,112.15044 368.70889,112.62692 369.09549,113.62017C369.29401,114.13021 369.66318,115.15497 369.84283,115.6515C370.33109,117.00082 370.6033,117.73021 370.86401,118.32267C371.28067,119.26947 371.70001,120.06667 372.10001,120.86667C372.5,121.66666 372.90024,122.46654 373.29999,123.26667C373.69891,124.0652 374.05228,124.83509 374.41599,125.78C374.71201,126.54906 375.60001,126.888 376.20001,127.314L377.10001,127.728" id="svg_35" stroke-width="3" stroke="#000" fill="none"/>
  <path t="259806,260405,260405,260676,260692,260705,260732,260749,260765" d="M235.5,95.66666C236.5,95.66666 237.3,95.66666 238.2,95.66666C239.10001,95.66666 240,95.66666 240.89999,95.66666L241.8,95.66666L242.7,95.66666" id="svg_36" stroke-width="3" stroke="#000" fill="none"/>
  <path t="271679,272446,272446,272532,272885,272901,272917,272926,272950,273037" d="M197.5,127.66666C198.5,127.66666 199.47954,127.20112 200.21466,127.752C200.83107,128.21391 200.5,129.36667 200.5,130.26666L200.464,131.23067L199.7955,131.71933L199.10001,132.10266" id="svg_37" stroke-width="3" stroke="#000" fill="none"/>
 </g>
</svg>